<svg xmlns="http://www.w3.org/2000/svg" width="494" height="304" viewBox="0 0 494 304"><defs><style>.a,.e{fill:#fff;}.a{font-size:42px;font-family:Roboto-Black, Roboto;font-weight:800;}.b,.h{fill:#d5f2ff;}.b,.c,.d,.e{font-size:15px;font-family:Roboto-Medium, Roboto;font-weight:500;}.c,.g{fill:#badff0;}.d,.f{fill:#eca249;}.i{fill:#5f8393;}</style></defs><g transform="translate(-392.876 -6431.68)"><text class="a" transform="translate(749.876 6500.681)"><tspan x="0" y="0">68%</tspan></text><text class="a" transform="translate(616.876 6516.681)"><tspan x="0" y="0">62%</tspan></text><text class="a" transform="translate(392.876 6544.681)"><tspan x="0" y="0">51%</tspan></text><text class="b" transform="translate(749.876 6445.681)"><tspan x="0" y="0">Gen Z</tspan></text><text class="c" transform="translate(616.876 6461.681)"><tspan x="0" y="0">Millenials</tspan></text><text class="d" transform="translate(392.876 6490.681)"><tspan x="0" y="0">Boomers</tspan></text><text class="e" transform="translate(392.876 6731.681)"><tspan x="0" y="0">1946</tspan></text><text class="e" transform="translate(523.876 6731.681)"><tspan x="-34.094" y="0">1964</tspan></text><text class="e" transform="translate(616.876 6731.681)"><tspan x="0" y="0">1981</tspan></text><rect class="f" width="131" height="135" transform="translate(392.876 6566.681)"/><text class="e" transform="translate(751.876 6731.681)"><tspan x="-34.094" y="0">1996</tspan></text><rect class="g" width="133" height="164" transform="translate(616.876 6537.681)"/><rect class="h" width="137" height="179" transform="translate(749.876 6522.681)"/><rect class="i" width="494" height="5" transform="translate(392.876 6701.681)"/></g></svg>