<svg xmlns="http://www.w3.org/2000/svg" width="1004" height="326.121" viewBox="0 0 1004 326.121"><g transform="translate(-138 -5715)"><rect width="154" height="160" transform="translate(138 5791)" fill="#41b4e8"/><rect width="154" height="160" transform="translate(308 5791)" fill="#41b4e8"/><rect width="154" height="150" transform="translate(478 5801)" fill="#eca249"/><rect width="154" height="140" transform="translate(648 5812)" fill="#eca249"/><rect width="154" height="120" transform="translate(818 5831)" fill="#eca249"/><rect width="154" height="114" transform="translate(988 5837)" fill="#eca249"/><path d="M-1.92-16.008h-8.328L-11.64-7.392a6.448,6.448,0,0,1,2.952-.672,4.612,4.612,0,0,1,2.88.792A2.26,2.26,0,0,1-5.04-5.544a2.392,2.392,0,0,1-.624,1.632,2.881,2.881,0,0,1-2.088.792,5.948,5.948,0,0,1-2.4-.552,7.757,7.757,0,0,1-1.92-1.3L-12.7-1.08A9.722,9.722,0,0,0-7.3.36,6.671,6.671,0,0,0-2.3-1.44,5.6,5.6,0,0,0-.768-5.448,5.21,5.21,0,0,0-2.232-9.24a5.69,5.69,0,0,0-4.224-1.584,8.918,8.918,0,0,0-1.3.12l.288-1.776H-1.92ZM.792,0H5.376l9.168-16.008H1.416v3.528H8.088Z" transform="translate(1065 5875)" fill="#eff0f0"/><path d="M-7.992-16.008l-3.576,4.7a10.332,10.332,0,0,0-2.376,5.976A5.241,5.241,0,0,0-12.48-1.584,7,7,0,0,0-7.224.36a6.982,6.982,0,0,0,5.112-1.9A5.614,5.614,0,0,0-.456-5.712,5.147,5.147,0,0,0-1.968-9.528a5.2,5.2,0,0,0-3.624-1.536,5.637,5.637,0,0,0-2.232.5l4.56-5.448Zm.7,13.08a2.616,2.616,0,0,1-1.9-.816,2.662,2.662,0,0,1-.7-1.824A2.351,2.351,0,0,1-9.1-7.224a2.814,2.814,0,0,1,1.8-.7,2.609,2.609,0,0,1,1.848.744A2.288,2.288,0,0,1-4.7-5.5a2.574,2.574,0,0,1-.744,1.824A2.549,2.549,0,0,1-7.3-2.928Zm14.5-9.72a1.953,1.953,0,0,1,1.272.5c.84.744,1.392,2.784,1.392,4.2,0,1.368-.5,3.384-1.392,4.152a1.953,1.953,0,0,1-1.272.5,1.953,1.953,0,0,1-1.272-.5c-.936-.816-1.392-2.9-1.392-4.176,0-1.488.528-3.432,1.392-4.176A1.953,1.953,0,0,1,7.2-12.648Zm6.792,4.656a9.094,9.094,0,0,0-2.376-6.552A6.316,6.316,0,0,0,7.2-16.368a6.316,6.316,0,0,0-4.416,1.824A9.094,9.094,0,0,0,.408-7.992,9.074,9.074,0,0,0,2.784-1.464,6.316,6.316,0,0,0,7.2.36a6.316,6.316,0,0,0,4.416-1.824A9.074,9.074,0,0,0,13.992-7.992Z" transform="translate(895 5869)" fill="#eff0f0"/><path d="M-13.008,0h4.584L.744-16.008H-12.384v3.528h6.672ZM7.2-12.648a1.953,1.953,0,0,1,1.272.5c.84.744,1.392,2.784,1.392,4.2,0,1.368-.5,3.384-1.392,4.152a1.953,1.953,0,0,1-1.272.5,1.953,1.953,0,0,1-1.272-.5c-.936-.816-1.392-2.9-1.392-4.176,0-1.488.528-3.432,1.392-4.176A1.953,1.953,0,0,1,7.2-12.648Zm6.792,4.656a9.094,9.094,0,0,0-2.376-6.552A6.316,6.316,0,0,0,7.2-16.368a6.316,6.316,0,0,0-4.416,1.824A9.094,9.094,0,0,0,.408-7.992,9.074,9.074,0,0,0,2.784-1.464,6.316,6.316,0,0,0,7.2.36a6.316,6.316,0,0,0,4.416-1.824A9.074,9.074,0,0,0,13.992-7.992Z" transform="translate(725 5846)" fill="#eff0f0"/><path d="M-12.264,0H-7.68L1.488-16.008H-11.64v3.528h6.672ZM11.112-16.008H5.688L-.48-5.688v2.664H7.272V0h3.84V-3.024h1.944V-6.216H11.112ZM3.5-6.216l3.768-6.528v6.528Z" transform="translate(555 5841)" fill="#eff0f0"/><path d="M-23.848,0h8.4L1.364-29.348H-22.7v6.468h12.232Zm38.5,0,6.556-8.492c1.76-2.288,4.444-6.336,4.444-10.78a10.4,10.4,0,0,0-2.9-7.26c-1.144-1.144-4-3.476-9.416-3.476a12.887,12.887,0,0,0-9.636,3.7A10.792,10.792,0,0,0,.748-18.744,9.726,9.726,0,0,0,3.7-11.66a9.15,9.15,0,0,0,6.732,2.684A7.805,7.805,0,0,0,14.344-9.9L6.028,0ZM13.42-23.98a5.2,5.2,0,0,1,3.432,1.408,5,5,0,0,1,1.408,3.256,4.95,4.95,0,0,1-1.54,3.344,5.051,5.051,0,0,1-3.3,1.232,5.141,5.141,0,0,1-3.432-1.32A4.523,4.523,0,0,1,8.58-19.228a4.854,4.854,0,0,1,1.452-3.344A4.725,4.725,0,0,1,13.42-23.98Z" transform="translate(385 5848)" fill="#eff0f0"/><path d="M-23.848,0h8.4L1.364-29.348H-22.7v6.468h12.232Zm38.5,0,6.556-8.492c1.76-2.288,4.444-6.336,4.444-10.78a10.4,10.4,0,0,0-2.9-7.26c-1.144-1.144-4-3.476-9.416-3.476a12.887,12.887,0,0,0-9.636,3.7A10.792,10.792,0,0,0,.748-18.744,9.726,9.726,0,0,0,3.7-11.66a9.15,9.15,0,0,0,6.732,2.684A7.805,7.805,0,0,0,14.344-9.9L6.028,0ZM13.42-23.98a5.2,5.2,0,0,1,3.432,1.408,5,5,0,0,1,1.408,3.256,4.95,4.95,0,0,1-1.54,3.344,5.051,5.051,0,0,1-3.3,1.232,5.141,5.141,0,0,1-3.432-1.32A4.523,4.523,0,0,1,8.58-19.228a4.854,4.854,0,0,1,1.452-3.344A4.725,4.725,0,0,1,13.42-23.98Z" transform="translate(215 5848)" fill="#eff0f0"/><g transform="translate(-92 4373)"><circle cx="19" cy="19" r="19" transform="translate(257 1344)" fill="#41b4e8"/><rect width="38" height="38" transform="translate(307 1344)" fill="#41b4e8"/></g><g transform="translate(254 4187.5)"><path d="M22,0,44,38H0Z" transform="translate(303.5 1545.5) rotate(90)" fill="#eca249"/><path d="M22,0,44,38H0Z" transform="translate(341.5 1545.5) rotate(90)" fill="#eca249"/></g><g transform="translate(-255 4188)"><circle cx="19" cy="19" r="19" transform="translate(961 1527)" fill="#eca249"/><path d="M22,0,44,38H0Z" transform="translate(958.5 1569.5)" fill="#eca249"/></g><g transform="translate(126 4388)"><path d="M-88.13-4333.259h0L-115-4360.13-88.13-4387l26.87,26.87-26.87,26.871ZM-88-4371a10.012,10.012,0,0,0-10,10,10.011,10.011,0,0,0,10,10,10.011,10.011,0,0,0,10-10A10.012,10.012,0,0,0-88-4371Z" transform="translate(858 5757)" fill="#eca249"/></g><g transform="translate(425 4228.5)"><g transform="translate(2199.5 1182.5) rotate(90)"><path d="M22,0,44,38H0Z" transform="translate(363 1511)" fill="#eca249"/><path d="M22,0,44,38H0Z" transform="translate(407 1604) rotate(180)" fill="#eca249"/></g></g><path d="M26.174,14.02a11.253,11.253,0,0,1-.486,3.439,7.6,7.6,0,0,1-1.377,2.584,5.892,5.892,0,0,1-2.156,1.629,6.879,6.879,0,0,1-2.824.563,6.762,6.762,0,0,1-2.777-.562,6.105,6.105,0,0,1-2.18-1.629,7.6,7.6,0,0,1-1.418-2.584,10.889,10.889,0,0,1-.5-3.439V12.941a10.959,10.959,0,0,1,.5-3.439,7.7,7.7,0,0,1,1.406-2.6,6.058,6.058,0,0,1,2.168-1.635A6.7,6.7,0,0,1,19.307,4.7a6.859,6.859,0,0,1,2.83.568A5.991,5.991,0,0,1,24.3,6.906a7.524,7.524,0,0,1,1.383,2.6,11.325,11.325,0,0,1,.486,3.439Zm-2.238-1.1a10.562,10.562,0,0,0-.311-2.7,5.664,5.664,0,0,0-.908-1.969,3.9,3.9,0,0,0-1.459-1.207,4.484,4.484,0,0,0-1.951-.41,4.334,4.334,0,0,0-1.9.41,3.966,3.966,0,0,0-1.459,1.207,5.831,5.831,0,0,0-.932,1.969,10.025,10.025,0,0,0-.328,2.7v1.1a9.908,9.908,0,0,0,.334,2.707,5.912,5.912,0,0,0,.943,1.975,3.994,3.994,0,0,0,1.465,1.213,4.334,4.334,0,0,0,1.9.41,4.473,4.473,0,0,0,1.957-.41A3.849,3.849,0,0,0,22.734,18.7a5.717,5.717,0,0,0,.9-1.975,10.809,10.809,0,0,0,.3-2.707ZM39.92,15.8a9.56,9.56,0,0,1-.328,2.572,6.3,6.3,0,0,1-.955,2.039,4.312,4.312,0,0,1-3.627,1.822,5.391,5.391,0,0,1-2.092-.375,4.264,4.264,0,0,1-1.541-1.09v6.105H29.209V9.32h1.98l.105,1.406a4.3,4.3,0,0,1,1.559-1.219,5.014,5.014,0,0,1,2.121-.422,4.6,4.6,0,0,1,2.115.469,4.416,4.416,0,0,1,1.553,1.318,6,6,0,0,1,.955,2.039,10.1,10.1,0,0,1,.322,2.643Zm-2.168-.246a7.708,7.708,0,0,0-.2-1.787,4.5,4.5,0,0,0-.621-1.471,3.149,3.149,0,0,0-1.066-1,3.038,3.038,0,0,0-1.535-.369,3.642,3.642,0,0,0-1,.129,2.988,2.988,0,0,0-1.459.92,4.157,4.157,0,0,0-.492.7V18.73a4.157,4.157,0,0,0,.492.7,2.9,2.9,0,0,0,.645.551,3.123,3.123,0,0,0,.82.357,3.753,3.753,0,0,0,1.02.129,2.944,2.944,0,0,0,1.518-.375,3.225,3.225,0,0,0,1.061-1.008,4.5,4.5,0,0,0,.621-1.482,7.86,7.86,0,0,0,.2-1.8Zm10.184,6.68a6.054,6.054,0,0,1-2.4-.457,5.349,5.349,0,0,1-1.834-1.271,5.619,5.619,0,0,1-1.172-1.939,7.135,7.135,0,0,1-.41-2.461v-.492a7.747,7.747,0,0,1,.463-2.766A6.208,6.208,0,0,1,43.822,10.8a5.346,5.346,0,0,1,1.77-1.271,5.085,5.085,0,0,1,2.074-.439,5.349,5.349,0,0,1,2.344.475,4.445,4.445,0,0,1,1.623,1.307,5.554,5.554,0,0,1,.943,1.969,9.529,9.529,0,0,1,.3,2.473v.973h-8.59a5.43,5.43,0,0,0,.287,1.641,4,4,0,0,0,.75,1.324,3.492,3.492,0,0,0,2.725,1.219A3.776,3.776,0,0,0,50,20a4.888,4.888,0,0,0,1.395-1.242l1.324,1.031a5.791,5.791,0,0,1-.738.908,5.036,5.036,0,0,1-1.014.785,5.333,5.333,0,0,1-1.33.551A6.451,6.451,0,0,1,47.936,22.234Zm-.27-11.367a2.924,2.924,0,0,0-2.191.938,3.753,3.753,0,0,0-.721,1.137,5.762,5.762,0,0,0-.393,1.559h6.352v-.164a6,6,0,0,0-.205-1.254,3.405,3.405,0,0,0-.527-1.113,2.718,2.718,0,0,0-.92-.8A2.9,2.9,0,0,0,47.666,10.867ZM57.439,9.32l.07,1.594A4.9,4.9,0,0,1,59.15,9.572a4.707,4.707,0,0,1,2.156-.486,5.242,5.242,0,0,1,1.676.252,3.082,3.082,0,0,1,1.277.809,3.743,3.743,0,0,1,.814,1.43,6.82,6.82,0,0,1,.287,2.115V22H63.193V13.668a4.231,4.231,0,0,0-.164-1.26,2.078,2.078,0,0,0-.486-.85,1.917,1.917,0,0,0-.8-.48,3.587,3.587,0,0,0-1.1-.152,3.129,3.129,0,0,0-1.852.563,3.82,3.82,0,0,0-1.242,1.477V22H55.389V9.32Zm13.242,0,.07,1.594a4.9,4.9,0,0,1,1.641-1.342,4.707,4.707,0,0,1,2.156-.486,5.242,5.242,0,0,1,1.676.252,3.082,3.082,0,0,1,1.277.809,3.743,3.743,0,0,1,.814,1.43,6.82,6.82,0,0,1,.287,2.115V22H76.436V13.668a4.231,4.231,0,0,0-.164-1.26,2.078,2.078,0,0,0-.486-.85,1.917,1.917,0,0,0-.8-.48,3.587,3.587,0,0,0-1.1-.152,3.129,3.129,0,0,0-1.852.563A3.82,3.82,0,0,0,70.8,12.965V22H68.631V9.32ZM87.135,22.234a6.054,6.054,0,0,1-2.4-.457A5.349,5.349,0,0,1,82.9,20.506a5.619,5.619,0,0,1-1.172-1.939,7.135,7.135,0,0,1-.41-2.461v-.492a7.747,7.747,0,0,1,.463-2.766A6.208,6.208,0,0,1,83.021,10.8a5.346,5.346,0,0,1,1.77-1.271,5.085,5.085,0,0,1,2.074-.439,5.349,5.349,0,0,1,2.344.475,4.445,4.445,0,0,1,1.623,1.307,5.554,5.554,0,0,1,.943,1.969,9.529,9.529,0,0,1,.3,2.473v.973H83.49a5.43,5.43,0,0,0,.287,1.641,4,4,0,0,0,.75,1.324,3.492,3.492,0,0,0,2.725,1.219A3.776,3.776,0,0,0,89.2,20a4.888,4.888,0,0,0,1.395-1.242l1.324,1.031a5.791,5.791,0,0,1-.738.908,5.036,5.036,0,0,1-1.014.785,5.333,5.333,0,0,1-1.33.551A6.451,6.451,0,0,1,87.135,22.234Zm-.27-11.367a2.924,2.924,0,0,0-2.191.938,3.753,3.753,0,0,0-.721,1.137,5.762,5.762,0,0,0-.393,1.559h6.352v-.164a6,6,0,0,0-.205-1.254,3.405,3.405,0,0,0-.527-1.113,2.718,2.718,0,0,0-.92-.8A2.9,2.9,0,0,0,86.865,10.867Zm15.105,7.77a2.045,2.045,0,0,0-.105-.662,1.4,1.4,0,0,0-.416-.586,3.108,3.108,0,0,0-.885-.51,9.142,9.142,0,0,0-1.512-.434,14.313,14.313,0,0,1-1.9-.527,5.807,5.807,0,0,1-1.436-.732,3.018,3.018,0,0,1-.908-1.014,2.843,2.843,0,0,1-.316-1.371,3.165,3.165,0,0,1,.334-1.424,3.645,3.645,0,0,1,.943-1.184,4.621,4.621,0,0,1,1.477-.809,5.908,5.908,0,0,1,1.934-.3,6.192,6.192,0,0,1,2.033.311,4.634,4.634,0,0,1,1.523.85,3.635,3.635,0,0,1,.955,1.26,3.675,3.675,0,0,1,.328,1.541h-2.18a1.9,1.9,0,0,0-.176-.779,2.124,2.124,0,0,0-.516-.7,2.66,2.66,0,0,0-.832-.5,3.094,3.094,0,0,0-1.137-.193,3.678,3.678,0,0,0-1.154.158,2.276,2.276,0,0,0-.779.422,1.621,1.621,0,0,0-.445.6,1.751,1.751,0,0,0-.141.686,1.631,1.631,0,0,0,.117.633,1.2,1.2,0,0,0,.445.51,3.639,3.639,0,0,0,.9.422,14.243,14.243,0,0,0,1.471.393,14.22,14.22,0,0,1,2.016.609,5.5,5.5,0,0,1,1.418.791,2.922,2.922,0,0,1,.838,1.037,3.164,3.164,0,0,1,.275,1.359,3.31,3.31,0,0,1-1.336,2.707,4.86,4.86,0,0,1-1.547.768,6.847,6.847,0,0,1-2,.275,6.516,6.516,0,0,1-2.232-.352,5,5,0,0,1-1.623-.932,3.949,3.949,0,0,1-1-1.324,3.644,3.644,0,0,1-.34-1.529h2.168a2.275,2.275,0,0,0,.322,1.119,2.389,2.389,0,0,0,.721.732,2.918,2.918,0,0,0,.949.4,4.64,4.64,0,0,0,1.031.117,4.379,4.379,0,0,0,1.172-.141,2.71,2.71,0,0,0,.85-.387,1.665,1.665,0,0,0,.521-.58A1.524,1.524,0,0,0,101.971,18.637Zm12.375,0a2.045,2.045,0,0,0-.105-.662,1.4,1.4,0,0,0-.416-.586,3.108,3.108,0,0,0-.885-.51,9.142,9.142,0,0,0-1.512-.434,14.313,14.313,0,0,1-1.9-.527,5.807,5.807,0,0,1-1.436-.732,3.018,3.018,0,0,1-.908-1.014,2.843,2.843,0,0,1-.316-1.371,3.165,3.165,0,0,1,.334-1.424,3.645,3.645,0,0,1,.943-1.184,4.621,4.621,0,0,1,1.477-.809,5.908,5.908,0,0,1,1.934-.3,6.192,6.192,0,0,1,2.033.311,4.634,4.634,0,0,1,1.523.85,3.635,3.635,0,0,1,.955,1.26,3.675,3.675,0,0,1,.328,1.541h-2.18a1.9,1.9,0,0,0-.176-.779,2.124,2.124,0,0,0-.516-.7,2.66,2.66,0,0,0-.832-.5,3.094,3.094,0,0,0-1.137-.193,3.678,3.678,0,0,0-1.154.158,2.276,2.276,0,0,0-.779.422,1.621,1.621,0,0,0-.445.6,1.751,1.751,0,0,0-.141.686,1.631,1.631,0,0,0,.117.633,1.2,1.2,0,0,0,.445.51,3.639,3.639,0,0,0,.9.422,14.243,14.243,0,0,0,1.471.393,14.22,14.22,0,0,1,2.016.609,5.5,5.5,0,0,1,1.418.791,2.922,2.922,0,0,1,.838,1.037,3.164,3.164,0,0,1,.275,1.359,3.31,3.31,0,0,1-1.336,2.707,4.86,4.86,0,0,1-1.547.768,6.847,6.847,0,0,1-2,.275,6.516,6.516,0,0,1-2.232-.352,5,5,0,0,1-1.623-.932,3.949,3.949,0,0,1-1-1.324,3.644,3.644,0,0,1-.34-1.529H108.6a2.275,2.275,0,0,0,.322,1.119,2.389,2.389,0,0,0,.721.732,2.918,2.918,0,0,0,.949.4,4.64,4.64,0,0,0,1.031.117,4.379,4.379,0,0,0,1.172-.141,2.71,2.71,0,0,0,.85-.387,1.665,1.665,0,0,0,.521-.58A1.524,1.524,0,0,0,114.346,18.637ZM128.221,6.25V9.32h2.367V11h-2.367v7.863a2.208,2.208,0,0,0,.117.791,1.136,1.136,0,0,0,.311.463.991.991,0,0,0,.445.217,2.539,2.539,0,0,0,.521.053,3.274,3.274,0,0,0,.568-.053q.3-.053.463-.088V22q-.258.07-.668.152a5.168,5.168,0,0,1-1,.082,3.7,3.7,0,0,1-1.131-.17,2.278,2.278,0,0,1-.932-.568,2.8,2.8,0,0,1-.633-1.049,4.752,4.752,0,0,1-.234-1.6V11h-2.309V9.32h2.309V6.25Zm4.09,9.293a7.838,7.838,0,0,1,.4-2.561,6.187,6.187,0,0,1,1.148-2.045,5.256,5.256,0,0,1,1.811-1.359,5.639,5.639,0,0,1,2.391-.492,5.736,5.736,0,0,1,2.42.492,5.3,5.3,0,0,1,1.822,1.359,6.052,6.052,0,0,1,1.148,2.045,7.943,7.943,0,0,1,.4,2.561V15.8a7.943,7.943,0,0,1-.4,2.561,5.987,5.987,0,0,1-1.148,2.039,5.284,5.284,0,0,1-1.816,1.348,6.177,6.177,0,0,1-4.8,0,5.284,5.284,0,0,1-1.816-1.348,6.065,6.065,0,0,1-1.154-2.039,7.838,7.838,0,0,1-.4-2.561Zm2.18.258a7,7,0,0,0,.223,1.793,4.56,4.56,0,0,0,.674,1.482,3.367,3.367,0,0,0,1.125,1.014,3.488,3.488,0,0,0,3.146,0,3.294,3.294,0,0,0,1.125-1.014,4.729,4.729,0,0,0,.674-1.482,6.833,6.833,0,0,0,.229-1.793v-.258a6.852,6.852,0,0,0-.229-1.787,4.645,4.645,0,0,0-.68-1.488,3.408,3.408,0,0,0-1.131-1.02,3.183,3.183,0,0,0-1.582-.381,3.092,3.092,0,0,0-1.559.381,3.447,3.447,0,0,0-1.119,1.02,4.554,4.554,0,0,0-.674,1.488,7.023,7.023,0,0,0-.223,1.787ZM30.311,34.789H24.826V50H22.588V34.789H17.115V32.938h13.2ZM36.6,50.234a6.054,6.054,0,0,1-2.4-.457,5.349,5.349,0,0,1-1.834-1.271A5.619,5.619,0,0,1,31.2,46.566a7.135,7.135,0,0,1-.41-2.461v-.492a7.747,7.747,0,0,1,.463-2.766A6.208,6.208,0,0,1,32.49,38.8a5.346,5.346,0,0,1,1.77-1.271,5.085,5.085,0,0,1,2.074-.439,5.349,5.349,0,0,1,2.344.475A4.445,4.445,0,0,1,40.3,38.867a5.554,5.554,0,0,1,.943,1.969,9.529,9.529,0,0,1,.3,2.473v.973h-8.59a5.43,5.43,0,0,0,.287,1.641A4,4,0,0,0,34,47.246a3.492,3.492,0,0,0,2.725,1.219A3.776,3.776,0,0,0,38.666,48a4.888,4.888,0,0,0,1.395-1.242l1.324,1.031a5.791,5.791,0,0,1-.738.908,5.036,5.036,0,0,1-1.014.785,5.333,5.333,0,0,1-1.33.551A6.451,6.451,0,0,1,36.6,50.234Zm-.27-11.367a2.924,2.924,0,0,0-2.191.938,3.753,3.753,0,0,0-.721,1.137,5.762,5.762,0,0,0-.393,1.559h6.352v-.164a6,6,0,0,0-.205-1.254,3.405,3.405,0,0,0-.527-1.113,2.718,2.718,0,0,0-.92-.8A2.9,2.9,0,0,0,36.334,38.867Zm12.809,9.6a3.264,3.264,0,0,0,1.1-.187,3.126,3.126,0,0,0,.932-.516,2.675,2.675,0,0,0,.656-.779,2.424,2.424,0,0,0,.3-.979h2.051a3.786,3.786,0,0,1-.463,1.611,4.712,4.712,0,0,1-1.1,1.348,5.394,5.394,0,0,1-1.576.926,5.246,5.246,0,0,1-1.9.346,5.691,5.691,0,0,1-2.49-.51,5.052,5.052,0,0,1-1.764-1.377,5.83,5.83,0,0,1-1.049-2.016,8.372,8.372,0,0,1-.346-2.426v-.492a8.372,8.372,0,0,1,.346-2.426,5.83,5.83,0,0,1,1.049-2.016A5.066,5.066,0,0,1,46.646,37.6a5.653,5.653,0,0,1,2.484-.51,5.559,5.559,0,0,1,2.021.352,4.852,4.852,0,0,1,1.57.967,4.418,4.418,0,0,1,1.037,1.459,5.028,5.028,0,0,1,.422,1.816H52.131a3.3,3.3,0,0,0-.275-1.1,2.905,2.905,0,0,0-.615-.891,2.872,2.872,0,0,0-.92-.6,3.059,3.059,0,0,0-1.189-.223,3.194,3.194,0,0,0-1.67.4,3.149,3.149,0,0,0-1.066,1.049,4.391,4.391,0,0,0-.568,1.465,8.259,8.259,0,0,0-.164,1.635v.492a8.376,8.376,0,0,0,.164,1.658,4.4,4.4,0,0,0,.563,1.459,3.1,3.1,0,0,0,1.066,1.043A3.251,3.251,0,0,0,49.143,48.465Zm9.645-9.609a4.863,4.863,0,0,1,1.629-1.3,4.725,4.725,0,0,1,2.121-.469,5.242,5.242,0,0,1,1.676.252,3.082,3.082,0,0,1,1.277.809,3.743,3.743,0,0,1,.814,1.43,6.82,6.82,0,0,1,.287,2.115V50H64.424V41.668a4.231,4.231,0,0,0-.164-1.26,2.078,2.078,0,0,0-.486-.85,1.917,1.917,0,0,0-.8-.48,3.587,3.587,0,0,0-1.1-.152,3.129,3.129,0,0,0-1.852.563,3.82,3.82,0,0,0-1.242,1.477V50H56.619V32h2.168Zm13.1-1.535.07,1.594A4.9,4.9,0,0,1,73.6,37.572a4.707,4.707,0,0,1,2.156-.486,5.242,5.242,0,0,1,1.676.252,3.082,3.082,0,0,1,1.277.809,3.743,3.743,0,0,1,.814,1.43,6.82,6.82,0,0,1,.287,2.115V50H77.643V41.668a4.231,4.231,0,0,0-.164-1.26,2.078,2.078,0,0,0-.486-.85,1.917,1.917,0,0,0-.8-.48,3.587,3.587,0,0,0-1.1-.152,3.129,3.129,0,0,0-1.852.563,3.82,3.82,0,0,0-1.242,1.477V50H69.838V37.32Zm10.617,6.223a7.838,7.838,0,0,1,.4-2.561,6.187,6.187,0,0,1,1.148-2.045,5.256,5.256,0,0,1,1.811-1.359,5.639,5.639,0,0,1,2.391-.492,5.736,5.736,0,0,1,2.42.492A5.3,5.3,0,0,1,92.5,38.938a6.052,6.052,0,0,1,1.148,2.045,7.943,7.943,0,0,1,.4,2.561V43.8a7.943,7.943,0,0,1-.4,2.561A5.987,5.987,0,0,1,92.5,48.4a5.284,5.284,0,0,1-1.816,1.348,6.177,6.177,0,0,1-4.8,0A5.284,5.284,0,0,1,84.064,48.4a6.065,6.065,0,0,1-1.154-2.039,7.838,7.838,0,0,1-.4-2.561Zm2.18.258a7,7,0,0,0,.223,1.793,4.56,4.56,0,0,0,.674,1.482,3.367,3.367,0,0,0,1.125,1.014,3.488,3.488,0,0,0,3.146,0,3.294,3.294,0,0,0,1.125-1.014,4.729,4.729,0,0,0,.674-1.482,6.833,6.833,0,0,0,.229-1.793v-.258a6.852,6.852,0,0,0-.229-1.787,4.645,4.645,0,0,0-.68-1.488,3.408,3.408,0,0,0-1.131-1.02,3.183,3.183,0,0,0-1.582-.381,3.092,3.092,0,0,0-1.559.381,3.447,3.447,0,0,0-1.119,1.02,4.554,4.554,0,0,0-.674,1.488,7.023,7.023,0,0,0-.223,1.787ZM99.123,50H96.955V32h2.168Zm2.895-6.457a7.838,7.838,0,0,1,.4-2.561,6.187,6.187,0,0,1,1.148-2.045,5.256,5.256,0,0,1,1.811-1.359,5.639,5.639,0,0,1,2.391-.492,5.736,5.736,0,0,1,2.42.492,5.3,5.3,0,0,1,1.822,1.359,6.052,6.052,0,0,1,1.148,2.045,7.943,7.943,0,0,1,.4,2.561V43.8a7.943,7.943,0,0,1-.4,2.561,5.987,5.987,0,0,1-1.148,2.039,5.284,5.284,0,0,1-1.816,1.348,6.177,6.177,0,0,1-4.8,0,5.284,5.284,0,0,1-1.816-1.348,6.065,6.065,0,0,1-1.154-2.039,7.838,7.838,0,0,1-.4-2.561Zm2.18.258a7,7,0,0,0,.223,1.793,4.56,4.56,0,0,0,.674,1.482,3.367,3.367,0,0,0,1.125,1.014,3.488,3.488,0,0,0,3.146,0,3.294,3.294,0,0,0,1.125-1.014,4.729,4.729,0,0,0,.674-1.482,6.833,6.833,0,0,0,.229-1.793v-.258a6.852,6.852,0,0,0-.229-1.787,4.645,4.645,0,0,0-.68-1.488,3.408,3.408,0,0,0-1.131-1.02,3.183,3.183,0,0,0-1.582-.381,3.092,3.092,0,0,0-1.559.381,3.447,3.447,0,0,0-1.119,1.02,4.554,4.554,0,0,0-.674,1.488,7.023,7.023,0,0,0-.223,1.787Zm11.566-.246a9.452,9.452,0,0,1,.346-2.643,6.133,6.133,0,0,1,1-2.039,4.451,4.451,0,0,1,3.662-1.787,4.855,4.855,0,0,1,2.1.422,4.249,4.249,0,0,1,1.523,1.219l.105-1.406h1.98V49.73a5.957,5.957,0,0,1-.393,2.232,4.577,4.577,0,0,1-1.107,1.652,4.794,4.794,0,0,1-1.7,1.025,6.443,6.443,0,0,1-2.18.352,6.675,6.675,0,0,1-1.131-.111,6.8,6.8,0,0,1-1.289-.363,5.783,5.783,0,0,1-1.248-.674,4.047,4.047,0,0,1-1.02-1.043l1.125-1.3a5.083,5.083,0,0,0,.82.82,4.449,4.449,0,0,0,.85.527,3.828,3.828,0,0,0,.867.287,4.443,4.443,0,0,0,.873.088,4.175,4.175,0,0,0,1.383-.217,2.8,2.8,0,0,0,1.061-.65,2.885,2.885,0,0,0,.674-1.061,4.157,4.157,0,0,0,.234-1.459v-1.1a4.266,4.266,0,0,1-1.506,1.113,5.013,5.013,0,0,1-2.045.387,4.375,4.375,0,0,1-2.057-.48,4.649,4.649,0,0,1-1.57-1.342,6.374,6.374,0,0,1-1-2.039,8.961,8.961,0,0,1-.352-2.572Zm2.18.246a7.932,7.932,0,0,0,.193,1.787,4.509,4.509,0,0,0,.6,1.459,2.884,2.884,0,0,0,2.549,1.348,3.562,3.562,0,0,0,1.037-.141,3.13,3.13,0,0,0,.832-.387,3,3,0,0,0,.65-.586,4.144,4.144,0,0,0,.492-.75V40.742a4.348,4.348,0,0,0-.492-.721,3.076,3.076,0,0,0-.65-.58,3.017,3.017,0,0,0-.826-.381,3.6,3.6,0,0,0-1.02-.135,2.974,2.974,0,0,0-1.523.369,3.08,3.08,0,0,0-1.043,1,4.568,4.568,0,0,0-.6,1.471,7.932,7.932,0,0,0-.193,1.787Zm15.949,3.023,2.953-9.5h2.32l-5.1,14.637a9.937,9.937,0,0,1-.457,1.02A4.371,4.371,0,0,1,132.879,54a3.956,3.956,0,0,1-1.084.8,3.24,3.24,0,0,1-1.488.322,2.349,2.349,0,0,1-.3-.023q-.176-.023-.352-.053t-.328-.059q-.152-.029-.234-.053V53.176a.789.789,0,0,0,.129.018l.17.012.164.012q.076.006.123.006a4.031,4.031,0,0,0,.973-.105,2.129,2.129,0,0,0,.75-.346,2.158,2.158,0,0,0,.568-.639,5.09,5.09,0,0,0,.439-.984l.48-1.289L128.361,37.32h2.367Z" transform="translate(987 5986)" fill="#26353c"/><path d="M-32.408-5.414A7.878,7.878,0,0,1-33-3.17a5.425,5.425,0,0,1-1.248,1.793A5.652,5.652,0,0,1-36.193-.193a7.675,7.675,0,0,1-2.684.428,6.52,6.52,0,0,1-2.742-.562,5.951,5.951,0,0,1-2.1-1.6,7.371,7.371,0,0,1-1.348-2.49,10.421,10.421,0,0,1-.475-3.246V-9.375a10.358,10.358,0,0,1,.48-3.252,7.272,7.272,0,0,1,1.371-2.5,6.085,6.085,0,0,1,2.162-1.605,6.918,6.918,0,0,1,2.854-.568,7.179,7.179,0,0,1,2.555.422A5.455,5.455,0,0,1-34.23-15.7a5.6,5.6,0,0,1,1.236,1.8,7.717,7.717,0,0,1,.586,2.314H-34.67a7.66,7.66,0,0,0-.4-1.605,3.611,3.611,0,0,0-.744-1.219,3.128,3.128,0,0,0-1.178-.773,4.719,4.719,0,0,0-1.687-.27,4.339,4.339,0,0,0-2,.439,4.047,4.047,0,0,0-1.441,1.23,5.588,5.588,0,0,0-.873,1.91A9.732,9.732,0,0,0-43.283-9.4v1.734a10.1,10.1,0,0,0,.264,2.355,6.092,6.092,0,0,0,.8,1.928,3.968,3.968,0,0,0,1.371,1.3,3.908,3.908,0,0,0,1.969.475,5.555,5.555,0,0,0,1.816-.258,3.185,3.185,0,0,0,1.225-.744,3.344,3.344,0,0,0,.756-1.2,8.012,8.012,0,0,0,.41-1.611Zm10.559,4.16a4.04,4.04,0,0,1-1.512,1.1,5.568,5.568,0,0,1-2.2.393,5.171,5.171,0,0,1-1.7-.264,3.307,3.307,0,0,1-1.312-.832,3.788,3.788,0,0,1-.85-1.465,6.879,6.879,0,0,1-.3-2.162V-12.68h2.168v8.215a4.247,4.247,0,0,0,.2,1.412,2.292,2.292,0,0,0,.527.879,1.763,1.763,0,0,0,.75.445,3.081,3.081,0,0,0,.867.123,3.959,3.959,0,0,0,2.127-.5,3,3,0,0,0,1.178-1.348V-12.68h2.168V0H-21.8Zm11.531-9.48q-.281-.047-.521-.064t-.545-.018a3.149,3.149,0,0,0-1.834.492A2.99,2.99,0,0,0-14.279-9V0h-2.168V-12.68h2.109l.035,1.465a3.817,3.817,0,0,1,1.23-1.242,3.342,3.342,0,0,1,1.793-.457,3.2,3.2,0,0,1,.539.053,1.711,1.711,0,0,1,.422.111ZM-5.971,0H-8.139V-12.68h2.168ZM-8.314-16.043a1.294,1.294,0,0,1,.322-.891,1.21,1.21,0,0,1,.955-.363,1.229,1.229,0,0,1,.961.363,1.28,1.28,0,0,1,.328.891,1.238,1.238,0,0,1-.328.879,1.251,1.251,0,0,1-.961.352,1.232,1.232,0,0,1-.955-.352A1.251,1.251,0,0,1-8.314-16.043Zm5.238,9.586a7.838,7.838,0,0,1,.4-2.561,6.187,6.187,0,0,1,1.148-2.045A5.256,5.256,0,0,1,.287-12.422a5.639,5.639,0,0,1,2.391-.492,5.736,5.736,0,0,1,2.42.492A5.3,5.3,0,0,1,6.92-11.062,6.052,6.052,0,0,1,8.068-9.018a7.943,7.943,0,0,1,.4,2.561V-6.2a7.943,7.943,0,0,1-.4,2.561A5.987,5.987,0,0,1,6.92-1.6,5.284,5.284,0,0,1,5.1-.252,5.726,5.726,0,0,1,2.7.234,5.726,5.726,0,0,1,.3-.252,5.284,5.284,0,0,1-1.518-1.6,6.065,6.065,0,0,1-2.672-3.639a7.838,7.838,0,0,1-.4-2.561ZM-.9-6.2A7,7,0,0,0-.674-4.406,4.56,4.56,0,0,0,0-2.924,3.367,3.367,0,0,0,1.125-1.91,3.189,3.189,0,0,0,2.7-1.535a3.2,3.2,0,0,0,1.57-.375A3.294,3.294,0,0,0,5.4-2.924,4.729,4.729,0,0,0,6.07-4.406,6.833,6.833,0,0,0,6.3-6.2v-.258A6.852,6.852,0,0,0,6.07-8.244a4.645,4.645,0,0,0-.68-1.488,3.408,3.408,0,0,0-1.131-1.02,3.183,3.183,0,0,0-1.582-.381,3.092,3.092,0,0,0-1.559.381A3.447,3.447,0,0,0,0-9.732,4.554,4.554,0,0,0-.674-8.244,7.023,7.023,0,0,0-.9-6.457ZM18.568-3.363a2.045,2.045,0,0,0-.105-.662,1.4,1.4,0,0,0-.416-.586,3.108,3.108,0,0,0-.885-.51,9.142,9.142,0,0,0-1.512-.434,14.313,14.313,0,0,1-1.9-.527,5.807,5.807,0,0,1-1.436-.732,3.018,3.018,0,0,1-.908-1.014A2.843,2.843,0,0,1,11.092-9.2a3.165,3.165,0,0,1,.334-1.424,3.645,3.645,0,0,1,.943-1.184,4.621,4.621,0,0,1,1.477-.809,5.908,5.908,0,0,1,1.934-.3,6.192,6.192,0,0,1,2.033.311,4.634,4.634,0,0,1,1.523.85,3.635,3.635,0,0,1,.955,1.26,3.675,3.675,0,0,1,.328,1.541h-2.18a1.9,1.9,0,0,0-.176-.779,2.124,2.124,0,0,0-.516-.7,2.66,2.66,0,0,0-.832-.5,3.094,3.094,0,0,0-1.137-.193,3.678,3.678,0,0,0-1.154.158,2.276,2.276,0,0,0-.779.422,1.621,1.621,0,0,0-.445.6,1.751,1.751,0,0,0-.141.686,1.631,1.631,0,0,0,.117.633,1.2,1.2,0,0,0,.445.51,3.639,3.639,0,0,0,.9.422,14.243,14.243,0,0,0,1.471.393,14.22,14.22,0,0,1,2.016.609,5.5,5.5,0,0,1,1.418.791,2.922,2.922,0,0,1,.838,1.037,3.164,3.164,0,0,1,.275,1.359,3.358,3.358,0,0,1-.346,1.523A3.379,3.379,0,0,1,19.4-.809a4.86,4.86,0,0,1-1.547.768,6.847,6.847,0,0,1-2,.275,6.516,6.516,0,0,1-2.232-.352,5,5,0,0,1-1.623-.932,3.949,3.949,0,0,1-1-1.324,3.644,3.644,0,0,1-.34-1.529h2.168a2.275,2.275,0,0,0,.322,1.119,2.389,2.389,0,0,0,.721.732,2.918,2.918,0,0,0,.949.4,4.64,4.64,0,0,0,1.031.117,4.379,4.379,0,0,0,1.172-.141,2.71,2.71,0,0,0,.85-.387,1.665,1.665,0,0,0,.521-.58A1.524,1.524,0,0,0,18.568-3.363ZM25.916,0H23.748V-12.68h2.168ZM23.572-16.043a1.294,1.294,0,0,1,.322-.891,1.21,1.21,0,0,1,.955-.363,1.229,1.229,0,0,1,.961.363,1.28,1.28,0,0,1,.328.891,1.238,1.238,0,0,1-.328.879,1.251,1.251,0,0,1-.961.352,1.232,1.232,0,0,1-.955-.352A1.251,1.251,0,0,1,23.572-16.043Zm8.754.293v3.07h2.367V-11H32.326v7.863a2.208,2.208,0,0,0,.117.791,1.136,1.136,0,0,0,.311.463.991.991,0,0,0,.445.217,2.539,2.539,0,0,0,.521.053,3.274,3.274,0,0,0,.568-.053q.3-.053.463-.088V0q-.258.07-.668.152a5.168,5.168,0,0,1-1,.082,3.7,3.7,0,0,1-1.131-.17A2.278,2.278,0,0,1,31.025-.5a2.8,2.8,0,0,1-.633-1.049,4.752,4.752,0,0,1-.234-1.6V-11H27.85V-12.68h2.309v-3.07ZM41.373-3.176l2.953-9.5h2.32l-5.1,14.637a9.937,9.937,0,0,1-.457,1.02A4.371,4.371,0,0,1,40.359,4a3.956,3.956,0,0,1-1.084.8,3.24,3.24,0,0,1-1.488.322,2.349,2.349,0,0,1-.3-.023q-.176-.023-.352-.053T36.8,4.986q-.152-.029-.234-.053V3.176a.789.789,0,0,0,.129.018l.17.012.164.012q.076.006.123.006a4.031,4.031,0,0,0,.973-.105,2.129,2.129,0,0,0,.75-.346,2.158,2.158,0,0,0,.568-.639,5.09,5.09,0,0,0,.439-.984l.48-1.289L35.842-12.68h2.367Z" transform="translate(895 6010)" fill="#26353c"/><path d="M-35.268-5.414a7.878,7.878,0,0,1-.592,2.244,5.425,5.425,0,0,1-1.248,1.793A5.652,5.652,0,0,1-39.053-.193a7.675,7.675,0,0,1-2.684.428,6.52,6.52,0,0,1-2.742-.562,5.951,5.951,0,0,1-2.1-1.6,7.371,7.371,0,0,1-1.348-2.49A10.421,10.421,0,0,1-48.4-7.664V-9.375a10.358,10.358,0,0,1,.48-3.252,7.272,7.272,0,0,1,1.371-2.5,6.085,6.085,0,0,1,2.162-1.605,6.918,6.918,0,0,1,2.854-.568,7.179,7.179,0,0,1,2.555.422A5.455,5.455,0,0,1-37.09-15.7a5.6,5.6,0,0,1,1.236,1.8,7.717,7.717,0,0,1,.586,2.314h-2.262a7.66,7.66,0,0,0-.4-1.605,3.611,3.611,0,0,0-.744-1.219,3.128,3.128,0,0,0-1.178-.773,4.719,4.719,0,0,0-1.687-.27,4.339,4.339,0,0,0-2,.439,4.047,4.047,0,0,0-1.441,1.23,5.588,5.588,0,0,0-.873,1.91A9.732,9.732,0,0,0-46.143-9.4v1.734a10.1,10.1,0,0,0,.264,2.355,6.092,6.092,0,0,0,.8,1.928,3.968,3.968,0,0,0,1.371,1.3,3.908,3.908,0,0,0,1.969.475,5.555,5.555,0,0,0,1.816-.258A3.185,3.185,0,0,0-38.7-2.607a3.344,3.344,0,0,0,.756-1.2,8.012,8.012,0,0,0,.41-1.611Zm8.859-5.32q-.281-.047-.521-.064t-.545-.018a3.149,3.149,0,0,0-1.834.492A2.99,2.99,0,0,0-30.369-9V0h-2.168V-12.68h2.109l.035,1.465a3.817,3.817,0,0,1,1.23-1.242,3.342,3.342,0,0,1,1.793-.457,3.2,3.2,0,0,1,.539.053,1.711,1.711,0,0,1,.422.111ZM-19.377.234a6.054,6.054,0,0,1-2.4-.457,5.349,5.349,0,0,1-1.834-1.271,5.619,5.619,0,0,1-1.172-1.939,7.135,7.135,0,0,1-.41-2.461v-.492a7.747,7.747,0,0,1,.463-2.766A6.208,6.208,0,0,1-23.49-11.2a5.346,5.346,0,0,1,1.77-1.271,5.085,5.085,0,0,1,2.074-.439,5.349,5.349,0,0,1,2.344.475,4.445,4.445,0,0,1,1.623,1.307,5.554,5.554,0,0,1,.943,1.969,9.529,9.529,0,0,1,.3,2.473v.973h-8.59a5.43,5.43,0,0,0,.287,1.641,4,4,0,0,0,.75,1.324,3.565,3.565,0,0,0,1.172.891,3.553,3.553,0,0,0,1.553.328A3.776,3.776,0,0,0-17.314-2,4.888,4.888,0,0,0-15.92-3.246L-14.6-2.215a5.791,5.791,0,0,1-.738.908,5.036,5.036,0,0,1-1.014.785,5.333,5.333,0,0,1-1.33.551A6.451,6.451,0,0,1-19.377.234Zm-.27-11.367a2.986,2.986,0,0,0-1.207.24,3,3,0,0,0-.984.7,3.753,3.753,0,0,0-.721,1.137A5.762,5.762,0,0,0-22.951-7.5H-16.6v-.164A6,6,0,0,0-16.8-8.918a3.405,3.405,0,0,0-.527-1.113,2.718,2.718,0,0,0-.92-.8A2.9,2.9,0,0,0-19.646-11.133ZM-4.1,0a2.348,2.348,0,0,1-.187-.592q-.07-.357-.117-.744a5.774,5.774,0,0,1-.686.6,4.911,4.911,0,0,1-.832.5A4.737,4.737,0,0,1-6.9.111,4.887,4.887,0,0,1-8.01.234,5.047,5.047,0,0,1-9.773-.059a4.108,4.108,0,0,1-1.348-.8,3.511,3.511,0,0,1-.861-1.189,3.58,3.58,0,0,1-.3-1.471,3.9,3.9,0,0,1,.4-1.8,3.588,3.588,0,0,1,1.143-1.307,5.388,5.388,0,0,1,1.8-.8,9.52,9.52,0,0,1,2.355-.27h2.156v-1a2.435,2.435,0,0,0-.68-1.811,2.732,2.732,0,0,0-2-.674A3.581,3.581,0,0,0-8.232-11a2.837,2.837,0,0,0-.861.439,2.049,2.049,0,0,0-.557.639,1.562,1.562,0,0,0-.2.762h-2.18a2.83,2.83,0,0,1,.357-1.348,3.954,3.954,0,0,1,1.014-1.2A5.364,5.364,0,0,1-9.07-12.58a6.131,6.131,0,0,1,2.08-.334,6.562,6.562,0,0,1,1.9.264,4.064,4.064,0,0,1,1.494.8,3.683,3.683,0,0,1,.973,1.33A4.583,4.583,0,0,1-2.268-8.66v5.895a8.734,8.734,0,0,0,.111,1.354A5.09,5.09,0,0,0-1.822-.187V0Zm-3.6-1.652a3.613,3.613,0,0,0,1.1-.164,4.113,4.113,0,0,0,.938-.428,3.49,3.49,0,0,0,.732-.6,2.955,2.955,0,0,0,.486-.7v-2.6h-1.8a5.819,5.819,0,0,0-2.871.58A1.894,1.894,0,0,0-10.119-3.82a2.375,2.375,0,0,0,.152.855,1.793,1.793,0,0,0,.463.686,2.3,2.3,0,0,0,.762.457A2.968,2.968,0,0,0-7.693-1.652ZM4.072-15.75v3.07H6.439V-11H4.072v7.863a2.208,2.208,0,0,0,.117.791,1.136,1.136,0,0,0,.311.463.991.991,0,0,0,.445.217,2.539,2.539,0,0,0,.521.053,3.274,3.274,0,0,0,.568-.053q.3-.053.463-.088V0Q6.24.07,5.83.152a5.168,5.168,0,0,1-1,.082A3.7,3.7,0,0,1,3.7.064,2.278,2.278,0,0,1,2.771-.5a2.8,2.8,0,0,1-.633-1.049,4.752,4.752,0,0,1-.234-1.6V-11H-.4V-12.68H1.9v-3.07ZM11.326,0H9.158V-12.68h2.168ZM8.982-16.043a1.294,1.294,0,0,1,.322-.891,1.21,1.21,0,0,1,.955-.363,1.229,1.229,0,0,1,.961.363,1.28,1.28,0,0,1,.328.891,1.238,1.238,0,0,1-.328.879,1.251,1.251,0,0,1-.961.352,1.232,1.232,0,0,1-.955-.352A1.251,1.251,0,0,1,8.982-16.043Zm10,13.1,3.141-9.738h2.215L19.787,0H18.135L13.541-12.68h2.215ZM28.775,0H26.607V-12.68h2.168ZM26.432-16.043a1.294,1.294,0,0,1,.322-.891,1.21,1.21,0,0,1,.955-.363,1.229,1.229,0,0,1,.961.363,1.28,1.28,0,0,1,.328.891,1.238,1.238,0,0,1-.328.879,1.251,1.251,0,0,1-.961.352,1.232,1.232,0,0,1-.955-.352A1.251,1.251,0,0,1,26.432-16.043Zm8.754.293v3.07h2.367V-11H35.186v7.863a2.208,2.208,0,0,0,.117.791,1.136,1.136,0,0,0,.311.463.991.991,0,0,0,.445.217,2.539,2.539,0,0,0,.521.053,3.274,3.274,0,0,0,.568-.053q.3-.053.463-.088V0q-.258.07-.668.152a5.168,5.168,0,0,1-1,.082,3.7,3.7,0,0,1-1.131-.17A2.278,2.278,0,0,1,33.885-.5a2.8,2.8,0,0,1-.633-1.049,4.752,4.752,0,0,1-.234-1.6V-11H30.709V-12.68h2.309v-3.07ZM44.232-3.176l2.953-9.5h2.32l-5.1,14.637a9.937,9.937,0,0,1-.457,1.02A4.371,4.371,0,0,1,43.219,4a3.956,3.956,0,0,1-1.084.8,3.24,3.24,0,0,1-1.488.322,2.349,2.349,0,0,1-.3-.023q-.176-.023-.352-.053t-.328-.059q-.152-.029-.234-.053V3.176a.789.789,0,0,0,.129.018l.17.012.164.012q.076.006.123.006a4.031,4.031,0,0,0,.973-.105,2.129,2.129,0,0,0,.75-.346,2.158,2.158,0,0,0,.568-.639,5.09,5.09,0,0,0,.439-.984l.48-1.289L38.7-12.68h2.367Z" transform="translate(725 6011)" fill="#26353c"/><path d="M-45.738,0V-17.062h5.25a8.209,8.209,0,0,1,3.158.592,7.107,7.107,0,0,1,2.461,1.664,7.606,7.606,0,0,1,1.6,2.572A9.242,9.242,0,0,1-32.7-8.906v.773a9.279,9.279,0,0,1-.568,3.322,7.452,7.452,0,0,1-1.605,2.566A7.146,7.146,0,0,1-37.348-.586,8.357,8.357,0,0,1-40.523,0Zm3.516-14.215V-2.824h1.7A3.808,3.808,0,0,0-37.348-4.2a6.207,6.207,0,0,0,1.09-3.932v-.8a6.187,6.187,0,0,0-1.078-3.943,3.8,3.8,0,0,0-3.152-1.342ZM-26.789,0h-3.4V-12.68h3.4Zm-3.6-15.961a1.668,1.668,0,0,1,.51-1.254,1.915,1.915,0,0,1,1.389-.492,2.267,2.267,0,0,1,.785.129,1.7,1.7,0,0,1,.6.363,1.625,1.625,0,0,1,.381.557,1.789,1.789,0,0,1,.135.7,1.82,1.82,0,0,1-.135.709,1.625,1.625,0,0,1-.381.557,1.7,1.7,0,0,1-.6.363,2.267,2.267,0,0,1-.785.129,2.267,2.267,0,0,1-.785-.129,1.7,1.7,0,0,1-.6-.363,1.625,1.625,0,0,1-.381-.557A1.82,1.82,0,0,1-30.387-15.961ZM-19.254-4.137-16.9-12.68h3.539L-17.637,0h-3.234l-4.277-12.68h3.539ZM-6.187.234A6.883,6.883,0,0,1-8.83-.246a5.851,5.851,0,0,1-1.98-1.312A5.628,5.628,0,0,1-12.053-3.51a6.655,6.655,0,0,1-.428-2.4v-.457a8.029,8.029,0,0,1,.416-2.643,6.084,6.084,0,0,1,1.184-2.068,5.356,5.356,0,0,1,1.863-1.354,5.988,5.988,0,0,1,2.455-.486,6.035,6.035,0,0,1,2.414.451A4.826,4.826,0,0,1-2.4-11.2,5.382,5.382,0,0,1-1.33-9.234,8.573,8.573,0,0,1-.973-6.68v1.441H-9.047a3.531,3.531,0,0,0,.334,1.125,2.913,2.913,0,0,0,.645.861,2.843,2.843,0,0,0,.92.557,3.329,3.329,0,0,0,1.184.2,4.2,4.2,0,0,0,1.711-.346A3.45,3.45,0,0,0-2.906-3.914l1.664,1.863A5.026,5.026,0,0,1-2-1.207a5.166,5.166,0,0,1-1.078.732,6.354,6.354,0,0,1-1.4.516A7.074,7.074,0,0,1-6.187.234Zm-.387-10.406a2.272,2.272,0,0,0-.967.193,2.109,2.109,0,0,0-.715.539,2.815,2.815,0,0,0-.486.826,4.733,4.733,0,0,0-.27,1.066H-4.3v-.27a3.414,3.414,0,0,0-.146-.937,2.056,2.056,0,0,0-.41-.75,1.842,1.842,0,0,0-.7-.492A2.658,2.658,0,0,0-6.574-10.172ZM8.074-9.5q-.258-.035-.6-.064T6.855-9.6a3.371,3.371,0,0,0-1.611.334,2.057,2.057,0,0,0-.908.967V0H.949V-12.68h3.2l.094,1.512a3.8,3.8,0,0,1,1.184-1.283,2.915,2.915,0,0,1,1.641-.463,3.673,3.673,0,0,1,.568.047,3.5,3.5,0,0,1,.486.105Zm8.5,6A1.135,1.135,0,0,0,16.465-4a1.076,1.076,0,0,0-.4-.416,3.659,3.659,0,0,0-.8-.369,10.479,10.479,0,0,0-1.3-.34,12.343,12.343,0,0,1-1.8-.527,5.549,5.549,0,0,1-1.43-.785A3.51,3.51,0,0,1,9.8-7.523a2.955,2.955,0,0,1-.34-1.441A3.429,3.429,0,0,1,9.8-10.477a3.787,3.787,0,0,1,1-1.26,4.856,4.856,0,0,1,1.594-.861,6.668,6.668,0,0,1,2.127-.316,7.479,7.479,0,0,1,2.215.3,5.055,5.055,0,0,1,1.67.85,3.767,3.767,0,0,1,1.055,1.295,3.664,3.664,0,0,1,.369,1.641H16.441a1.639,1.639,0,0,0-.469-1.2,1.984,1.984,0,0,0-1.465-.475,2.027,2.027,0,0,0-1.324.387,1.221,1.221,0,0,0-.469.984.991.991,0,0,0,.123.5,1.208,1.208,0,0,0,.4.4,3.182,3.182,0,0,0,.727.334,8.863,8.863,0,0,0,1.107.281,15.106,15.106,0,0,1,1.91.492,5.568,5.568,0,0,1,1.518.756,3.4,3.4,0,0,1,1,1.125,3.281,3.281,0,0,1,.363,1.6,3.269,3.269,0,0,1-.375,1.553A3.627,3.627,0,0,1,18.416-.867a5.386,5.386,0,0,1-1.682.809,7.712,7.712,0,0,1-2.2.293,6.8,6.8,0,0,1-2.355-.375,5.422,5.422,0,0,1-1.717-.984A4.1,4.1,0,0,1,9.41-2.5a3.633,3.633,0,0,1-.352-1.535H12.27a1.962,1.962,0,0,0,.217.85A1.666,1.666,0,0,0,13-2.6a2.2,2.2,0,0,0,.732.328,3.54,3.54,0,0,0,.873.105,2.452,2.452,0,0,0,1.471-.369A1.149,1.149,0,0,0,16.57-3.5ZM25.617,0h-3.4V-12.68h3.4Zm-3.6-15.961a1.668,1.668,0,0,1,.51-1.254,1.915,1.915,0,0,1,1.389-.492,2.267,2.267,0,0,1,.785.129,1.7,1.7,0,0,1,.6.363,1.625,1.625,0,0,1,.381.557,1.789,1.789,0,0,1,.135.7,1.82,1.82,0,0,1-.135.709,1.625,1.625,0,0,1-.381.557,1.7,1.7,0,0,1-.6.363,2.267,2.267,0,0,1-.785.129,2.267,2.267,0,0,1-.785-.129,1.7,1.7,0,0,1-.6-.363,1.625,1.625,0,0,1-.381-.557A1.82,1.82,0,0,1,22.02-15.961Zm10.441.164v3.117h2.168V-10.2H32.461v6.328a2.2,2.2,0,0,0,.082.656.889.889,0,0,0,.246.4.876.876,0,0,0,.4.2,2.681,2.681,0,0,0,.568.053q.3,0,.557-.023t.439-.059V-.07a7.78,7.78,0,0,1-.92.217,6.551,6.551,0,0,1-1.131.088,5.1,5.1,0,0,1-1.5-.205,2.876,2.876,0,0,1-1.143-.65,2.913,2.913,0,0,1-.732-1.16A5.1,5.1,0,0,1,29.074-3.5V-10.2H27.223V-12.68h1.852V-15.8Zm8.789,11,2.344-7.887h3.633L42.152,1.9A10.95,10.95,0,0,1,41.7,2.941a4.122,4.122,0,0,1-.744,1.049A3.847,3.847,0,0,1,39.8,4.8a4.009,4.009,0,0,1-1.7.322q-.234,0-.422-.018t-.363-.041A3.371,3.371,0,0,1,36.967,5q-.17-.041-.369-.1V2.332q.129,0,.264.006t.252.006a4.2,4.2,0,0,0,.861-.076,1.782,1.782,0,0,0,.615-.246,1.558,1.558,0,0,0,.434-.428,2.772,2.772,0,0,0,.3-.609l.363-.949L35.25-12.68h3.645Z" transform="translate(215 6010)" fill="#26353c"/><path d="M-57.434-5.684a6.98,6.98,0,0,1-.586,2.391,5.557,5.557,0,0,1-1.359,1.869,6.222,6.222,0,0,1-2.1,1.219A8.387,8.387,0,0,1-64.3.234a7.318,7.318,0,0,1-2.947-.568,6.025,6.025,0,0,1-2.215-1.635,7.427,7.427,0,0,1-1.395-2.584,11.127,11.127,0,0,1-.486-3.4V-9.082a10.822,10.822,0,0,1,.5-3.41,7.534,7.534,0,0,1,1.424-2.59,6.179,6.179,0,0,1,2.232-1.641,7.234,7.234,0,0,1,2.93-.574,8.126,8.126,0,0,1,2.818.451,6.056,6.056,0,0,1,2.08,1.254,5.7,5.7,0,0,1,1.336,1.91,7.992,7.992,0,0,1,.609,2.408h-3.516a5.319,5.319,0,0,0-.264-1.348,2.644,2.644,0,0,0-.592-.984,2.447,2.447,0,0,0-1-.6,4.66,4.66,0,0,0-1.477-.205,2.983,2.983,0,0,0-2.654,1.295,7.293,7.293,0,0,0-.873,4.014v1.148a12.3,12.3,0,0,0,.193,2.32,4.9,4.9,0,0,0,.609,1.664,2.679,2.679,0,0,0,1.078,1,3.519,3.519,0,0,0,1.6.334,4.866,4.866,0,0,0,1.436-.187,2.544,2.544,0,0,0,1.008-.568,2.56,2.56,0,0,0,.627-.955,4.69,4.69,0,0,0,.281-1.336Zm1.559-.773a8,8,0,0,1,.4-2.566,5.875,5.875,0,0,1,1.16-2.045,5.343,5.343,0,0,1,1.881-1.354,6.273,6.273,0,0,1,2.549-.492,6.345,6.345,0,0,1,2.566.492,5.389,5.389,0,0,1,1.893,1.354,5.826,5.826,0,0,1,1.166,2.045,8,8,0,0,1,.4,2.566v.246a7.982,7.982,0,0,1-.4,2.572A5.835,5.835,0,0,1-45.428-1.6,5.351,5.351,0,0,1-47.309-.252a6.328,6.328,0,0,1-2.555.486,6.37,6.37,0,0,1-2.561-.486A5.338,5.338,0,0,1-54.311-1.6a5.835,5.835,0,0,1-1.166-2.039,7.982,7.982,0,0,1-.4-2.572Zm3.387.246a7.165,7.165,0,0,0,.141,1.453A3.577,3.577,0,0,0-51.9-3.58a2.338,2.338,0,0,0,.809.791,2.379,2.379,0,0,0,1.225.293,2.329,2.329,0,0,0,1.2-.293,2.389,2.389,0,0,0,.814-.791,3.5,3.5,0,0,0,.457-1.178,7.165,7.165,0,0,0,.141-1.453v-.246a6.958,6.958,0,0,0-.141-1.424,3.632,3.632,0,0,0-.457-1.184,2.389,2.389,0,0,0-.82-.809,2.349,2.349,0,0,0-1.219-.3,2.293,2.293,0,0,0-1.2.3,2.356,2.356,0,0,0-.809.809,3.716,3.716,0,0,0-.451,1.184,6.958,6.958,0,0,0-.141,1.424ZM-38.2,0h-3.4V-18h3.4Zm6.363,0h-3.4V-18h3.4ZM-21.7,0a3.761,3.761,0,0,1-.34-1.137,4.42,4.42,0,0,1-1.295.973,4.147,4.147,0,0,1-1.9.4,5.054,5.054,0,0,1-1.705-.281,4.223,4.223,0,0,1-1.371-.785,3.61,3.61,0,0,1-.908-1.2,3.546,3.546,0,0,1-.328-1.529,4.061,4.061,0,0,1,.369-1.77,3.456,3.456,0,0,1,1.107-1.312,5.325,5.325,0,0,1,1.834-.82A10.313,10.313,0,0,1-23.7-7.746h1.512v-.727a2.089,2.089,0,0,0-.451-1.406,1.775,1.775,0,0,0-1.424-.527A2.018,2.018,0,0,0-25.4-10a1.393,1.393,0,0,0-.486,1.125h-3.387a3.354,3.354,0,0,1,.381-1.559,3.906,3.906,0,0,1,1.084-1.289,5.446,5.446,0,0,1,1.7-.873,7.211,7.211,0,0,1,2.227-.322,7.069,7.069,0,0,1,2.039.281,4.61,4.61,0,0,1,1.617.838A3.811,3.811,0,0,1-19.166-10.4a4.675,4.675,0,0,1,.381,1.951v5.367q0,.539.035.967t.094.773a4.015,4.015,0,0,0,.152.621,3.672,3.672,0,0,0,.223.521V0Zm-2.8-2.355a2.913,2.913,0,0,0,.8-.105,2.9,2.9,0,0,0,.662-.275,2.355,2.355,0,0,0,.51-.393,2.134,2.134,0,0,0,.346-.457v-2.18h-1.395a4.088,4.088,0,0,0-1.16.146,2.249,2.249,0,0,0-.809.41,1.638,1.638,0,0,0-.469.621,1.967,1.967,0,0,0-.152.779,1.356,1.356,0,0,0,.445,1.043A1.73,1.73,0,0,0-24.5-2.355ZM-4.758-6.223a10.477,10.477,0,0,1-.3,2.613,6.029,6.029,0,0,1-.92,2.039A4.279,4.279,0,0,1-7.523-.24,4.692,4.692,0,0,1-9.691.234a4.088,4.088,0,0,1-1.9-.416,4.209,4.209,0,0,1-1.389-1.166L-13.137,0h-3.047V-18H-12.8v6.457a3.942,3.942,0,0,1,1.318-1.014,4.085,4.085,0,0,1,1.764-.357,4.68,4.68,0,0,1,2.174.48A4.37,4.37,0,0,1-5.988-11.1a5.962,5.962,0,0,1,.926,2.039,10.375,10.375,0,0,1,.3,2.59Zm-3.387-.246A9.207,9.207,0,0,0-8.25-7.893,3.6,3.6,0,0,0-8.631-9.07a2.119,2.119,0,0,0-.744-.8,2.221,2.221,0,0,0-1.2-.293,2.544,2.544,0,0,0-1.395.346,2.254,2.254,0,0,0-.832.979v5a2.293,2.293,0,0,0,.832.984,2.558,2.558,0,0,0,1.418.352,2.237,2.237,0,0,0,1.178-.281,2.067,2.067,0,0,0,.738-.773A3.482,3.482,0,0,0-8.25-4.729a9.851,9.851,0,0,0,.105-1.494Zm4.945.012a8,8,0,0,1,.4-2.566,5.875,5.875,0,0,1,1.16-2.045A5.343,5.343,0,0,1,.24-12.422a6.273,6.273,0,0,1,2.549-.492,6.345,6.345,0,0,1,2.566.492,5.389,5.389,0,0,1,1.893,1.354A5.826,5.826,0,0,1,8.414-9.023a8,8,0,0,1,.4,2.566v.246a7.982,7.982,0,0,1-.4,2.572A5.835,5.835,0,0,1,7.248-1.6,5.351,5.351,0,0,1,5.367-.252,6.328,6.328,0,0,1,2.813.234,6.37,6.37,0,0,1,.252-.252,5.338,5.338,0,0,1-1.635-1.6,5.835,5.835,0,0,1-2.8-3.639a7.982,7.982,0,0,1-.4-2.572Zm3.387.246A7.165,7.165,0,0,0,.328-4.758,3.577,3.577,0,0,0,.779-3.58a2.338,2.338,0,0,0,.809.791A2.379,2.379,0,0,0,2.813-2.5a2.329,2.329,0,0,0,1.2-.293,2.389,2.389,0,0,0,.814-.791,3.5,3.5,0,0,0,.457-1.178,7.165,7.165,0,0,0,.141-1.453v-.246a6.958,6.958,0,0,0-.141-1.424,3.632,3.632,0,0,0-.457-1.184,2.389,2.389,0,0,0-.82-.809,2.349,2.349,0,0,0-1.219-.3,2.293,2.293,0,0,0-1.2.3,2.356,2.356,0,0,0-.809.809A3.716,3.716,0,0,0,.328-7.881,6.958,6.958,0,0,0,.188-6.457ZM18.023-9.5q-.258-.035-.6-.064T16.8-9.6a3.371,3.371,0,0,0-1.611.334,2.057,2.057,0,0,0-.908.967V0H10.9V-12.68h3.2l.094,1.512a3.8,3.8,0,0,1,1.184-1.283,2.915,2.915,0,0,1,1.641-.463,3.673,3.673,0,0,1,.568.047,3.5,3.5,0,0,1,.486.105ZM26.648,0a3.761,3.761,0,0,1-.34-1.137,4.42,4.42,0,0,1-1.295.973,4.147,4.147,0,0,1-1.9.4A5.054,5.054,0,0,1,21.4-.047a4.223,4.223,0,0,1-1.371-.785,3.61,3.61,0,0,1-.908-1.2A3.546,3.546,0,0,1,18.8-3.562a4.061,4.061,0,0,1,.369-1.77,3.456,3.456,0,0,1,1.107-1.312,5.325,5.325,0,0,1,1.834-.82,10.313,10.313,0,0,1,2.549-.281h1.512v-.727a2.089,2.089,0,0,0-.451-1.406,1.775,1.775,0,0,0-1.424-.527,2.018,2.018,0,0,0-1.342.41,1.393,1.393,0,0,0-.486,1.125H19.078a3.354,3.354,0,0,1,.381-1.559,3.906,3.906,0,0,1,1.084-1.289,5.446,5.446,0,0,1,1.7-.873,7.211,7.211,0,0,1,2.227-.322,7.069,7.069,0,0,1,2.039.281,4.61,4.61,0,0,1,1.617.838A3.811,3.811,0,0,1,29.186-10.4a4.675,4.675,0,0,1,.381,1.951v5.367q0,.539.035.967t.094.773a4.015,4.015,0,0,0,.152.621A3.672,3.672,0,0,0,30.07-.2V0Zm-2.8-2.355a2.913,2.913,0,0,0,.8-.105,2.9,2.9,0,0,0,.662-.275,2.355,2.355,0,0,0,.51-.393,2.134,2.134,0,0,0,.346-.457v-2.18H24.773a4.088,4.088,0,0,0-1.16.146,2.249,2.249,0,0,0-.809.41,1.638,1.638,0,0,0-.469.621,1.967,1.967,0,0,0-.152.779,1.356,1.356,0,0,0,.445,1.043A1.73,1.73,0,0,0,23.848-2.355ZM36.223-15.8v3.117h2.168V-10.2H36.223v6.328a2.2,2.2,0,0,0,.082.656.889.889,0,0,0,.246.4.876.876,0,0,0,.4.2,2.681,2.681,0,0,0,.568.053q.3,0,.557-.023t.439-.059V-.07a7.78,7.78,0,0,1-.92.217,6.551,6.551,0,0,1-1.131.088,5.1,5.1,0,0,1-1.5-.205,2.876,2.876,0,0,1-1.143-.65,2.913,2.913,0,0,1-.732-1.16A5.1,5.1,0,0,1,32.836-3.5V-10.2H30.984V-12.68h1.852V-15.8ZM43.852,0h-3.4V-12.68h3.4Zm-3.6-15.961a1.668,1.668,0,0,1,.51-1.254,1.915,1.915,0,0,1,1.389-.492,2.267,2.267,0,0,1,.785.129,1.7,1.7,0,0,1,.6.363,1.625,1.625,0,0,1,.381.557,1.789,1.789,0,0,1,.135.7,1.82,1.82,0,0,1-.135.709,1.625,1.625,0,0,1-.381.557,1.7,1.7,0,0,1-.6.363,2.267,2.267,0,0,1-.785.129,2.267,2.267,0,0,1-.785-.129,1.7,1.7,0,0,1-.6-.363,1.625,1.625,0,0,1-.381-.557A1.82,1.82,0,0,1,40.254-15.961Zm5.859,9.5a8,8,0,0,1,.4-2.566,5.875,5.875,0,0,1,1.16-2.045,5.343,5.343,0,0,1,1.881-1.354,6.273,6.273,0,0,1,2.549-.492,6.345,6.345,0,0,1,2.566.492,5.389,5.389,0,0,1,1.893,1.354,5.826,5.826,0,0,1,1.166,2.045,8,8,0,0,1,.4,2.566v.246a7.982,7.982,0,0,1-.4,2.572A5.835,5.835,0,0,1,56.561-1.6,5.351,5.351,0,0,1,54.68-.252a6.328,6.328,0,0,1-2.555.486,6.37,6.37,0,0,1-2.561-.486A5.338,5.338,0,0,1,47.678-1.6a5.835,5.835,0,0,1-1.166-2.039,7.982,7.982,0,0,1-.4-2.572Zm3.387.246a7.165,7.165,0,0,0,.141,1.453,3.577,3.577,0,0,0,.451,1.178,2.338,2.338,0,0,0,.809.791,2.379,2.379,0,0,0,1.225.293,2.329,2.329,0,0,0,1.2-.293,2.389,2.389,0,0,0,.814-.791A3.5,3.5,0,0,0,54.6-4.758a7.165,7.165,0,0,0,.141-1.453v-.246A6.958,6.958,0,0,0,54.6-7.881a3.632,3.632,0,0,0-.457-1.184,2.389,2.389,0,0,0-.82-.809,2.349,2.349,0,0,0-1.219-.3,2.293,2.293,0,0,0-1.2.3,2.356,2.356,0,0,0-.809.809,3.716,3.716,0,0,0-.451,1.184A6.958,6.958,0,0,0,49.5-6.457ZM63.328-12.68l.105,1.465a4.448,4.448,0,0,1,1.582-1.26,4.749,4.749,0,0,1,2.063-.439,5.056,5.056,0,0,1,1.641.252,3.014,3.014,0,0,1,1.266.826,3.88,3.88,0,0,1,.814,1.5,7.763,7.763,0,0,1,.287,2.273V0H67.7V-8.086a3.192,3.192,0,0,0-.135-1.008,1.472,1.472,0,0,0-.393-.633,1.493,1.493,0,0,0-.633-.334,3.393,3.393,0,0,0-.867-.1,2.4,2.4,0,0,0-1.283.328,2.512,2.512,0,0,0-.861.891V0H60.141V-12.68Z" transform="translate(385 6008)" fill="#26353c"/><path d="M-52.441-6.9h-4.008V0h-2.262V-17.062h5.648a6.686,6.686,0,0,1,4.436,1.313,4.722,4.722,0,0,1,1.553,3.82,4.593,4.593,0,0,1-.861,2.777,5.142,5.142,0,0,1-2.4,1.77l4.008,7.242V0h-2.414Zm-4.008-1.84h3.457a4.63,4.63,0,0,0,1.6-.252,3.327,3.327,0,0,0,1.143-.68,2.739,2.739,0,0,0,.686-1.008,3.374,3.374,0,0,0,.229-1.248,3.946,3.946,0,0,0-.217-1.342,2.638,2.638,0,0,0-.674-1.037,3.065,3.065,0,0,0-1.16-.668,5.322,5.322,0,0,0-1.676-.234h-3.387ZM-41.906,0h-2.168V-12.68h2.168ZM-44.25-16.043a1.294,1.294,0,0,1,.322-.891,1.21,1.21,0,0,1,.955-.363,1.229,1.229,0,0,1,.961.363,1.28,1.28,0,0,1,.328.891,1.238,1.238,0,0,1-.328.879,1.251,1.251,0,0,1-.961.352,1.232,1.232,0,0,1-.955-.352A1.251,1.251,0,0,1-44.25-16.043Zm13.2,12.68a2.045,2.045,0,0,0-.105-.662,1.4,1.4,0,0,0-.416-.586,3.108,3.108,0,0,0-.885-.51,9.142,9.142,0,0,0-1.512-.434,14.313,14.313,0,0,1-1.9-.527,5.807,5.807,0,0,1-1.436-.732,3.018,3.018,0,0,1-.908-1.014A2.843,2.843,0,0,1-38.531-9.2a3.165,3.165,0,0,1,.334-1.424,3.645,3.645,0,0,1,.943-1.184,4.621,4.621,0,0,1,1.477-.809,5.908,5.908,0,0,1,1.934-.3,6.192,6.192,0,0,1,2.033.311,4.634,4.634,0,0,1,1.523.85,3.635,3.635,0,0,1,.955,1.26A3.675,3.675,0,0,1-29-8.953h-2.18a1.9,1.9,0,0,0-.176-.779,2.124,2.124,0,0,0-.516-.7,2.66,2.66,0,0,0-.832-.5,3.094,3.094,0,0,0-1.137-.193A3.678,3.678,0,0,0-35-10.975a2.276,2.276,0,0,0-.779.422,1.621,1.621,0,0,0-.445.6,1.751,1.751,0,0,0-.141.686,1.631,1.631,0,0,0,.117.633,1.2,1.2,0,0,0,.445.51,3.639,3.639,0,0,0,.9.422,14.243,14.243,0,0,0,1.471.393,14.22,14.22,0,0,1,2.016.609A5.5,5.5,0,0,1-30-5.912a2.922,2.922,0,0,1,.838,1.037,3.164,3.164,0,0,1,.275,1.359,3.358,3.358,0,0,1-.346,1.523,3.379,3.379,0,0,1-.99,1.184,4.86,4.86,0,0,1-1.547.768,6.847,6.847,0,0,1-2,.275,6.516,6.516,0,0,1-2.232-.352,5,5,0,0,1-1.623-.932,3.949,3.949,0,0,1-1-1.324,3.644,3.644,0,0,1-.34-1.529H-36.8a2.275,2.275,0,0,0,.322,1.119,2.389,2.389,0,0,0,.721.732,2.918,2.918,0,0,0,.949.4,4.64,4.64,0,0,0,1.031.117A4.379,4.379,0,0,0-32.6-1.676a2.71,2.71,0,0,0,.85-.387,1.665,1.665,0,0,0,.521-.58A1.524,1.524,0,0,0-31.055-3.363Zm8.531-2.508-1.359,1.418V0h-2.168V-18h2.168V-7.113l1.16-1.395,3.949-4.172h2.637l-4.934,5.3L-15.562,0h-2.543ZM3.7-15.211H-1.781V0H-4.02V-15.211H-9.492v-1.852H3.7ZM12.4,0a2.348,2.348,0,0,1-.187-.592q-.07-.357-.117-.744a5.774,5.774,0,0,1-.686.6,4.911,4.911,0,0,1-.832.5A4.737,4.737,0,0,1,9.6.111,4.887,4.887,0,0,1,8.484.234,5.047,5.047,0,0,1,6.721-.059a4.108,4.108,0,0,1-1.348-.8,3.511,3.511,0,0,1-.861-1.189,3.58,3.58,0,0,1-.3-1.471,3.9,3.9,0,0,1,.4-1.8A3.588,3.588,0,0,1,5.748-6.621a5.388,5.388,0,0,1,1.8-.8A9.52,9.52,0,0,1,9.9-7.687h2.156v-1a2.435,2.435,0,0,0-.68-1.811,2.732,2.732,0,0,0-2-.674A3.581,3.581,0,0,0,8.262-11a2.837,2.837,0,0,0-.861.439,2.049,2.049,0,0,0-.557.639,1.562,1.562,0,0,0-.2.762H4.465a2.83,2.83,0,0,1,.357-1.348,3.954,3.954,0,0,1,1.014-1.2,5.364,5.364,0,0,1,1.588-.867,6.131,6.131,0,0,1,2.08-.334,6.562,6.562,0,0,1,1.9.264,4.064,4.064,0,0,1,1.494.8,3.683,3.683,0,0,1,.973,1.33,4.583,4.583,0,0,1,.352,1.863v5.895a8.734,8.734,0,0,0,.111,1.354,5.09,5.09,0,0,0,.334,1.225V0ZM8.8-1.652a3.613,3.613,0,0,0,1.1-.164,4.113,4.113,0,0,0,.938-.428,3.49,3.49,0,0,0,.732-.6,2.955,2.955,0,0,0,.486-.7v-2.6h-1.8a5.819,5.819,0,0,0-2.871.58A1.894,1.894,0,0,0,6.375-3.82a2.375,2.375,0,0,0,.152.855,1.793,1.793,0,0,0,.463.686,2.3,2.3,0,0,0,.762.457A2.968,2.968,0,0,0,8.8-1.652ZM21.164-5.871,19.8-4.453V0H17.637V-18H19.8V-7.113l1.16-1.395,3.949-4.172h2.637l-4.934,5.3L28.125,0H25.582ZM32.145,0H29.977V-12.68h2.168ZM29.8-16.043a1.294,1.294,0,0,1,.322-.891,1.21,1.21,0,0,1,.955-.363,1.229,1.229,0,0,1,.961.363,1.28,1.28,0,0,1,.328.891,1.238,1.238,0,0,1-.328.879,1.251,1.251,0,0,1-.961.352,1.232,1.232,0,0,1-.955-.352A1.251,1.251,0,0,1,29.8-16.043Zm7.863,3.363.07,1.594a4.9,4.9,0,0,1,1.641-1.342,4.707,4.707,0,0,1,2.156-.486,5.242,5.242,0,0,1,1.676.252,3.082,3.082,0,0,1,1.277.809,3.743,3.743,0,0,1,.814,1.43,6.82,6.82,0,0,1,.287,2.115V0H43.418V-8.332a4.231,4.231,0,0,0-.164-1.26,2.078,2.078,0,0,0-.486-.85,1.917,1.917,0,0,0-.8-.48,3.587,3.587,0,0,0-1.1-.152,3.129,3.129,0,0,0-1.852.563,3.82,3.82,0,0,0-1.242,1.477V0H35.613V-12.68ZM48.34-6.445a9.452,9.452,0,0,1,.346-2.643,6.133,6.133,0,0,1,1-2.039,4.561,4.561,0,0,1,1.576-1.318,4.552,4.552,0,0,1,2.086-.469,4.855,4.855,0,0,1,2.1.422,4.249,4.249,0,0,1,1.523,1.219l.105-1.406h1.98V-.27a5.957,5.957,0,0,1-.393,2.232,4.577,4.577,0,0,1-1.107,1.652,4.794,4.794,0,0,1-1.7,1.025,6.443,6.443,0,0,1-2.18.352,6.675,6.675,0,0,1-1.131-.111,6.8,6.8,0,0,1-1.289-.363A5.783,5.783,0,0,1,50,3.844,4.047,4.047,0,0,1,48.984,2.8l1.125-1.3a5.083,5.083,0,0,0,.82.82,4.449,4.449,0,0,0,.85.527,3.828,3.828,0,0,0,.867.287,4.443,4.443,0,0,0,.873.088A4.175,4.175,0,0,0,54.9,3.006a2.8,2.8,0,0,0,1.061-.65,2.885,2.885,0,0,0,.674-1.061,4.157,4.157,0,0,0,.234-1.459v-1.1A4.266,4.266,0,0,1,55.365-.152,5.013,5.013,0,0,1,53.32.234a4.375,4.375,0,0,1-2.057-.48,4.649,4.649,0,0,1-1.57-1.342,6.374,6.374,0,0,1-1-2.039A8.961,8.961,0,0,1,48.34-6.2Zm2.18.246a7.932,7.932,0,0,0,.193,1.787,4.509,4.509,0,0,0,.6,1.459,3.012,3.012,0,0,0,1.037.984,2.987,2.987,0,0,0,1.512.363A3.562,3.562,0,0,0,54.9-1.746a3.13,3.13,0,0,0,.832-.387,3,3,0,0,0,.65-.586,4.144,4.144,0,0,0,.492-.75V-9.258a4.348,4.348,0,0,0-.492-.721,3.076,3.076,0,0,0-.65-.58,3.017,3.017,0,0,0-.826-.381,3.6,3.6,0,0,0-1.02-.135,2.974,2.974,0,0,0-1.523.369,3.08,3.08,0,0,0-1.043,1,4.568,4.568,0,0,0-.6,1.471,7.932,7.932,0,0,0-.193,1.787Z" transform="translate(555 6011)" fill="#26353c"/><g transform="translate(-255.5 4379.5)"><g transform="translate(2189.5 974.5) rotate(90)"><path d="M22,0,44,38H0Z" transform="translate(407 1549) rotate(180)" fill="#41b4e8"/><path d="M22,0,44,38H0Z" transform="translate(363 1549)" fill="#41b4e8"/></g></g></g></svg>