<svg xmlns="http://www.w3.org/2000/svg" width="819" height="303" viewBox="0 0 819 303"><defs><style>.a,.e{fill:#fff;}.b,.f{fill:#badff0;}.c{fill:#cb2f2f;}.d,.g{fill:#eca249;}.e{font-size:64px;font-family:Roboto-Black, Roboto;font-weight:800;}.f,.g{font-size:24px;font-family:Roboto-Medium, Roboto;font-weight:500;}</style></defs><g transform="translate(-139 -5963)"><g transform="translate(-612 -667)"><circle class="a" cx="22.5" cy="22.5" r="22.5" transform="translate(771 6649)"/><path class="b" d="M42.5,0,85,37H0Z" transform="translate(836 6667) rotate(180)"/><path class="b" d="M4.27,19a22.5,22.5,0,0,1,44.459,0Z" transform="translate(767 6648)"/><path class="b" d="M42,0h0A42,42,0,0,1,84,42V53a0,0,0,0,1,0,0H0a0,0,0,0,1,0,0V42A42,42,0,0,1,42,0Z" transform="translate(751 6703)"/><rect class="c" width="7" height="37" transform="translate(829 6630)"/></g><g transform="translate(-805 -596)"><circle class="a" cx="16" cy="16" r="16" transform="translate(1028 6771)"/><path class="d" d="M42,0h0A42,42,0,0,1,84,42V53a0,0,0,0,1,0,0H0a0,0,0,0,1,0,0V42A42,42,0,0,1,42,0Z" transform="translate(944 6794)"/><path class="b" d="M30,0h0A30,30,0,0,1,60,30v8a0,0,0,0,1,0,0H0a0,0,0,0,1,0,0V30A30,30,0,0,1,30,0Z" transform="translate(1014 6809)"/><path class="b" d="M4.123,19a16,16,0,0,1,28.369-8A18.976,18.976,0,0,1,17,19Z" transform="translate(1024 6766)"/><circle class="a" cx="22" cy="22" r="22" transform="translate(965 6740)"/><path class="d" d="M0,19.249a22,22,0,0,1,40.483-8.92,19.982,19.982,0,0,1-16.653,8.92Z" transform="translate(965.17 6740)"/></g><text class="e" transform="translate(836 6086)"><tspan x="0" y="0">51%</tspan></text><text class="e" transform="translate(673 6250)"><tspan x="0" y="0">33%</tspan></text><text class="f" transform="translate(836 6023)"><tspan x="0" y="0">Students</tspan></text><text class="g" transform="translate(673 6185)"><tspan x="0" y="0">Parents</tspan></text><rect class="b" width="510" height="88" transform="translate(306 6001)"/><rect class="d" width="330" height="88" transform="translate(306 6163)"/></g></svg>