<svg xmlns="http://www.w3.org/2000/svg" xmlns:xlink="http://www.w3.org/1999/xlink" width="111.012" height="125.494" viewBox="0 0 111.012 125.494"><defs><style>.a{fill:#e05951;}.b{fill:#eca249;}.c{fill:#fff;}.d{fill:#324751;}.e{fill:none;stroke:#324751;stroke-miterlimit:10;stroke-width:4px;}.f{filter:url(#a);}</style><filter id="a" x="0" y="0" width="111.012" height="125.494" filterUnits="userSpaceOnUse"><feOffset dy="3" input="SourceAlpha"/><feGaussianBlur stdDeviation="3" result="b"/><feFlood flood-opacity="0.161"/><feComposite operator="in" in2="b"/><feComposite in="SourceGraphic"/></filter></defs><g transform="translate(9 6)"><g class="f" transform="matrix(1, 0, 0, 1, -9, -6)"><path class="a" d="M195.962,328.655v36.958a8.918,8.918,0,0,1-8.914,8.914H111.864a8.917,8.917,0,0,1-8.914-8.914V328.655a8.879,8.879,0,0,1,2.328-6,25.033,25.033,0,0,0,4.788-26.08l-3.585-9.057a8.924,8.924,0,0,1,5.637-11.793l14.695-4.578,4.148-1.291c.143-.044.276-.088.419-.121a62.045,62.045,0,0,1,36.164-.011c.143.044.276.088.419.132l4.148,1.291,14.684,4.578a8.916,8.916,0,0,1,5.637,11.793l-3.585,9.068a25.026,25.026,0,0,0,4.788,26.058v.011A8.879,8.879,0,0,1,195.962,328.655Z" transform="translate(-93.95 -261.03)"/></g><rect class="b" width="93.012" height="16.736" transform="translate(0 66.79)"/><path class="c" d="M169.878,271.145l-22.649,38.017L124.58,271.145l4.148-1.291c.143-.044.276-.088.419-.121a62.045,62.045,0,0,1,36.164-.011c.143.044.276.088.419.132Z" transform="translate(-100.717 -267.034)"/><path class="d" d="M164.884,269.721,146.8,300.082l-18.082-30.35A62.045,62.045,0,0,1,164.884,269.721Z" transform="translate(-100.29 -268.034)"/><line class="e" y2="85.486" transform="translate(46.512 22.007)"/><line class="e" x2="14.731" transform="translate(39.141 75.158)"/></g></svg>