<svg xmlns="http://www.w3.org/2000/svg" width="815.844" height="288" viewBox="0 0 815.844 288"><g transform="translate(-139 -5963)"><g transform="translate(-612 -667)"><circle cx="22.5" cy="22.5" r="22.5" transform="translate(771 6649)" fill="#fff"/><path d="M42.5,0,85,37H0Z" transform="translate(836 6667) rotate(180)" fill="#badff0"/><path d="M4.27,19a22.5,22.5,0,0,1,44.459,0Z" transform="translate(767 6648)" fill="#badff0"/><path d="M42,0h0A42,42,0,0,1,84,42V53a0,0,0,0,1,0,0H0a0,0,0,0,1,0,0V42A42,42,0,0,1,42,0Z" transform="translate(751 6703)" fill="#badff0"/><rect width="7" height="37" transform="translate(829 6630)" fill="#cb2f2f"/></g><g transform="translate(-805 -596)"><circle cx="16" cy="16" r="16" transform="translate(1028 6771)" fill="#fff"/><path d="M42,0h0A42,42,0,0,1,84,42V53a0,0,0,0,1,0,0H0a0,0,0,0,1,0,0V42A42,42,0,0,1,42,0Z" transform="translate(944 6794)" fill="#eca249"/><path d="M30,0h0A30,30,0,0,1,60,30v8a0,0,0,0,1,0,0H0a0,0,0,0,1,0,0V30A30,30,0,0,1,30,0Z" transform="translate(1014 6809)" fill="#badff0"/><path d="M4.123,19a16,16,0,0,1,28.369-8A18.976,18.976,0,0,1,17,19Z" transform="translate(1024 6766)" fill="#badff0"/><circle cx="22" cy="22" r="22" transform="translate(965 6740)" fill="#fff"/><path d="M0,19.249a22,22,0,0,1,40.483-8.92,19.982,19.982,0,0,1-16.653,8.92Z" transform="translate(965.17 6740)" fill="#eca249"/></g><path d="M3.406-22.25,6.188-45.5H32.781v8.188H14.75l-1.031,9.031a9.742,9.742,0,0,1,1.031-.5,14.927,14.927,0,0,1,1.531-.547,15.489,15.489,0,0,1,1.875-.437,12.348,12.348,0,0,1,2.094-.172,16.541,16.541,0,0,1,6,1.016,11.454,11.454,0,0,1,4.406,2.969,13.09,13.09,0,0,1,2.719,4.8,20.735,20.735,0,0,1,.938,6.5,17.246,17.246,0,0,1-.953,5.688,14.086,14.086,0,0,1-2.891,4.891A13.967,13.967,0,0,1,25.563-.656,17.656,17.656,0,0,1,18.531.625a19.177,19.177,0,0,1-5.953-.937,16.482,16.482,0,0,1-5.141-2.7A13.484,13.484,0,0,1,3.844-7.281a11.508,11.508,0,0,1-1.312-5.656H13.094a5.993,5.993,0,0,0,1.594,3.969A5.053,5.053,0,0,0,18.469-7.5a4.931,4.931,0,0,0,2.594-.625,4.6,4.6,0,0,0,1.641-1.7,7.539,7.539,0,0,0,.844-2.516,18.83,18.83,0,0,0,.234-3.031,11.283,11.283,0,0,0-.375-3.031,6.051,6.051,0,0,0-1.156-2.281,5.157,5.157,0,0,0-2.016-1.453,7.642,7.642,0,0,0-2.953-.516,8.474,8.474,0,0,0-2.016.219,7.2,7.2,0,0,0-1.562.563,5.31,5.31,0,0,0-1.141.766,6.292,6.292,0,0,0-.781.828ZM63.188,0H52.625V-33.625L42.25-30.594v-8L62.219-45.5h.969Zm13.75-36.75a10.255,10.255,0,0,1,.641-3.641,8.412,8.412,0,0,1,1.906-2.984,9.036,9.036,0,0,1,3.172-2.031,11.98,11.98,0,0,1,4.406-.75,12.169,12.169,0,0,1,4.469.75,8.874,8.874,0,0,1,3.156,2.031,8.335,8.335,0,0,1,1.875,2.984,10.485,10.485,0,0,1,.625,3.641v2.406a10.394,10.394,0,0,1-.625,3.609,8.184,8.184,0,0,1-1.875,2.969,9.014,9.014,0,0,1-3.141,2.016,11.949,11.949,0,0,1-4.422.75,12.074,12.074,0,0,1-4.437-.75A9.324,9.324,0,0,1,79.5-27.766a8.161,8.161,0,0,1-1.922-2.969,10.166,10.166,0,0,1-.641-3.609Zm6.781,2.406a4.624,4.624,0,0,0,.2,1.375,3.435,3.435,0,0,0,.625,1.172,2.955,2.955,0,0,0,1.063.813,3.577,3.577,0,0,0,1.516.3,3.391,3.391,0,0,0,1.469-.3,2.705,2.705,0,0,0,1.016-.812,3.767,3.767,0,0,0,.594-1.172,4.624,4.624,0,0,0,.2-1.375V-36.75a4.888,4.888,0,0,0-.2-1.422,3.564,3.564,0,0,0-.609-1.187,2.813,2.813,0,0,0-1.047-.812,3.5,3.5,0,0,0-1.484-.3,3.391,3.391,0,0,0-1.469.3,2.99,2.99,0,0,0-1.047.813,3.413,3.413,0,0,0-.625,1.188,4.888,4.888,0,0,0-.2,1.422ZM98.563-11.156a10.294,10.294,0,0,1,.641-3.625,8.232,8.232,0,0,1,1.906-2.984,9.154,9.154,0,0,1,3.172-2.016,11.98,11.98,0,0,1,4.406-.75,12.294,12.294,0,0,1,4.484.75,8.963,8.963,0,0,1,3.172,2.016,8.159,8.159,0,0,1,1.875,2.984,10.524,10.524,0,0,1,.625,3.625V-8.75a10.485,10.485,0,0,1-.625,3.641,8.184,8.184,0,0,1-1.875,2.969A9.014,9.014,0,0,1,113.2-.125a12.044,12.044,0,0,1-4.453.75,12.074,12.074,0,0,1-4.437-.75,9.324,9.324,0,0,1-3.187-2.016A8.161,8.161,0,0,1,99.2-5.109a10.255,10.255,0,0,1-.641-3.641Zm6.75,2.406a3.75,3.75,0,0,0,.266,1.391,3.855,3.855,0,0,0,.734,1.188,3.487,3.487,0,0,0,1.094.813,3.092,3.092,0,0,0,1.344.3,4.209,4.209,0,0,0,1.719-.3,2.416,2.416,0,0,0,1.016-.812,2.846,2.846,0,0,0,.469-1.187,8.644,8.644,0,0,0,.109-1.391v-2.406a4.779,4.779,0,0,0-.2-1.391,3.413,3.413,0,0,0-.625-1.187,2.955,2.955,0,0,0-1.062-.812,3.5,3.5,0,0,0-1.484-.3,3.5,3.5,0,0,0-1.484.3,2.955,2.955,0,0,0-1.062.813,3.413,3.413,0,0,0-.625,1.188,4.779,4.779,0,0,0-.2,1.391ZM89.125-3.406,84.219-5.875l22.219-35.562,4.906,2.469Z" transform="translate(836 6086)" fill="#fff"/><path d="M12.406-27.156h5.125A5.591,5.591,0,0,0,21.875-28.7a6.059,6.059,0,0,0,1.406-4.234,5.781,5.781,0,0,0-.328-1.953,4.63,4.63,0,0,0-.984-1.625A4.563,4.563,0,0,0,20.3-37.625a6.417,6.417,0,0,0-2.391-.406,6.131,6.131,0,0,0-1.891.3,5.649,5.649,0,0,0-1.656.844,4.383,4.383,0,0,0-1.187,1.328,3.485,3.485,0,0,0-.453,1.781H2.188a10.707,10.707,0,0,1,1.25-5.2,11.965,11.965,0,0,1,3.375-3.891A15.713,15.713,0,0,1,11.7-45.312a19.864,19.864,0,0,1,5.828-.844,24.427,24.427,0,0,1,6.625.844A15.05,15.05,0,0,1,29.3-42.828a11.344,11.344,0,0,1,3.328,4.063,12.591,12.591,0,0,1,1.188,5.609,9.066,9.066,0,0,1-.5,3,10.612,10.612,0,0,1-1.406,2.7,11.26,11.26,0,0,1-2.219,2.3,15.067,15.067,0,0,1-2.906,1.781,12.233,12.233,0,0,1,5.688,3.984,10.493,10.493,0,0,1,2.063,6.609,12.17,12.17,0,0,1-1.3,5.688,12.338,12.338,0,0,1-3.578,4.219A16.334,16.334,0,0,1,24.266-.266a24.372,24.372,0,0,1-6.734.891A21.7,21.7,0,0,1,13.7.281,20.075,20.075,0,0,1,10-.75,16.029,16.029,0,0,1,6.656-2.516a11.929,11.929,0,0,1-2.7-2.562A12.254,12.254,0,0,1,2.141-8.437a12.448,12.448,0,0,1-.672-4.219H12.063a4.478,4.478,0,0,0,.469,2.031A5.378,5.378,0,0,0,13.8-8.984a5.808,5.808,0,0,0,1.859,1.094,6.468,6.468,0,0,0,2.25.391,7.394,7.394,0,0,0,2.578-.422,5.476,5.476,0,0,0,1.922-1.172,5.018,5.018,0,0,0,1.188-1.75A5.674,5.674,0,0,0,24-13q0-3.438-1.719-4.875a7.185,7.185,0,0,0-4.75-1.437H12.406Zm37.063,0h5.125A5.591,5.591,0,0,0,58.938-28.7a6.059,6.059,0,0,0,1.406-4.234,5.781,5.781,0,0,0-.328-1.953,4.63,4.63,0,0,0-.984-1.625,4.563,4.563,0,0,0-1.672-1.109,6.417,6.417,0,0,0-2.391-.406,6.131,6.131,0,0,0-1.891.3,5.649,5.649,0,0,0-1.656.844,4.383,4.383,0,0,0-1.187,1.328,3.485,3.485,0,0,0-.453,1.781H39.25a10.707,10.707,0,0,1,1.25-5.2,11.965,11.965,0,0,1,3.375-3.891,15.713,15.713,0,0,1,4.891-2.437,19.864,19.864,0,0,1,5.828-.844,24.427,24.427,0,0,1,6.625.844,15.05,15.05,0,0,1,5.141,2.484,11.344,11.344,0,0,1,3.328,4.063,12.591,12.591,0,0,1,1.188,5.609,9.066,9.066,0,0,1-.5,3,10.612,10.612,0,0,1-1.406,2.7,11.26,11.26,0,0,1-2.219,2.3,15.067,15.067,0,0,1-2.906,1.781,12.233,12.233,0,0,1,5.688,3.984,10.493,10.493,0,0,1,2.063,6.609,12.17,12.17,0,0,1-1.3,5.688,12.338,12.338,0,0,1-3.578,4.219A16.334,16.334,0,0,1,61.328-.266a24.372,24.372,0,0,1-6.734.891A21.7,21.7,0,0,1,50.766.281a20.075,20.075,0,0,1-3.7-1.031,16.029,16.029,0,0,1-3.344-1.766,11.929,11.929,0,0,1-2.7-2.562A12.254,12.254,0,0,1,39.2-8.437a12.448,12.448,0,0,1-.672-4.219H49.125a4.478,4.478,0,0,0,.469,2.031,5.378,5.378,0,0,0,1.266,1.641,5.808,5.808,0,0,0,1.859,1.094,6.468,6.468,0,0,0,2.25.391,7.394,7.394,0,0,0,2.578-.422,5.476,5.476,0,0,0,1.922-1.172,5.018,5.018,0,0,0,1.188-1.75A5.674,5.674,0,0,0,61.063-13q0-3.438-1.719-4.875a7.185,7.185,0,0,0-4.75-1.437H49.469ZM76.938-36.75a10.255,10.255,0,0,1,.641-3.641,8.412,8.412,0,0,1,1.906-2.984,9.036,9.036,0,0,1,3.172-2.031,11.98,11.98,0,0,1,4.406-.75,12.169,12.169,0,0,1,4.469.75,8.874,8.874,0,0,1,3.156,2.031,8.335,8.335,0,0,1,1.875,2.984,10.485,10.485,0,0,1,.625,3.641v2.406a10.394,10.394,0,0,1-.625,3.609,8.184,8.184,0,0,1-1.875,2.969,9.014,9.014,0,0,1-3.141,2.016,11.949,11.949,0,0,1-4.422.75,12.074,12.074,0,0,1-4.437-.75A9.324,9.324,0,0,1,79.5-27.766a8.161,8.161,0,0,1-1.922-2.969,10.166,10.166,0,0,1-.641-3.609Zm6.781,2.406a4.624,4.624,0,0,0,.2,1.375,3.435,3.435,0,0,0,.625,1.172,2.955,2.955,0,0,0,1.063.813,3.577,3.577,0,0,0,1.516.3,3.391,3.391,0,0,0,1.469-.3,2.705,2.705,0,0,0,1.016-.812,3.767,3.767,0,0,0,.594-1.172,4.624,4.624,0,0,0,.2-1.375V-36.75a4.888,4.888,0,0,0-.2-1.422,3.564,3.564,0,0,0-.609-1.187,2.813,2.813,0,0,0-1.047-.812,3.5,3.5,0,0,0-1.484-.3,3.391,3.391,0,0,0-1.469.3,2.99,2.99,0,0,0-1.047.813,3.413,3.413,0,0,0-.625,1.188,4.888,4.888,0,0,0-.2,1.422ZM98.563-11.156a10.294,10.294,0,0,1,.641-3.625,8.232,8.232,0,0,1,1.906-2.984,9.154,9.154,0,0,1,3.172-2.016,11.98,11.98,0,0,1,4.406-.75,12.294,12.294,0,0,1,4.484.75,8.963,8.963,0,0,1,3.172,2.016,8.159,8.159,0,0,1,1.875,2.984,10.524,10.524,0,0,1,.625,3.625V-8.75a10.485,10.485,0,0,1-.625,3.641,8.184,8.184,0,0,1-1.875,2.969A9.014,9.014,0,0,1,113.2-.125a12.044,12.044,0,0,1-4.453.75,12.074,12.074,0,0,1-4.437-.75,9.324,9.324,0,0,1-3.187-2.016A8.161,8.161,0,0,1,99.2-5.109a10.255,10.255,0,0,1-.641-3.641Zm6.75,2.406a3.75,3.75,0,0,0,.266,1.391,3.855,3.855,0,0,0,.734,1.188,3.487,3.487,0,0,0,1.094.813,3.092,3.092,0,0,0,1.344.3,4.209,4.209,0,0,0,1.719-.3,2.416,2.416,0,0,0,1.016-.812,2.846,2.846,0,0,0,.469-1.187,8.644,8.644,0,0,0,.109-1.391v-2.406a4.779,4.779,0,0,0-.2-1.391,3.413,3.413,0,0,0-.625-1.187,2.955,2.955,0,0,0-1.062-.812,3.5,3.5,0,0,0-1.484-.3,3.5,3.5,0,0,0-1.484.3,2.955,2.955,0,0,0-1.062.813,3.413,3.413,0,0,0-.625,1.188,4.779,4.779,0,0,0-.2,1.391ZM89.125-3.406,84.219-5.875l22.219-35.562,4.906,2.469Z" transform="translate(673 6250)" fill="#fff"/><path d="M10.652-4.395a2.6,2.6,0,0,0-.152-.92,1.822,1.822,0,0,0-.557-.744,4.624,4.624,0,0,0-1.113-.65,17.12,17.12,0,0,0-1.822-.65,17.556,17.556,0,0,1-2.25-.832,7.772,7.772,0,0,1-1.775-1.09,4.666,4.666,0,0,1-1.166-1.43,3.944,3.944,0,0,1-.422-1.852,4.139,4.139,0,0,1,.439-1.9,4.5,4.5,0,0,1,1.236-1.5,5.888,5.888,0,0,1,1.91-.984A8.143,8.143,0,0,1,7.441-17.3a7.568,7.568,0,0,1,2.59.416,5.8,5.8,0,0,1,1.939,1.131,4.929,4.929,0,0,1,1.213,1.658,4.867,4.867,0,0,1,.422,2.01H10.652a3.263,3.263,0,0,0-.193-1.143,2.373,2.373,0,0,0-.592-.9,2.723,2.723,0,0,0-1.008-.592,4.415,4.415,0,0,0-1.441-.211,4.669,4.669,0,0,0-1.359.176,2.723,2.723,0,0,0-.955.492,1.942,1.942,0,0,0-.562.75,2.4,2.4,0,0,0-.182.938,1.88,1.88,0,0,0,.9,1.582A9.554,9.554,0,0,0,7.992-9.82a15.856,15.856,0,0,1,2.5.938A7.157,7.157,0,0,1,12.24-7.717a4.214,4.214,0,0,1,1.037,1.465,4.722,4.722,0,0,1,.34,1.834,4.3,4.3,0,0,1-.428,1.939,4.143,4.143,0,0,1-1.219,1.465,5.721,5.721,0,0,1-1.916.926A9.1,9.1,0,0,1,7.547.234,8.974,8.974,0,0,1,5.121-.1,6.86,6.86,0,0,1,2.977-1.107,5.252,5.252,0,0,1,1.447-2.789a4.663,4.663,0,0,1-.58-2.367H3.832a3.1,3.1,0,0,0,.287,1.389,2.592,2.592,0,0,0,.785.949,3.3,3.3,0,0,0,1.178.539,6.027,6.027,0,0,0,1.465.17,3.656,3.656,0,0,0,2.326-.627A2.023,2.023,0,0,0,10.652-4.395Zm8.859-11.367v3.082H21.75v2.109H19.512v7.078a2.185,2.185,0,0,0,.094.7.919.919,0,0,0,.27.416.96.96,0,0,0,.416.2,2.491,2.491,0,0,0,.533.053,3.854,3.854,0,0,0,.568-.041q.275-.041.428-.076v2.2q-.34.094-.791.182a5.758,5.758,0,0,1-1.084.088A4.383,4.383,0,0,1,18.639.047,2.594,2.594,0,0,1,17.6-.562a2.834,2.834,0,0,1-.686-1.1,4.918,4.918,0,0,1-.246-1.664V-10.57H14.578V-12.68h2.086v-3.082ZM31.605-1.242a4.047,4.047,0,0,1-1.477,1.09,5.151,5.151,0,0,1-2.086.387,5.223,5.223,0,0,1-1.705-.264A3.3,3.3,0,0,1,25.02-.861a3.846,3.846,0,0,1-.855-1.465,6.714,6.714,0,0,1-.3-2.15v-8.2h2.848v8.227a3.385,3.385,0,0,0,.164,1.143,1.953,1.953,0,0,0,.439.727,1.523,1.523,0,0,0,.639.387,2.585,2.585,0,0,0,.762.111,3.5,3.5,0,0,0,1.781-.4,2.54,2.54,0,0,0,1.02-1.09V-12.68h2.848V0H31.676Zm5.121-5.191a9.469,9.469,0,0,1,.346-2.637,6.2,6.2,0,0,1,1-2.051,4.536,4.536,0,0,1,1.576-1.324,4.552,4.552,0,0,1,2.086-.469,4.465,4.465,0,0,1,1.857.363,4.1,4.1,0,0,1,1.4,1.043V-18h2.848V0H45.258l-.141-1.312A4.261,4.261,0,0,1,43.67-.17a4.47,4.47,0,0,1-1.963.4,4.357,4.357,0,0,1-2.068-.486,4.68,4.68,0,0,1-1.564-1.342,6.373,6.373,0,0,1-1-2.033,8.918,8.918,0,0,1-.352-2.561Zm2.848.246A7.626,7.626,0,0,0,39.732-4.6a4.106,4.106,0,0,0,.5,1.307,2.591,2.591,0,0,0,.885.885,2.515,2.515,0,0,0,1.313.322,2.7,2.7,0,0,0,1.576-.428,3.062,3.062,0,0,0,.979-1.131V-9.059A2.9,2.9,0,0,0,44-10.172a2.749,2.749,0,0,0-1.547-.41,2.51,2.51,0,0,0-1.318.328,2.625,2.625,0,0,0-.891.891,4.2,4.2,0,0,0-.51,1.318,7.585,7.585,0,0,0-.164,1.611ZM56.391.234a6.525,6.525,0,0,1-2.531-.469,5.573,5.573,0,0,1-1.91-1.289,5.641,5.641,0,0,1-1.207-1.945,6.853,6.853,0,0,1-.422-2.426v-.469a7.826,7.826,0,0,1,.445-2.713,6.194,6.194,0,0,1,1.219-2.062,5.371,5.371,0,0,1,1.822-1.312,5.524,5.524,0,0,1,2.256-.463,5.768,5.768,0,0,1,2.4.463,4.526,4.526,0,0,1,1.688,1.295,5.563,5.563,0,0,1,1,1.98,9.148,9.148,0,0,1,.328,2.52v1.219H53.191A4.554,4.554,0,0,0,53.5-4.078a3.341,3.341,0,0,0,.686,1.072,3.151,3.151,0,0,0,1.025.709,3.328,3.328,0,0,0,1.342.258,3.8,3.8,0,0,0,1.834-.422,4.3,4.3,0,0,0,1.354-1.16l1.535,1.465a5.2,5.2,0,0,1-.756.885,5.14,5.14,0,0,1-1.055.762A6.067,6.067,0,0,1,58.1.029,6.585,6.585,0,0,1,56.391.234Zm-.34-10.863a2.4,2.4,0,0,0-1.893.82,4.252,4.252,0,0,0-.92,2.285h5.426v-.211a5.2,5.2,0,0,0-.182-1.084,2.763,2.763,0,0,0-.451-.926,2.181,2.181,0,0,0-.791-.645A2.668,2.668,0,0,0,56.051-10.629ZM66.328-12.68l.082,1.465a4.645,4.645,0,0,1,1.605-1.254,4.8,4.8,0,0,1,2.086-.445,5.149,5.149,0,0,1,1.658.252,3.06,3.06,0,0,1,1.271.814,3.781,3.781,0,0,1,.814,1.465,7.29,7.29,0,0,1,.287,2.191V0H71.285V-8.215a3.622,3.622,0,0,0-.146-1.107,1.8,1.8,0,0,0-.428-.732,1.613,1.613,0,0,0-.7-.4,3.373,3.373,0,0,0-.955-.123,2.747,2.747,0,0,0-1.529.422,3.067,3.067,0,0,0-1.037,1.137V0H63.645V-12.68ZM80.6-15.762v3.082H82.84v2.109H80.6v7.078a2.185,2.185,0,0,0,.094.7.919.919,0,0,0,.27.416.96.96,0,0,0,.416.2,2.491,2.491,0,0,0,.533.053,3.854,3.854,0,0,0,.568-.041q.275-.041.428-.076v2.2q-.34.094-.791.182a5.758,5.758,0,0,1-1.084.088A4.383,4.383,0,0,1,79.729.047a2.594,2.594,0,0,1-1.043-.609A2.834,2.834,0,0,1,78-1.664a4.918,4.918,0,0,1-.246-1.664V-10.57H75.668V-12.68h2.086v-3.082ZM92.121-3.445a1.6,1.6,0,0,0-.1-.568,1.161,1.161,0,0,0-.393-.492,3.152,3.152,0,0,0-.826-.428,9.605,9.605,0,0,0-1.389-.375,12.34,12.34,0,0,1-1.857-.527A5.725,5.725,0,0,1,86.121-6.6a3.33,3.33,0,0,1-.932-1.061,2.879,2.879,0,0,1-.334-1.406,3.315,3.315,0,0,1,.34-1.471,3.66,3.66,0,0,1,.979-1.225,4.884,4.884,0,0,1,1.547-.838,6.259,6.259,0,0,1,2.033-.311,6.784,6.784,0,0,1,2.127.311,4.845,4.845,0,0,1,1.6.855,3.688,3.688,0,0,1,1,1.283,3.711,3.711,0,0,1,.346,1.594H91.98a1.865,1.865,0,0,0-.141-.709,1.769,1.769,0,0,0-.422-.615,2.042,2.042,0,0,0-.7-.428,2.712,2.712,0,0,0-.967-.158,2.931,2.931,0,0,0-.937.135,2.083,2.083,0,0,0-.662.352,1.383,1.383,0,0,0-.393.5,1.457,1.457,0,0,0-.129.6,1.293,1.293,0,0,0,.117.563,1.142,1.142,0,0,0,.416.445,3.456,3.456,0,0,0,.8.369,11.892,11.892,0,0,0,1.266.334,14.947,14.947,0,0,1,1.975.551,5.581,5.581,0,0,1,1.477.773,3.13,3.13,0,0,1,.92,1.078A3.216,3.216,0,0,1,94.922-3.6a3.319,3.319,0,0,1-.363,1.547A3.565,3.565,0,0,1,93.521-.838,5.031,5.031,0,0,1,91.9-.047a7.41,7.41,0,0,1-2.109.281,6.639,6.639,0,0,1-2.3-.369A5.28,5.28,0,0,1,85.8-1.1a4.029,4.029,0,0,1-1.025-1.354A3.67,3.67,0,0,1,84.434-4H87.2a2.177,2.177,0,0,0,.27.984,1.974,1.974,0,0,0,.6.645,2.506,2.506,0,0,0,.82.357,3.947,3.947,0,0,0,.938.111,2.88,2.88,0,0,0,1.711-.428A1.324,1.324,0,0,0,92.121-3.445Z" transform="translate(836 6023)" fill="#badff0"/><path d="M4.7-6.34V0H1.734V-17.062H8.262a7.974,7.974,0,0,1,2.643.4,5.6,5.6,0,0,1,1.951,1.131A4.815,4.815,0,0,1,14.068-13.8a5.569,5.569,0,0,1,.416,2.168,5.671,5.671,0,0,1-.416,2.227,4.412,4.412,0,0,1-1.213,1.664A5.517,5.517,0,0,1,10.9-6.7a8.8,8.8,0,0,1-2.643.363Zm0-2.379H8.262A4.552,4.552,0,0,0,9.732-8.93a2.676,2.676,0,0,0,1.014-.6,2.294,2.294,0,0,0,.58-.92,3.6,3.6,0,0,0,.182-1.166,3.643,3.643,0,0,0-.182-1.148,2.627,2.627,0,0,0-.58-.979,2.822,2.822,0,0,0-1.014-.68,3.873,3.873,0,0,0-1.471-.252H4.7ZM24.246,0a2.364,2.364,0,0,1-.193-.527q-.076-.3-.135-.656a5.058,5.058,0,0,1-.627.551,4.3,4.3,0,0,1-.762.451,4.536,4.536,0,0,1-.9.3A4.639,4.639,0,0,1,20.59.234a5.117,5.117,0,0,1-1.746-.287,4.1,4.1,0,0,1-1.365-.8,3.693,3.693,0,0,1-.891-1.2,3.506,3.506,0,0,1-.322-1.5,4.034,4.034,0,0,1,.387-1.8,3.491,3.491,0,0,1,1.125-1.312,5.4,5.4,0,0,1,1.811-.8,9.852,9.852,0,0,1,2.443-.275h1.793v-.832a2.221,2.221,0,0,0-.551-1.576,2.183,2.183,0,0,0-1.676-.592,2.918,2.918,0,0,0-.914.135,2.221,2.221,0,0,0-.7.363,1.612,1.612,0,0,0-.445.545,1.5,1.5,0,0,0-.158.68H16.535a3.055,3.055,0,0,1,.369-1.447,3.978,3.978,0,0,1,1.049-1.242,5.358,5.358,0,0,1,1.646-.873,6.7,6.7,0,0,1,2.162-.328,6.718,6.718,0,0,1,1.969.275,4.434,4.434,0,0,1,1.559.82,3.694,3.694,0,0,1,1.02,1.359,4.639,4.639,0,0,1,.363,1.9V-2.93a6.481,6.481,0,0,0,.48,2.73V0ZM21.117-2.051a3.173,3.173,0,0,0,.92-.129,3.313,3.313,0,0,0,.773-.34,2.864,2.864,0,0,0,.6-.486,2.711,2.711,0,0,0,.41-.557V-5.953H22.289A4.2,4.2,0,0,0,19.91-5.4a1.784,1.784,0,0,0-.8,1.559,1.938,1.938,0,0,0,.129.715,1.534,1.534,0,0,0,.387.568,1.824,1.824,0,0,0,.627.375A2.508,2.508,0,0,0,21.117-2.051Zm15.176-8.027q-.281-.047-.568-.07t-.592-.023a3.149,3.149,0,0,0-1.676.4,2.443,2.443,0,0,0-.961,1.1V0H29.648V-12.68h2.719l.07,1.418a3.682,3.682,0,0,1,1.189-1.213,3.105,3.105,0,0,1,1.67-.439,3.36,3.36,0,0,1,.557.053,2.261,2.261,0,0,1,.451.111ZM43.453.234a6.525,6.525,0,0,1-2.531-.469,5.573,5.573,0,0,1-1.91-1.289A5.641,5.641,0,0,1,37.8-3.469a6.853,6.853,0,0,1-.422-2.426v-.469a7.826,7.826,0,0,1,.445-2.713,6.194,6.194,0,0,1,1.219-2.062,5.371,5.371,0,0,1,1.822-1.312,5.524,5.524,0,0,1,2.256-.463,5.768,5.768,0,0,1,2.4.463,4.526,4.526,0,0,1,1.688,1.295,5.563,5.563,0,0,1,1,1.98,9.148,9.148,0,0,1,.328,2.52v1.219H40.254a4.554,4.554,0,0,0,.311,1.359,3.341,3.341,0,0,0,.686,1.072,3.151,3.151,0,0,0,1.025.709,3.328,3.328,0,0,0,1.342.258,3.8,3.8,0,0,0,1.834-.422A4.3,4.3,0,0,0,46.8-3.621L48.34-2.156a5.2,5.2,0,0,1-.756.885,5.14,5.14,0,0,1-1.055.762,6.067,6.067,0,0,1-1.365.539A6.585,6.585,0,0,1,43.453.234Zm-.34-10.863a2.4,2.4,0,0,0-1.893.82,4.252,4.252,0,0,0-.92,2.285h5.426v-.211a5.2,5.2,0,0,0-.182-1.084,2.763,2.763,0,0,0-.451-.926,2.181,2.181,0,0,0-.791-.645A2.668,2.668,0,0,0,43.113-10.629ZM53.391-12.68l.082,1.465a4.645,4.645,0,0,1,1.605-1.254,4.8,4.8,0,0,1,2.086-.445,5.149,5.149,0,0,1,1.658.252,3.06,3.06,0,0,1,1.271.814,3.781,3.781,0,0,1,.814,1.465A7.29,7.29,0,0,1,61.2-8.191V0H58.348V-8.215A3.622,3.622,0,0,0,58.2-9.322a1.8,1.8,0,0,0-.428-.732,1.613,1.613,0,0,0-.7-.4,3.373,3.373,0,0,0-.955-.123,2.747,2.747,0,0,0-1.529.422,3.067,3.067,0,0,0-1.037,1.137V0H50.707V-12.68Zm14.273-3.082v3.082H69.9v2.109H67.664v7.078a2.185,2.185,0,0,0,.094.7.919.919,0,0,0,.27.416.96.96,0,0,0,.416.2,2.491,2.491,0,0,0,.533.053,3.854,3.854,0,0,0,.568-.041q.275-.041.428-.076v2.2q-.34.094-.791.182A5.758,5.758,0,0,1,68.1.234,4.383,4.383,0,0,1,66.791.047a2.594,2.594,0,0,1-1.043-.609,2.834,2.834,0,0,1-.686-1.1,4.918,4.918,0,0,1-.246-1.664V-10.57H62.73V-12.68h2.086v-3.082ZM79.184-3.445a1.6,1.6,0,0,0-.1-.568,1.161,1.161,0,0,0-.393-.492,3.152,3.152,0,0,0-.826-.428,9.605,9.605,0,0,0-1.389-.375,12.34,12.34,0,0,1-1.857-.527A5.725,5.725,0,0,1,73.184-6.6a3.33,3.33,0,0,1-.932-1.061,2.879,2.879,0,0,1-.334-1.406,3.315,3.315,0,0,1,.34-1.471,3.66,3.66,0,0,1,.979-1.225,4.884,4.884,0,0,1,1.547-.838,6.259,6.259,0,0,1,2.033-.311,6.784,6.784,0,0,1,2.127.311,4.845,4.845,0,0,1,1.6.855,3.688,3.688,0,0,1,1,1.283,3.711,3.711,0,0,1,.346,1.594H79.043A1.865,1.865,0,0,0,78.9-9.58a1.769,1.769,0,0,0-.422-.615,2.042,2.042,0,0,0-.7-.428,2.712,2.712,0,0,0-.967-.158,2.931,2.931,0,0,0-.937.135,2.083,2.083,0,0,0-.662.352,1.383,1.383,0,0,0-.393.5,1.457,1.457,0,0,0-.129.6,1.293,1.293,0,0,0,.117.563,1.142,1.142,0,0,0,.416.445,3.456,3.456,0,0,0,.8.369,11.892,11.892,0,0,0,1.266.334,14.947,14.947,0,0,1,1.975.551,5.581,5.581,0,0,1,1.477.773,3.13,3.13,0,0,1,.92,1.078A3.216,3.216,0,0,1,81.984-3.6a3.319,3.319,0,0,1-.363,1.547A3.565,3.565,0,0,1,80.584-.838a5.031,5.031,0,0,1-1.623.791,7.41,7.41,0,0,1-2.109.281,6.639,6.639,0,0,1-2.3-.369A5.28,5.28,0,0,1,72.867-1.1a4.029,4.029,0,0,1-1.025-1.354A3.67,3.67,0,0,1,71.5-4h2.766a2.177,2.177,0,0,0,.27.984,1.974,1.974,0,0,0,.6.645,2.506,2.506,0,0,0,.82.357,3.947,3.947,0,0,0,.938.111A2.88,2.88,0,0,0,78.6-2.326,1.324,1.324,0,0,0,79.184-3.445Z" transform="translate(673 6185)" fill="#eca249"/><rect width="510" height="88" transform="translate(306 6001)" fill="#badff0"/><rect width="330" height="88" transform="translate(306 6163)" fill="#eca249"/></g></svg>