<svg xmlns="http://www.w3.org/2000/svg" width="578.865" height="537.765" viewBox="0 0 578.865 537.765"><defs><style>.a{opacity:0.276;}.b{fill:#fff;}.c,.d,.e{fill:none;stroke-linecap:round;stroke-width:13px;}.c{stroke:#eca249;}.d{stroke:#fff;}.e{stroke:#badff0;}</style></defs><g transform="translate(-763 -281.398)"><g class="a" transform="translate(763 281.398)"><circle class="b" cx="6.946" cy="6.946" r="6.946" transform="translate(302.746 0)"/><circle class="b" cx="6.946" cy="6.946" r="6.946" transform="translate(323.006 0)"/><circle class="b" cx="6.946" cy="6.946" r="6.946" transform="translate(343.267 0)"/><circle class="b" cx="6.946" cy="6.946" r="6.946" transform="translate(282.486 19.681)"/><circle class="b" cx="6.946" cy="6.946" r="6.946" transform="translate(302.746 19.681)"/><circle class="b" cx="6.946" cy="6.946" r="6.946" transform="translate(323.006 19.681)"/><circle class="b" cx="6.946" cy="6.946" r="6.946" transform="translate(343.267 19.681)"/><circle class="b" cx="6.946" cy="6.946" r="6.946" transform="translate(262.226 39.942)"/><circle class="b" cx="6.946" cy="6.946" r="6.946" transform="translate(282.486 39.942)"/><circle class="b" cx="6.946" cy="6.946" r="6.946" transform="translate(302.746 39.942)"/><circle class="b" cx="6.946" cy="6.946" r="6.946" transform="translate(323.006 39.942)"/><circle class="b" cx="6.946" cy="6.946" r="6.946" transform="translate(262.226 60.202)"/><circle class="b" cx="6.946" cy="6.946" r="6.946" transform="translate(282.486 60.202)"/><circle class="b" cx="6.946" cy="6.946" r="6.946" transform="translate(302.746 60.202)"/><circle class="b" cx="6.946" cy="6.946" r="6.946" transform="translate(323.006 60.202)"/><circle class="b" cx="6.946" cy="6.946" r="6.946" transform="translate(221.705 80.462)"/><circle class="b" cx="6.946" cy="6.946" r="6.946" transform="translate(262.226 80.462)"/><circle class="b" cx="6.946" cy="6.946" r="6.946" transform="translate(282.486 80.462)"/><circle class="b" cx="6.946" cy="6.946" r="6.946" transform="translate(302.746 80.462)"/><circle class="b" cx="6.946" cy="6.946" r="6.946" transform="translate(323.006 80.462)"/><circle class="b" cx="6.946" cy="6.946" r="6.946" transform="translate(181.763 100.722)"/><circle class="b" cx="6.946" cy="6.946" r="6.946" transform="translate(202.024 100.722)"/><circle class="b" cx="6.946" cy="6.946" r="6.946" transform="translate(221.705 100.722)"/><circle class="b" cx="6.946" cy="6.946" r="6.946" transform="translate(241.965 100.722)"/><circle class="b" cx="6.946" cy="6.946" r="6.946" transform="translate(282.486 100.722)"/><circle class="b" cx="6.946" cy="6.946" r="6.946" transform="translate(302.746 100.722)"/><circle class="b" cx="6.946" cy="6.946" r="6.946" transform="translate(323.006 100.722)"/><circle class="b" cx="6.946" cy="6.946" r="6.946" transform="translate(161.503 120.983)"/><circle class="b" cx="6.946" cy="6.946" r="6.946" transform="translate(181.763 120.983)"/><circle class="b" cx="6.946" cy="6.946" r="6.946" transform="translate(202.024 120.983)"/><circle class="b" cx="6.946" cy="6.946" r="6.946" transform="translate(221.705 120.983)"/><circle class="b" cx="6.946" cy="6.946" r="6.946" transform="translate(241.965 120.983)"/><circle class="b" cx="6.946" cy="6.946" r="6.946" transform="translate(262.226 120.983)"/><circle class="b" cx="6.946" cy="6.946" r="6.946" transform="translate(282.486 120.983)"/><circle class="b" cx="6.946" cy="6.946" r="6.946" transform="translate(302.746 120.983)"/><circle class="b" cx="6.946" cy="6.946" r="6.946" transform="translate(181.763 140.664)"/><circle class="b" cx="6.946" cy="6.946" r="6.946" transform="translate(202.024 140.664)"/><circle class="b" cx="6.946" cy="6.946" r="6.946" transform="translate(221.705 140.664)"/><circle class="b" cx="6.946" cy="6.946" r="6.946" transform="translate(241.965 140.664)"/><circle class="b" cx="6.946" cy="6.946" r="6.946" transform="translate(262.226 140.664)"/><circle class="b" cx="6.946" cy="6.946" r="6.946" transform="translate(282.486 140.664)"/><circle class="b" cx="6.946" cy="6.946" r="6.946" transform="translate(302.746 140.664)"/><circle class="b" cx="6.946" cy="6.946" r="6.946" transform="translate(141.243 160.924)"/><circle class="b" cx="6.946" cy="6.946" r="6.946" transform="translate(161.503 160.924)"/><circle class="b" cx="6.946" cy="6.946" r="6.946" transform="translate(241.965 160.924)"/><circle class="b" cx="6.946" cy="6.946" r="6.946" transform="translate(262.226 160.924)"/><circle class="b" cx="6.946" cy="6.946" r="6.946" transform="translate(282.486 160.924)"/><circle class="b" cx="6.946" cy="6.946" r="6.946" transform="translate(302.746 160.924)"/><circle class="b" cx="6.946" cy="6.946" r="6.946" transform="translate(323.006 160.924)"/><circle class="b" cx="6.946" cy="6.946" r="6.946" transform="translate(120.983 181.185)"/><circle class="b" cx="6.946" cy="6.946" r="6.946" transform="translate(141.243 181.185)"/><circle class="b" cx="6.946" cy="6.946" r="6.946" transform="translate(161.503 181.185)"/><circle class="b" cx="6.946" cy="6.946" r="6.946" transform="translate(181.763 181.185)"/><circle class="b" cx="6.946" cy="6.946" r="6.946" transform="translate(202.024 181.185)"/><circle class="b" cx="6.946" cy="6.946" r="6.946" transform="translate(241.965 181.185)"/><circle class="b" cx="6.946" cy="6.946" r="6.946" transform="translate(262.226 181.185)"/><circle class="b" cx="6.946" cy="6.946" r="6.946" transform="translate(282.486 181.185)"/><circle class="b" cx="6.946" cy="6.946" r="6.946" transform="translate(302.746 181.185)"/><circle class="b" cx="6.946" cy="6.946" r="6.946" transform="translate(323.006 181.185)"/><circle class="b" cx="6.946" cy="6.946" r="6.946" transform="translate(343.267 181.185)"/><circle class="b" cx="6.946" cy="6.946" r="6.946" transform="translate(361.925 193.875) rotate(-80.783)"/><circle class="b" cx="6.946" cy="6.946" r="6.946" transform="translate(40.521 201.445)"/><circle class="b" cx="6.946" cy="6.946" r="6.946" transform="translate(60.781 201.445)"/><circle class="b" cx="6.946" cy="6.946" r="6.946" transform="translate(81.041 201.445)"/><circle class="b" cx="6.946" cy="6.946" r="6.946" transform="translate(100.722 201.445)"/><circle class="b" cx="6.946" cy="6.946" r="6.946" transform="translate(141.243 201.445)"/><circle class="b" cx="6.946" cy="6.946" r="6.946" transform="translate(161.503 201.445)"/><circle class="b" cx="6.946" cy="6.946" r="6.946" transform="translate(181.763 201.445)"/><circle class="b" cx="6.946" cy="6.946" r="6.946" transform="translate(202.024 201.445)"/><circle class="b" cx="6.946" cy="6.946" r="6.946" transform="translate(241.965 201.445)"/><circle class="b" cx="6.946" cy="6.946" r="6.946" transform="translate(262.226 201.445)"/><circle class="b" cx="6.946" cy="6.946" r="6.946" transform="translate(282.486 201.445)"/><circle class="b" cx="6.946" cy="6.946" r="6.946" transform="translate(302.746 201.445)"/><circle class="b" cx="6.946" cy="6.946" r="6.946" transform="translate(323.006 201.445)"/><circle class="b" cx="6.946" cy="6.946" r="6.946" transform="translate(343.267 201.445)"/><circle class="b" cx="6.946" cy="6.946" r="6.946" transform="translate(361.925 214.135) rotate(-80.783)"/><circle class="b" cx="6.946" cy="6.946" r="6.946" transform="translate(383.208 201.445)"/><circle class="b" cx="6.946" cy="6.946" r="6.946" transform="translate(40.521 221.705)"/><circle class="b" cx="6.946" cy="6.946" r="6.946" transform="translate(60.781 221.705)"/><circle class="b" cx="6.946" cy="6.946" r="6.946" transform="translate(81.041 221.705)"/><circle class="b" cx="6.946" cy="6.946" r="6.946" transform="translate(100.722 221.705)"/><circle class="b" cx="6.946" cy="6.946" r="6.946" transform="translate(120.983 221.705)"/><circle class="b" cx="6.946" cy="6.946" r="6.946" transform="translate(141.243 221.705)"/><circle class="b" cx="6.946" cy="6.946" r="6.946" transform="translate(161.503 221.705)"/><circle class="b" cx="6.946" cy="6.946" r="6.946" transform="translate(181.763 221.705)"/><circle class="b" cx="6.946" cy="6.946" r="6.946" transform="translate(202.024 221.705)"/><circle class="b" cx="6.946" cy="6.946" r="6.946" transform="translate(221.705 221.705)"/><circle class="b" cx="6.946" cy="6.946" r="6.946" transform="translate(262.226 221.705)"/><circle class="b" cx="6.946" cy="6.946" r="6.946" transform="translate(302.746 221.705)"/><circle class="b" cx="6.946" cy="6.946" r="6.946" transform="translate(323.006 221.705)"/><circle class="b" cx="6.946" cy="6.946" r="6.946" transform="translate(343.267 221.705)"/><circle class="b" cx="6.946" cy="6.946" r="6.946" transform="translate(361.925 234.395) rotate(-80.783)"/><circle class="b" cx="6.946" cy="6.946" r="6.946" transform="translate(383.208 221.705)"/><circle class="b" cx="6.946" cy="6.946" r="6.946" transform="translate(403.469 221.705)"/><circle class="b" cx="6.946" cy="6.946" r="6.946" transform="translate(20.26 241.965)"/><circle class="b" cx="6.946" cy="6.946" r="6.946" transform="translate(40.521 241.965)"/><circle class="b" cx="6.946" cy="6.946" r="6.946" transform="translate(60.781 241.965)"/><circle class="b" cx="6.946" cy="6.946" r="6.946" transform="translate(81.041 241.965)"/><circle class="b" cx="6.946" cy="6.946" r="6.946" transform="translate(100.722 241.965)"/><circle class="b" cx="6.946" cy="6.946" r="6.946" transform="translate(120.983 241.965)"/><circle class="b" cx="6.946" cy="6.946" r="6.946" transform="translate(141.243 241.965)"/><circle class="b" cx="6.946" cy="6.946" r="6.946" transform="translate(161.503 241.965)"/><circle class="b" cx="6.946" cy="6.946" r="6.946" transform="translate(181.763 241.965)"/><circle class="b" cx="6.946" cy="6.946" r="6.946" transform="translate(202.024 241.965)"/><circle class="b" cx="6.946" cy="6.946" r="6.946" transform="translate(241.965 241.965)"/><circle class="b" cx="6.946" cy="6.946" r="6.946" transform="translate(262.226 241.965)"/><circle class="b" cx="6.946" cy="6.946" r="6.946" transform="translate(282.486 241.965)"/><circle class="b" cx="6.946" cy="6.946" r="6.946" transform="translate(302.746 241.965)"/><circle class="b" cx="6.946" cy="6.946" r="6.946" transform="translate(323.006 241.965)"/><circle class="b" cx="6.946" cy="6.946" r="6.946" transform="translate(383.208 241.965)"/><circle class="b" cx="6.946" cy="6.946" r="6.946" transform="translate(403.469 241.965)"/><circle class="b" cx="6.946" cy="6.946" r="6.946" transform="translate(423.729 241.965)"/><circle class="b" cx="6.946" cy="6.946" r="6.946" transform="translate(20.26 261.647)"/><circle class="b" cx="6.946" cy="6.946" r="6.946" transform="translate(40.521 261.647)"/><circle class="b" cx="6.946" cy="6.946" r="6.946" transform="translate(60.781 261.647)"/><circle class="b" cx="6.946" cy="6.946" r="6.946" transform="translate(81.041 261.647)"/><circle class="b" cx="6.946" cy="6.946" r="6.946" transform="translate(100.722 261.647)"/><circle class="b" cx="6.946" cy="6.946" r="6.946" transform="translate(120.983 261.647)"/><circle class="b" cx="6.946" cy="6.946" r="6.946" transform="translate(141.243 261.647)"/><circle class="b" cx="6.946" cy="6.946" r="6.946" transform="translate(161.503 261.647)"/><circle class="b" cx="6.946" cy="6.946" r="6.946" transform="translate(181.763 261.647)"/><circle class="b" cx="6.946" cy="6.946" r="6.946" transform="translate(202.024 261.647)"/><circle class="b" cx="6.946" cy="6.946" r="6.946" transform="translate(221.705 261.647)"/><circle class="b" cx="6.946" cy="6.946" r="6.946" transform="translate(241.965 261.647)"/><circle class="b" cx="6.946" cy="6.946" r="6.946" transform="translate(262.226 261.647)"/><circle class="b" cx="6.946" cy="6.946" r="6.946" transform="translate(282.486 261.647)"/><circle class="b" cx="6.946" cy="6.946" r="6.946" transform="translate(302.746 261.647)"/><circle class="b" cx="6.946" cy="6.946" r="6.946" transform="translate(323.006 261.647)"/><circle class="b" cx="6.946" cy="6.946" r="6.946" transform="translate(383.208 261.647)"/><circle class="b" cx="6.946" cy="6.946" r="6.946" transform="translate(403.469 261.647)"/><circle class="b" cx="6.946" cy="6.946" r="6.946" transform="translate(20.26 281.907)"/><circle class="b" cx="6.946" cy="6.946" r="6.946" transform="translate(40.521 281.907)"/><circle class="b" cx="6.946" cy="6.946" r="6.946" transform="translate(60.781 281.907)"/><circle class="b" cx="6.946" cy="6.946" r="6.946" transform="translate(81.041 281.907)"/><circle class="b" cx="6.946" cy="6.946" r="6.946" transform="translate(100.722 281.907)"/><circle class="b" cx="6.946" cy="6.946" r="6.946" transform="translate(120.983 281.907)"/><circle class="b" cx="6.946" cy="6.946" r="6.946" transform="translate(141.243 281.907)"/><circle class="b" cx="6.946" cy="6.946" r="6.946" transform="translate(161.503 281.907)"/><circle class="b" cx="6.946" cy="6.946" r="6.946" transform="translate(181.763 281.907)"/><circle class="b" cx="6.946" cy="6.946" r="6.946" transform="translate(202.024 281.907)"/><circle class="b" cx="6.946" cy="6.946" r="6.946" transform="translate(221.705 281.907)"/><circle class="b" cx="6.946" cy="6.946" r="6.946" transform="translate(241.965 281.907)"/><circle class="b" cx="6.946" cy="6.946" r="6.946" transform="translate(262.226 281.907)"/><circle class="b" cx="6.946" cy="6.946" r="6.946" transform="translate(282.486 281.907)"/><circle class="b" cx="6.946" cy="6.946" r="6.946" transform="translate(302.746 281.907)"/><circle class="b" cx="6.946" cy="6.946" r="6.946" transform="translate(323.006 281.907)"/><circle class="b" cx="6.946" cy="6.946" r="6.946" transform="matrix(0.16, -0.987, 0.987, 0.16, 361.925, 294.597)"/><circle class="b" cx="6.946" cy="6.946" r="6.946" transform="translate(383.208 281.907)"/><circle class="b" cx="6.946" cy="6.946" r="6.946" transform="translate(403.469 281.907)"/><circle class="b" cx="6.946" cy="6.946" r="6.946" transform="translate(423.729 281.907)"/><circle class="b" cx="6.946" cy="6.946" r="6.946" transform="translate(0 302.167)"/><circle class="b" cx="6.946" cy="6.946" r="6.946" transform="translate(20.26 302.167)"/><circle class="b" cx="6.946" cy="6.946" r="6.946" transform="translate(40.521 302.167)"/><circle class="b" cx="6.946" cy="6.946" r="6.946" transform="translate(60.781 302.167)"/><circle class="b" cx="6.946" cy="6.946" r="6.946" transform="translate(81.041 302.167)"/><circle class="b" cx="6.946" cy="6.946" r="6.946" transform="translate(100.722 302.167)"/><circle class="b" cx="6.946" cy="6.946" r="6.946" transform="translate(120.983 302.167)"/><circle class="b" cx="6.946" cy="6.946" r="6.946" transform="translate(141.243 302.167)"/><circle class="b" cx="6.946" cy="6.946" r="6.946" transform="translate(161.503 302.167)"/><circle class="b" cx="6.946" cy="6.946" r="6.946" transform="translate(181.763 302.167)"/><circle class="b" cx="6.946" cy="6.946" r="6.946" transform="translate(202.024 302.167)"/><circle class="b" cx="6.946" cy="6.946" r="6.946" transform="translate(221.705 302.167)"/><circle class="b" cx="6.946" cy="6.946" r="6.946" transform="translate(241.965 302.167)"/><circle class="b" cx="6.946" cy="6.946" r="6.946" transform="translate(262.226 302.167)"/><circle class="b" cx="6.946" cy="6.946" r="6.946" transform="translate(282.486 302.167)"/><circle class="b" cx="6.946" cy="6.946" r="6.946" transform="translate(302.746 302.167)"/><circle class="b" cx="6.946" cy="6.946" r="6.946" transform="translate(323.006 302.167)"/><circle class="b" cx="6.946" cy="6.946" r="6.946" transform="translate(343.267 302.167)"/><circle class="b" cx="6.946" cy="6.946" r="6.946" transform="translate(20.26 322.428)"/><circle class="b" cx="6.946" cy="6.946" r="6.946" transform="translate(40.521 322.428)"/><circle class="b" cx="6.946" cy="6.946" r="6.946" transform="translate(60.781 322.428)"/><circle class="b" cx="6.946" cy="6.946" r="6.946" transform="translate(81.041 322.428)"/><circle class="b" cx="6.946" cy="6.946" r="6.946" transform="translate(100.722 322.428)"/><circle class="b" cx="6.946" cy="6.946" r="6.946" transform="translate(120.983 322.428)"/><circle class="b" cx="6.946" cy="6.946" r="6.946" transform="translate(141.243 322.428)"/><circle class="b" cx="6.946" cy="6.946" r="6.946" transform="translate(161.503 322.428)"/><circle class="b" cx="6.946" cy="6.946" r="6.946" transform="translate(181.763 322.428)"/><circle class="b" cx="6.946" cy="6.946" r="6.946" transform="translate(202.024 322.428)"/><circle class="b" cx="6.946" cy="6.946" r="6.946" transform="translate(221.705 322.428)"/><circle class="b" cx="6.946" cy="6.946" r="6.946" transform="translate(241.965 322.428)"/><circle class="b" cx="6.946" cy="6.946" r="6.946" transform="translate(262.226 322.428)"/><circle class="b" cx="6.946" cy="6.946" r="6.946" transform="translate(282.486 322.428)"/><circle class="b" cx="6.946" cy="6.946" r="6.946" transform="matrix(0.16, -0.987, 0.987, 0.16, 361.925, 335.118)"/><circle class="b" cx="6.946" cy="6.946" r="6.946" transform="translate(383.208 322.428)"/><circle class="b" cx="6.946" cy="6.946" r="6.946" transform="translate(403.469 322.428)"/><circle class="b" cx="6.946" cy="6.946" r="6.946" transform="translate(443.989 322.428)"/><circle class="b" cx="6.946" cy="6.946" r="6.946" transform="translate(40.521 342.688)"/><circle class="b" cx="6.946" cy="6.946" r="6.946" transform="translate(60.781 342.688)"/><circle class="b" cx="6.946" cy="6.946" r="6.946" transform="translate(81.041 342.688)"/><circle class="b" cx="6.946" cy="6.946" r="6.946" transform="translate(100.722 342.688)"/><circle class="b" cx="6.946" cy="6.946" r="6.946" transform="translate(120.983 342.688)"/><circle class="b" cx="6.946" cy="6.946" r="6.946" transform="translate(141.243 342.688)"/><circle class="b" cx="6.946" cy="6.946" r="6.946" transform="translate(161.503 342.688)"/><circle class="b" cx="6.946" cy="6.946" r="6.946" transform="translate(181.763 342.688)"/><circle class="b" cx="6.946" cy="6.946" r="6.946" transform="translate(202.024 342.688)"/><circle class="b" cx="6.946" cy="6.946" r="6.946" transform="translate(221.705 342.688)"/><circle class="b" cx="6.946" cy="6.946" r="6.946" transform="translate(241.965 342.688)"/><circle class="b" cx="6.946" cy="6.946" r="6.946" transform="translate(262.226 342.688)"/><circle class="b" cx="6.946" cy="6.946" r="6.946" transform="matrix(0.16, -0.987, 0.987, 0.16, 361.925, 355.378)"/><circle class="b" cx="6.946" cy="6.946" r="6.946" transform="translate(383.208 342.688)"/><circle class="b" cx="6.946" cy="6.946" r="6.946" transform="translate(403.469 342.688)"/><circle class="b" cx="6.946" cy="6.946" r="6.946" transform="translate(423.729 342.688)"/><circle class="b" cx="6.946" cy="6.946" r="6.946" transform="translate(443.989 342.688)"/><circle class="b" cx="6.946" cy="6.946" r="6.946" transform="translate(464.249 342.688)"/><circle class="b" cx="6.946" cy="6.946" r="6.946" transform="translate(40.521 362.948)"/><circle class="b" cx="6.946" cy="6.946" r="6.946" transform="translate(60.781 362.948)"/><circle class="b" cx="6.946" cy="6.946" r="6.946" transform="translate(81.041 362.948)"/><circle class="b" cx="6.946" cy="6.946" r="6.946" transform="translate(100.722 362.948)"/><circle class="b" cx="6.946" cy="6.946" r="6.946" transform="translate(120.983 362.948)"/><circle class="b" cx="6.946" cy="6.946" r="6.946" transform="translate(141.243 362.948)"/><circle class="b" cx="6.946" cy="6.946" r="6.946" transform="translate(161.503 362.948)"/><circle class="b" cx="6.946" cy="6.946" r="6.946" transform="translate(181.764 362.948)"/><circle class="b" cx="6.946" cy="6.946" r="6.946" transform="translate(202.024 362.948)"/><circle class="b" cx="6.946" cy="6.946" r="6.946" transform="translate(221.705 362.948)"/><circle class="b" cx="6.946" cy="6.946" r="6.946" transform="translate(241.965 362.948)"/><circle class="b" cx="6.946" cy="6.946" r="6.946" transform="translate(262.226 362.948)"/><circle class="b" cx="6.946" cy="6.946" r="6.946" transform="translate(362.948 362.948)"/><circle class="b" cx="6.946" cy="6.946" r="6.946" transform="translate(383.208 362.948)"/><circle class="b" cx="6.946" cy="6.946" r="6.946" transform="translate(403.469 362.948)"/><circle class="b" cx="6.946" cy="6.946" r="6.946" transform="translate(423.729 362.948)"/><circle class="b" cx="6.946" cy="6.946" r="6.946" transform="translate(443.989 362.948)"/><circle class="b" cx="6.946" cy="6.946" r="6.946" transform="translate(464.249 362.948)"/><circle class="b" cx="6.946" cy="6.946" r="6.946" transform="translate(483.931 362.948)"/><circle class="b" cx="6.946" cy="6.946" r="6.946" transform="translate(504.191 362.948)"/><circle class="b" cx="6.946" cy="6.946" r="6.946" transform="translate(40.521 383.208)"/><circle class="b" cx="6.946" cy="6.946" r="6.946" transform="translate(60.781 383.208)"/><circle class="b" cx="6.946" cy="6.946" r="6.946" transform="translate(81.041 383.208)"/><circle class="b" cx="6.946" cy="6.946" r="6.946" transform="translate(100.722 383.208)"/><circle class="b" cx="6.946" cy="6.946" r="6.946" transform="translate(120.983 383.208)"/><circle class="b" cx="6.946" cy="6.946" r="6.946" transform="translate(141.243 383.208)"/><circle class="b" cx="6.946" cy="6.946" r="6.946" transform="translate(161.503 383.208)"/><circle class="b" cx="6.946" cy="6.946" r="6.946" transform="translate(181.764 383.208)"/><circle class="b" cx="6.946" cy="6.946" r="6.946" transform="translate(202.024 383.208)"/><circle class="b" cx="6.946" cy="6.946" r="6.946" transform="translate(221.705 383.208)"/><circle class="b" cx="6.946" cy="6.946" r="6.946" transform="translate(241.965 383.208)"/><circle class="b" cx="6.946" cy="6.946" r="6.946" transform="translate(262.226 383.208)"/><circle class="b" cx="6.946" cy="6.946" r="6.946" transform="translate(282.486 383.208)"/><circle class="b" cx="6.946" cy="6.946" r="6.946" transform="translate(302.746 383.208)"/><circle class="b" cx="6.946" cy="6.946" r="6.946" transform="translate(383.208 383.208)"/><circle class="b" cx="6.946" cy="6.946" r="6.946" transform="translate(403.469 383.208)"/><circle class="b" cx="6.946" cy="6.946" r="6.946" transform="translate(423.729 383.208)"/><circle class="b" cx="6.946" cy="6.946" r="6.946" transform="translate(443.989 383.208)"/><circle class="b" cx="6.946" cy="6.946" r="6.946" transform="translate(464.249 383.208)"/><circle class="b" cx="6.946" cy="6.946" r="6.946" transform="translate(483.931 383.208)"/><circle class="b" cx="6.946" cy="6.946" r="6.946" transform="translate(504.191 383.208)"/><circle class="b" cx="6.946" cy="6.946" r="6.946" transform="translate(524.451 383.208)"/><circle class="b" cx="6.946" cy="6.946" r="6.946" transform="translate(40.521 402.89)"/><circle class="b" cx="6.946" cy="6.946" r="6.946" transform="translate(60.781 402.89)"/><circle class="b" cx="6.946" cy="6.946" r="6.946" transform="translate(81.041 402.89)"/><circle class="b" cx="6.946" cy="6.946" r="6.946" transform="translate(100.722 402.89)"/><circle class="b" cx="6.946" cy="6.946" r="6.946" transform="translate(120.983 402.89)"/><circle class="b" cx="6.946" cy="6.946" r="6.946" transform="translate(141.243 402.89)"/><circle class="b" cx="6.946" cy="6.946" r="6.946" transform="translate(161.503 402.89)"/><circle class="b" cx="6.946" cy="6.946" r="6.946" transform="translate(181.764 402.89)"/><circle class="b" cx="6.946" cy="6.946" r="6.946" transform="translate(202.024 402.89)"/><circle class="b" cx="6.946" cy="6.946" r="6.946" transform="translate(221.705 402.89)"/><circle class="b" cx="6.946" cy="6.946" r="6.946" transform="translate(241.965 402.89)"/><circle class="b" cx="6.946" cy="6.946" r="6.946" transform="translate(262.226 402.89)"/><circle class="b" cx="6.946" cy="6.946" r="6.946" transform="translate(282.486 402.89)"/><circle class="b" cx="6.946" cy="6.946" r="6.946" transform="translate(302.746 402.89)"/><circle class="b" cx="6.946" cy="6.946" r="6.946" transform="translate(323.006 402.89)"/><circle class="b" cx="6.946" cy="6.946" r="6.946" transform="translate(343.267 402.89)"/><circle class="b" cx="6.946" cy="6.946" r="6.946" transform="translate(383.208 402.89)"/><circle class="b" cx="6.946" cy="6.946" r="6.946" transform="translate(403.469 402.89)"/><circle class="b" cx="6.946" cy="6.946" r="6.946" transform="translate(423.729 402.89)"/><circle class="b" cx="6.946" cy="6.946" r="6.946" transform="translate(443.989 402.89)"/><circle class="b" cx="6.946" cy="6.946" r="6.946" transform="translate(464.249 402.89)"/><circle class="b" cx="6.946" cy="6.946" r="6.946" transform="translate(483.931 402.89)"/><circle class="b" cx="6.946" cy="6.946" r="6.946" transform="translate(504.191 402.89)"/><circle class="b" cx="6.946" cy="6.946" r="6.946" transform="translate(524.451 402.89)"/><circle class="b" cx="6.946" cy="6.946" r="6.946" transform="translate(544.712 402.89)"/><circle class="b" cx="6.946" cy="6.946" r="6.946" transform="translate(60.781 423.15)"/><circle class="b" cx="6.946" cy="6.946" r="6.946" transform="translate(81.041 423.15)"/><circle class="b" cx="6.946" cy="6.946" r="6.946" transform="translate(100.722 423.15)"/><circle class="b" cx="6.946" cy="6.946" r="6.946" transform="translate(120.983 423.15)"/><circle class="b" cx="6.946" cy="6.946" r="6.946" transform="translate(141.243 423.15)"/><circle class="b" cx="6.946" cy="6.946" r="6.946" transform="translate(161.503 423.15)"/><circle class="b" cx="6.946" cy="6.946" r="6.946" transform="translate(181.764 423.15)"/><circle class="b" cx="6.946" cy="6.946" r="6.946" transform="translate(202.024 423.15)"/><circle class="b" cx="6.946" cy="6.946" r="6.946" transform="translate(221.705 423.15)"/><circle class="b" cx="6.946" cy="6.946" r="6.946" transform="translate(241.965 423.15)"/><circle class="b" cx="6.946" cy="6.946" r="6.946" transform="translate(262.226 423.15)"/><circle class="b" cx="6.946" cy="6.946" r="6.946" transform="translate(282.486 423.15)"/><circle class="b" cx="6.946" cy="6.946" r="6.946" transform="translate(302.746 423.15)"/><circle class="b" cx="6.946" cy="6.946" r="6.946" transform="translate(323.006 423.15)"/><circle class="b" cx="6.946" cy="6.946" r="6.946" transform="translate(343.267 423.15)"/><circle class="b" cx="6.946" cy="6.946" r="6.946" transform="translate(383.208 423.15)"/><circle class="b" cx="6.946" cy="6.946" r="6.946" transform="translate(403.469 423.15)"/><circle class="b" cx="6.946" cy="6.946" r="6.946" transform="translate(423.729 423.15)"/><circle class="b" cx="6.946" cy="6.946" r="6.946" transform="translate(443.989 423.15)"/><circle class="b" cx="6.946" cy="6.946" r="6.946" transform="translate(464.249 423.15)"/><circle class="b" cx="6.946" cy="6.946" r="6.946" transform="translate(483.931 423.15)"/><circle class="b" cx="6.946" cy="6.946" r="6.946" transform="translate(524.451 423.15)"/><circle class="b" cx="6.946" cy="6.946" r="6.946" transform="translate(544.712 423.15)"/><circle class="b" cx="6.946" cy="6.946" r="6.946" transform="translate(564.972 423.15)"/><circle class="b" cx="6.946" cy="6.946" r="6.946" transform="translate(60.781 443.41)"/><circle class="b" cx="6.946" cy="6.946" r="6.946" transform="translate(81.041 443.41)"/><circle class="b" cx="6.946" cy="6.946" r="6.946" transform="translate(100.722 443.41)"/><circle class="b" cx="6.946" cy="6.946" r="6.946" transform="translate(120.983 443.41)"/><circle class="b" cx="6.946" cy="6.946" r="6.946" transform="translate(141.243 443.41)"/><circle class="b" cx="6.946" cy="6.946" r="6.946" transform="translate(161.503 443.41)"/><circle class="b" cx="6.946" cy="6.946" r="6.946" transform="translate(181.764 443.41)"/><circle class="b" cx="6.946" cy="6.946" r="6.946" transform="translate(202.024 443.41)"/><circle class="b" cx="6.946" cy="6.946" r="6.946" transform="translate(221.705 443.41)"/><circle class="b" cx="6.946" cy="6.946" r="6.946" transform="translate(241.965 443.41)"/><circle class="b" cx="6.946" cy="6.946" r="6.946" transform="translate(262.226 443.41)"/><circle class="b" cx="6.946" cy="6.946" r="6.946" transform="translate(282.486 443.41)"/><circle class="b" cx="6.946" cy="6.946" r="6.946" transform="translate(302.746 443.41)"/><circle class="b" cx="6.946" cy="6.946" r="6.946" transform="translate(323.006 443.41)"/><circle class="b" cx="6.946" cy="6.946" r="6.946" transform="translate(343.267 443.41)"/><circle class="b" cx="6.946" cy="6.946" r="6.946" transform="translate(362.948 443.41)"/><circle class="b" cx="6.946" cy="6.946" r="6.946" transform="translate(383.208 443.41)"/><circle class="b" cx="6.946" cy="6.946" r="6.946" transform="translate(403.469 443.41)"/><circle class="b" cx="6.946" cy="6.946" r="6.946" transform="translate(423.729 443.41)"/><circle class="b" cx="6.946" cy="6.946" r="6.946" transform="translate(443.989 443.41)"/><circle class="b" cx="6.946" cy="6.946" r="6.946" transform="translate(464.249 443.41)"/><circle class="b" cx="6.946" cy="6.946" r="6.946" transform="translate(483.931 443.41)"/><circle class="b" cx="6.946" cy="6.946" r="6.946" transform="translate(81.041 463.671)"/><circle class="b" cx="6.946" cy="6.946" r="6.946" transform="translate(100.722 463.671)"/><circle class="b" cx="6.946" cy="6.946" r="6.946" transform="translate(120.983 463.671)"/><circle class="b" cx="6.946" cy="6.946" r="6.946" transform="translate(141.243 463.671)"/><circle class="b" cx="6.946" cy="6.946" r="6.946" transform="translate(161.503 463.671)"/><circle class="b" cx="6.946" cy="6.946" r="6.946" transform="translate(181.764 463.671)"/><circle class="b" cx="6.946" cy="6.946" r="6.946" transform="translate(202.024 463.671)"/><circle class="b" cx="6.946" cy="6.946" r="6.946" transform="translate(221.705 463.671)"/><circle class="b" cx="6.946" cy="6.946" r="6.946" transform="translate(241.965 463.671)"/><circle class="b" cx="6.946" cy="6.946" r="6.946" transform="translate(262.226 463.671)"/><circle class="b" cx="6.946" cy="6.946" r="6.946" transform="translate(282.486 463.671)"/><circle class="b" cx="6.946" cy="6.946" r="6.946" transform="translate(282.486 483.931)"/><circle class="b" cx="6.946" cy="6.946" r="6.946" transform="translate(302.746 463.671)"/><circle class="b" cx="6.946" cy="6.946" r="6.946" transform="translate(323.006 463.671)"/><circle class="b" cx="6.946" cy="6.946" r="6.946" transform="translate(343.267 463.671)"/><circle class="b" cx="6.946" cy="6.946" r="6.946" transform="translate(362.948 463.671)"/><circle class="b" cx="6.946" cy="6.946" r="6.946" transform="translate(383.208 463.671)"/><circle class="b" cx="6.946" cy="6.946" r="6.946" transform="translate(403.469 463.671)"/><circle class="b" cx="6.946" cy="6.946" r="6.946" transform="translate(423.729 463.671)"/><circle class="b" cx="6.946" cy="6.946" r="6.946" transform="translate(443.989 463.671)"/><circle class="b" cx="6.946" cy="6.946" r="6.946" transform="translate(464.249 463.671)"/><circle class="b" cx="6.946" cy="6.946" r="6.946" transform="translate(483.931 463.671)"/><circle class="b" cx="6.946" cy="6.946" r="6.946" transform="translate(504.191 463.671)"/><circle class="b" cx="6.946" cy="6.946" r="6.946" transform="translate(524.451 463.671)"/><circle class="b" cx="6.946" cy="6.946" r="6.946" transform="translate(302.746 483.931)"/><circle class="b" cx="6.946" cy="6.946" r="6.946" transform="translate(343.267 483.931)"/><circle class="b" cx="6.946" cy="6.946" r="6.946" transform="translate(362.948 483.931)"/><circle class="b" cx="6.946" cy="6.946" r="6.946" transform="translate(383.208 483.931)"/><circle class="b" cx="6.946" cy="6.946" r="6.946" transform="translate(403.469 483.931)"/><circle class="b" cx="6.946" cy="6.946" r="6.946" transform="translate(423.729 483.931)"/><circle class="b" cx="6.946" cy="6.946" r="6.946" transform="translate(443.989 483.931)"/><circle class="b" cx="6.946" cy="6.946" r="6.946" transform="translate(483.931 483.931)"/><circle class="b" cx="6.946" cy="6.946" r="6.946" transform="translate(383.208 504.191)"/><circle class="b" cx="6.946" cy="6.946" r="6.946" transform="translate(403.469 504.191)"/><circle class="b" cx="6.946" cy="6.946" r="6.946" transform="translate(362.948 523.872)"/><circle class="b" cx="6.946" cy="6.946" r="6.946" transform="translate(383.208 523.872)"/></g><line class="c" y1="109.384" transform="translate(1052.51 484.83)"/><line class="c" y1="90.36" transform="translate(1032.298 503.853)"/><line class="c" y1="70.148" transform="translate(1012.085 524.065)"/><line class="c" y1="46.369" transform="translate(991.873 547.844)"/><line class="c" y1="46.369" transform="translate(1072.722 547.844)"/><line class="c" y1="4.756" transform="translate(971.661 589.458)"/><line class="c" y1="4.756" transform="translate(1092.934 589.458)"/><line class="d" y1="22.59" transform="translate(1133.359 751.155)"/><line class="e" y1="22.59" transform="translate(811.153 669.118)"/><line class="e" y1="22.59" transform="translate(890.812 669.118)"/><line class="e" y1="39.235" transform="translate(850.388 652.472)"/><line class="e" y1="80.849" transform="translate(870.6 610.859)"/><line class="e" y1="2.378" transform="translate(830.176 689.33)"/><line class="e" y1="2.378" transform="translate(911.025 689.33)"/><line class="d" y1="46.369" transform="translate(1153.571 727.376)"/><line class="d" y1="46.369" transform="translate(1193.995 727.376)"/><line class="d" y1="102.25" transform="translate(1173.783 671.495)"/><line class="d" y1="82.038" transform="translate(1214.207 691.708)"/></g></svg>