<svg xmlns="http://www.w3.org/2000/svg" xmlns:xlink="http://www.w3.org/1999/xlink" width="116.279" height="160.586" viewBox="0 0 116.279 160.586"><defs><style>.a{fill:#41b4e8;}.b{fill:#3a99ba;}.c{fill:#fff;}.d{fill:#324751;}.e{fill:#bcbdbe;}.f{filter:url(#c);}.g{filter:url(#a);}</style><filter id="a" x="5.933" y="11.538" width="104.206" height="143.315" filterUnits="userSpaceOnUse"><feOffset dy="3" input="SourceAlpha"/><feGaussianBlur stdDeviation="3" result="b"/><feFlood flood-opacity="0.161"/><feComposite operator="in" in2="b"/><feComposite in="SourceGraphic"/></filter><filter id="c" x="0" y="102.141" width="58.445" height="58.445" filterUnits="userSpaceOnUse"><feOffset dy="3" input="SourceAlpha"/><feGaussianBlur stdDeviation="3" result="d"/><feFlood flood-opacity="0.161"/><feComposite operator="in" in2="d"/><feComposite in="SourceGraphic"/></filter></defs><g transform="translate(9)"><g class="g" transform="matrix(1, 0, 0, 1, -9, 0)"><path class="a" d="M354.586,257.06V357.21a25.161,25.161,0,0,1-25.164,25.164H275.385a7,7,0,0,1-7.005-7.005V257.06Z" transform="translate(-253.45 -239.52)"/></g><path class="b" d="M307.335,359.828a24.457,24.457,0,0,1-4.711,14.485H275.385a7,7,0,0,1-7.005-7.005V339.727a24.658,24.658,0,0,1,38.955,20.1Z" transform="translate(-262.447 -231.46)"/><path class="a" d="M319.3,257.059h41.922v29.886a12.035,12.035,0,0,0-12.036,12.036H319.3Z" transform="translate(-257.191 -239.522)"/><path class="c" d="M304.592,306.874a1.639,1.639,0,0,1-2.464,1.757l-4.171-2.606-5.207,8.334a3.282,3.282,0,0,0,2.777,5.015h5.322a1.229,1.229,0,0,1,1.229,1.229v4.1a1.228,1.228,0,0,1-1.229,1.228h-5.312a9.835,9.835,0,0,1-8.335-15.037l5.2-8.333-4.17-2.606a1.639,1.639,0,0,1,.5-2.985l11.286-2.606a1.639,1.639,0,0,1,1.965,1.228l2.606,11.286Zm10.091-18.727,4.228,6.765-4.171,2.607a1.639,1.639,0,0,0,.5,2.985l11.286,2.6a1.638,1.638,0,0,0,1.965-1.227l2.606-11.287a1.64,1.64,0,0,0-2.465-1.757l-4.166,2.6-4.224-6.766a9.834,9.834,0,0,0-16.67,0l-1.839,2.946a1.228,1.228,0,0,0,.391,1.692l3.473,2.17a1.23,1.23,0,0,0,1.693-.391l1.839-2.943a3.279,3.279,0,0,1,5.555,0Zm21.926,22.743-2.817-4.512a1.228,1.228,0,0,0-1.693-.391l-3.467,2.166a1.23,1.23,0,0,0-.391,1.693l2.822,4.515a3.282,3.282,0,0,1-2.778,5.013h-9.827v-4.913a1.639,1.639,0,0,0-2.8-1.158l-8.191,8.189a1.638,1.638,0,0,0,0,2.317L315.663,332a1.639,1.639,0,0,0,2.8-1.158v-4.914h9.816A9.834,9.834,0,0,0,336.61,310.889Z" transform="translate(-260.659 -237.148)"/><g transform="translate(0 108.141)"><g class="f" transform="matrix(1, 0, 0, 1, -9, -108.14)"><ellipse class="d" cx="20.223" cy="20.223" rx="20.223" ry="20.223" transform="translate(9 108.14)"/></g><ellipse class="e" cx="11.474" cy="11.474" rx="11.474" ry="11.474" transform="translate(8.749 8.749)"/><ellipse class="d" cx="4.142" cy="4.142" rx="4.142" ry="4.142" transform="translate(16.081 16.081)"/></g><rect class="a" width="105.722" height="7.413" transform="translate(1.557 10.123)"/><path class="a" d="M8.989,0H77.217a8.989,8.989,0,0,1,8.989,8.989v8.547a0,0,0,0,1,0,0H0a0,0,0,0,1,0,0V8.989A8.989,8.989,0,0,1,8.989,0Z" transform="translate(11.315)"/><path class="b" d="M268.382,264.37l98.1,5.633V257.059h-98.1Z" transform="translate(-262.446 -239.522)"/></g></svg>