<svg xmlns="http://www.w3.org/2000/svg" width="494" height="296.957" viewBox="0 0 494 296.957"><g transform="translate(-392.876 -6434.87)"><path d="M18.519-30.29v5.435h-.369a12.539,12.539,0,0,0-3.333.431,8.85,8.85,0,0,0-2.8,1.3,7.935,7.935,0,0,0-2.082,2.184,8.179,8.179,0,0,0-1.159,3.1A8.209,8.209,0,0,1,11.29-19.5a8.468,8.468,0,0,1,3.394-.636,8.012,8.012,0,0,1,3.63.79,7.663,7.663,0,0,1,2.656,2.174,9.752,9.752,0,0,1,1.63,3.25,14.146,14.146,0,0,1,.554,4.04,10.508,10.508,0,0,1-.779,4.071A9.96,9.96,0,0,1,20.21-2.553a9.988,9.988,0,0,1-3.3,2.174,10.91,10.91,0,0,1-4.194.79A11.655,11.655,0,0,1,8.336-.4a9.824,9.824,0,0,1-3.5-2.358A10.905,10.905,0,0,1,2.533-6.542,14.472,14.472,0,0,1,1.7-11.607V-14.13a18.322,18.322,0,0,1,.584-4.748,16.148,16.148,0,0,1,1.63-3.979,14.276,14.276,0,0,1,2.5-3.179,14.96,14.96,0,0,1,3.2-2.328A15.8,15.8,0,0,1,13.34-29.8a16.8,16.8,0,0,1,4.071-.492ZM12.284-14.848a3.954,3.954,0,0,0-2.3.636,4.036,4.036,0,0,0-1.374,1.559v2.071a7.377,7.377,0,0,0,.995,4.276A3.37,3.37,0,0,0,12.53-4.922,2.969,2.969,0,0,0,14.007-5.3a3.691,3.691,0,0,0,1.169-1.046,5.168,5.168,0,0,0,.769-1.569,6.685,6.685,0,0,0,.277-1.969,6.736,6.736,0,0,0-.3-2.071,4.809,4.809,0,0,0-.82-1.569,3.509,3.509,0,0,0-1.241-.984A3.656,3.656,0,0,0,12.284-14.848Zm34-7.034a6.893,6.893,0,0,1-1.077,3.835,7.841,7.841,0,0,1-2.963,2.666A8.629,8.629,0,0,1,45.63-12.52a7.382,7.382,0,0,1,1.251,4.3A8.545,8.545,0,0,1,46.1-4.46a7.626,7.626,0,0,1-2.153,2.7,9.353,9.353,0,0,1-3.281,1.63A15.068,15.068,0,0,1,36.524.41a15.259,15.259,0,0,1-4.173-.543,9.564,9.564,0,0,1-3.312-1.63,7.736,7.736,0,0,1-2.194-2.7,8.36,8.36,0,0,1-.8-3.763,7.979,7.979,0,0,1,.328-2.317,7.2,7.2,0,0,1,.943-1.989A7.747,7.747,0,0,1,28.8-14.15a9.315,9.315,0,0,1,1.958-1.23,7.886,7.886,0,0,1-2.994-2.666,6.845,6.845,0,0,1-1.087-3.835,8.512,8.512,0,0,1,.728-3.62,7.361,7.361,0,0,1,2.03-2.635,8.893,8.893,0,0,1,3.1-1.61,13.5,13.5,0,0,1,3.927-.543,13.68,13.68,0,0,1,3.958.543,8.883,8.883,0,0,1,3.107,1.61,7.361,7.361,0,0,1,2.03,2.635A8.512,8.512,0,0,1,46.286-21.882Zm-6.337,13.1A3.942,3.942,0,0,0,39-11.618a3.321,3.321,0,0,0-2.512-.995,3.354,3.354,0,0,0-2.522.995A3.916,3.916,0,0,0,33-8.777a4.8,4.8,0,0,0,.256,1.62,3.428,3.428,0,0,0,.718,1.21,3.119,3.119,0,0,0,1.118.759,3.779,3.779,0,0,0,1.436.267,3.213,3.213,0,0,0,2.481-1.025A4.021,4.021,0,0,0,39.949-8.777Zm-.595-12.735a3.969,3.969,0,0,0-.728-2.522,2.588,2.588,0,0,0-2.164-.923,2.554,2.554,0,0,0-2.123.913,3.961,3.961,0,0,0-.728,2.533,4.2,4.2,0,0,0,.738,2.584,2.547,2.547,0,0,0,2.174.984,2.443,2.443,0,0,0,2.123-.984A4.33,4.33,0,0,0,39.354-21.513Zm11.136-2.6a6.73,6.73,0,0,1,.42-2.389,5.52,5.52,0,0,1,1.251-1.958A5.93,5.93,0,0,1,54.243-29.8a7.862,7.862,0,0,1,2.892-.492,7.986,7.986,0,0,1,2.933.492,5.823,5.823,0,0,1,2.071,1.333,5.47,5.47,0,0,1,1.23,1.958,6.881,6.881,0,0,1,.41,2.389v1.579a6.821,6.821,0,0,1-.41,2.369,5.371,5.371,0,0,1-1.23,1.948A5.916,5.916,0,0,1,60.078-16.9a7.842,7.842,0,0,1-2.9.492,7.923,7.923,0,0,1-2.912-.492,6.119,6.119,0,0,1-2.092-1.323,5.355,5.355,0,0,1-1.261-1.948,6.672,6.672,0,0,1-.42-2.369Zm4.45,1.579a3.034,3.034,0,0,0,.133.9,2.254,2.254,0,0,0,.41.769,1.939,1.939,0,0,0,.7.533,2.347,2.347,0,0,0,.995.195,2.225,2.225,0,0,0,.964-.195,1.775,1.775,0,0,0,.667-.533,2.472,2.472,0,0,0,.39-.769,3.034,3.034,0,0,0,.133-.9v-1.579a3.208,3.208,0,0,0-.133-.933,2.339,2.339,0,0,0-.4-.779,1.846,1.846,0,0,0-.687-.533,2.294,2.294,0,0,0-.974-.195,2.225,2.225,0,0,0-.964.195,1.962,1.962,0,0,0-.687.533,2.24,2.24,0,0,0-.41.779,3.208,3.208,0,0,0-.133.933ZM64.682-7.321A6.755,6.755,0,0,1,65.1-9.7a5.4,5.4,0,0,1,1.251-1.958,6.007,6.007,0,0,1,2.082-1.323,7.862,7.862,0,0,1,2.892-.492,8.068,8.068,0,0,1,2.943.492,5.882,5.882,0,0,1,2.082,1.323A5.355,5.355,0,0,1,77.581-9.7a6.907,6.907,0,0,1,.41,2.379v1.579a6.881,6.881,0,0,1-.41,2.389A5.371,5.371,0,0,1,76.351-1.4,5.916,5.916,0,0,1,74.29-.082,7.9,7.9,0,0,1,71.367.41a7.923,7.923,0,0,1-2.912-.492A6.119,6.119,0,0,1,66.363-1.4,5.355,5.355,0,0,1,65.1-3.353a6.73,6.73,0,0,1-.42-2.389Zm4.43,1.579a2.461,2.461,0,0,0,.174.913,2.53,2.53,0,0,0,.482.779,2.288,2.288,0,0,0,.718.533,2.029,2.029,0,0,0,.882.195A2.762,2.762,0,0,0,72.5-3.517a1.585,1.585,0,0,0,.667-.533,1.868,1.868,0,0,0,.308-.779,5.673,5.673,0,0,0,.072-.913V-7.321a3.136,3.136,0,0,0-.133-.913A2.24,2.24,0,0,0,73-9.013a1.939,1.939,0,0,0-.7-.533,2.294,2.294,0,0,0-.974-.195,2.294,2.294,0,0,0-.974.195,1.939,1.939,0,0,0-.7.533,2.24,2.24,0,0,0-.41.779,3.136,3.136,0,0,0-.133.913ZM58.488-2.235l-3.22-1.62L69.85-27.193l3.22,1.62Z" transform="translate(749.876 6500.681)" fill="#fff"/><path d="M18.519-30.29v5.435h-.369a12.539,12.539,0,0,0-3.333.431,8.85,8.85,0,0,0-2.8,1.3,7.935,7.935,0,0,0-2.082,2.184,8.179,8.179,0,0,0-1.159,3.1A8.209,8.209,0,0,1,11.29-19.5a8.468,8.468,0,0,1,3.394-.636,8.012,8.012,0,0,1,3.63.79,7.663,7.663,0,0,1,2.656,2.174,9.752,9.752,0,0,1,1.63,3.25,14.146,14.146,0,0,1,.554,4.04,10.508,10.508,0,0,1-.779,4.071A9.96,9.96,0,0,1,20.21-2.553a9.988,9.988,0,0,1-3.3,2.174,10.91,10.91,0,0,1-4.194.79A11.655,11.655,0,0,1,8.336-.4a9.824,9.824,0,0,1-3.5-2.358A10.905,10.905,0,0,1,2.533-6.542,14.472,14.472,0,0,1,1.7-11.607V-14.13a18.322,18.322,0,0,1,.584-4.748,16.148,16.148,0,0,1,1.63-3.979,14.276,14.276,0,0,1,2.5-3.179,14.96,14.96,0,0,1,3.2-2.328A15.8,15.8,0,0,1,13.34-29.8a16.8,16.8,0,0,1,4.071-.492ZM12.284-14.848a3.954,3.954,0,0,0-2.3.636,4.036,4.036,0,0,0-1.374,1.559v2.071a7.377,7.377,0,0,0,.995,4.276A3.37,3.37,0,0,0,12.53-4.922,2.969,2.969,0,0,0,14.007-5.3a3.691,3.691,0,0,0,1.169-1.046,5.168,5.168,0,0,0,.769-1.569,6.685,6.685,0,0,0,.277-1.969,6.736,6.736,0,0,0-.3-2.071,4.809,4.809,0,0,0-.82-1.569,3.509,3.509,0,0,0-1.241-.984A3.656,3.656,0,0,0,12.284-14.848ZM46.983,0H26.147V-4.512l9.6-10.09a20.74,20.74,0,0,0,2.728-3.722,5.957,5.957,0,0,0,.82-2.7,4.465,4.465,0,0,0-.841-2.933,3,3,0,0,0-2.44-1,2.984,2.984,0,0,0-1.456.359,3.369,3.369,0,0,0-1.118.995,4.927,4.927,0,0,0-.718,1.487,6.411,6.411,0,0,0-.256,1.856H25.532a9.88,9.88,0,0,1,.769-3.876,9.7,9.7,0,0,1,2.174-3.2A10.2,10.2,0,0,1,31.838-29.5a11.5,11.5,0,0,1,4.337-.79,14.684,14.684,0,0,1,4.358.584,8.629,8.629,0,0,1,3.148,1.692A7.006,7.006,0,0,1,45.6-25.3a9.764,9.764,0,0,1,.646,3.661,9.077,9.077,0,0,1-.492,2.984,12.947,12.947,0,0,1-1.415,2.84,23.548,23.548,0,0,1-2.256,2.892q-1.333,1.477-2.994,3.138l-3.855,4.45H46.983ZM50.49-24.117a6.73,6.73,0,0,1,.42-2.389,5.52,5.52,0,0,1,1.251-1.958A5.93,5.93,0,0,1,54.243-29.8a7.862,7.862,0,0,1,2.892-.492,7.986,7.986,0,0,1,2.933.492,5.823,5.823,0,0,1,2.071,1.333,5.47,5.47,0,0,1,1.23,1.958,6.881,6.881,0,0,1,.41,2.389v1.579a6.821,6.821,0,0,1-.41,2.369,5.371,5.371,0,0,1-1.23,1.948A5.916,5.916,0,0,1,60.078-16.9a7.842,7.842,0,0,1-2.9.492,7.923,7.923,0,0,1-2.912-.492,6.119,6.119,0,0,1-2.092-1.323,5.355,5.355,0,0,1-1.261-1.948,6.672,6.672,0,0,1-.42-2.369Zm4.45,1.579a3.034,3.034,0,0,0,.133.9,2.254,2.254,0,0,0,.41.769,1.939,1.939,0,0,0,.7.533,2.347,2.347,0,0,0,.995.195,2.225,2.225,0,0,0,.964-.195,1.775,1.775,0,0,0,.667-.533,2.472,2.472,0,0,0,.39-.769,3.034,3.034,0,0,0,.133-.9v-1.579a3.208,3.208,0,0,0-.133-.933,2.339,2.339,0,0,0-.4-.779,1.846,1.846,0,0,0-.687-.533,2.294,2.294,0,0,0-.974-.195,2.225,2.225,0,0,0-.964.195,1.962,1.962,0,0,0-.687.533,2.24,2.24,0,0,0-.41.779,3.208,3.208,0,0,0-.133.933ZM64.682-7.321A6.755,6.755,0,0,1,65.1-9.7a5.4,5.4,0,0,1,1.251-1.958,6.007,6.007,0,0,1,2.082-1.323,7.862,7.862,0,0,1,2.892-.492,8.068,8.068,0,0,1,2.943.492,5.882,5.882,0,0,1,2.082,1.323A5.355,5.355,0,0,1,77.581-9.7a6.907,6.907,0,0,1,.41,2.379v1.579a6.881,6.881,0,0,1-.41,2.389A5.371,5.371,0,0,1,76.351-1.4,5.916,5.916,0,0,1,74.29-.082,7.9,7.9,0,0,1,71.367.41a7.923,7.923,0,0,1-2.912-.492A6.119,6.119,0,0,1,66.363-1.4,5.355,5.355,0,0,1,65.1-3.353a6.73,6.73,0,0,1-.42-2.389Zm4.43,1.579a2.461,2.461,0,0,0,.174.913,2.53,2.53,0,0,0,.482.779,2.288,2.288,0,0,0,.718.533,2.029,2.029,0,0,0,.882.195A2.762,2.762,0,0,0,72.5-3.517a1.585,1.585,0,0,0,.667-.533,1.868,1.868,0,0,0,.308-.779,5.673,5.673,0,0,0,.072-.913V-7.321a3.136,3.136,0,0,0-.133-.913A2.24,2.24,0,0,0,73-9.013a1.939,1.939,0,0,0-.7-.533,2.294,2.294,0,0,0-.974-.195,2.294,2.294,0,0,0-.974.195,1.939,1.939,0,0,0-.7.533,2.24,2.24,0,0,0-.41.779,3.136,3.136,0,0,0-.133.913ZM58.488-2.235l-3.22-1.62L69.85-27.193l3.22,1.62Z" transform="translate(616.876 6516.681)" fill="#fff"/><path d="M2.235-14.6,4.061-29.859H21.513v5.373H9.68L9-18.56a6.393,6.393,0,0,1,.677-.328,9.8,9.8,0,0,1,1-.359,10.165,10.165,0,0,1,1.23-.287,8.1,8.1,0,0,1,1.374-.113,10.855,10.855,0,0,1,3.938.667,7.517,7.517,0,0,1,2.892,1.948A8.59,8.59,0,0,1,21.9-13.884a13.607,13.607,0,0,1,.615,4.266,11.318,11.318,0,0,1-.625,3.732A9.244,9.244,0,0,1,20-2.676a9.166,9.166,0,0,1-3.22,2.246A11.587,11.587,0,0,1,12.161.41,12.585,12.585,0,0,1,8.254-.205,10.817,10.817,0,0,1,4.881-1.979a8.849,8.849,0,0,1-2.358-2.8A7.552,7.552,0,0,1,1.661-8.49H8.593a3.933,3.933,0,0,0,1.046,2.6,3.316,3.316,0,0,0,2.481.964,3.236,3.236,0,0,0,1.7-.41A3.019,3.019,0,0,0,14.9-6.45,4.947,4.947,0,0,0,15.453-8.1a12.357,12.357,0,0,0,.154-1.989,7.4,7.4,0,0,0-.246-1.989,3.971,3.971,0,0,0-.759-1.5,3.384,3.384,0,0,0-1.323-.954,5.015,5.015,0,0,0-1.938-.338,5.561,5.561,0,0,0-1.323.144,4.725,4.725,0,0,0-1.025.369,3.485,3.485,0,0,0-.749.5,4.129,4.129,0,0,0-.513.543ZM41.467,0H34.535V-22.066l-6.809,1.989v-5.25l13.1-4.532h.636ZM50.49-24.117a6.73,6.73,0,0,1,.42-2.389,5.52,5.52,0,0,1,1.251-1.958A5.93,5.93,0,0,1,54.243-29.8a7.862,7.862,0,0,1,2.892-.492,7.986,7.986,0,0,1,2.933.492,5.823,5.823,0,0,1,2.071,1.333,5.47,5.47,0,0,1,1.23,1.958,6.881,6.881,0,0,1,.41,2.389v1.579a6.821,6.821,0,0,1-.41,2.369,5.371,5.371,0,0,1-1.23,1.948A5.916,5.916,0,0,1,60.078-16.9a7.842,7.842,0,0,1-2.9.492,7.923,7.923,0,0,1-2.912-.492,6.119,6.119,0,0,1-2.092-1.323,5.355,5.355,0,0,1-1.261-1.948,6.672,6.672,0,0,1-.42-2.369Zm4.45,1.579a3.034,3.034,0,0,0,.133.9,2.254,2.254,0,0,0,.41.769,1.939,1.939,0,0,0,.7.533,2.347,2.347,0,0,0,.995.195,2.225,2.225,0,0,0,.964-.195,1.775,1.775,0,0,0,.667-.533,2.472,2.472,0,0,0,.39-.769,3.034,3.034,0,0,0,.133-.9v-1.579a3.208,3.208,0,0,0-.133-.933,2.339,2.339,0,0,0-.4-.779,1.846,1.846,0,0,0-.687-.533,2.294,2.294,0,0,0-.974-.195,2.225,2.225,0,0,0-.964.195,1.962,1.962,0,0,0-.687.533,2.24,2.24,0,0,0-.41.779,3.208,3.208,0,0,0-.133.933ZM64.682-7.321A6.755,6.755,0,0,1,65.1-9.7a5.4,5.4,0,0,1,1.251-1.958,6.007,6.007,0,0,1,2.082-1.323,7.862,7.862,0,0,1,2.892-.492,8.068,8.068,0,0,1,2.943.492,5.882,5.882,0,0,1,2.082,1.323A5.355,5.355,0,0,1,77.581-9.7a6.907,6.907,0,0,1,.41,2.379v1.579a6.881,6.881,0,0,1-.41,2.389A5.371,5.371,0,0,1,76.351-1.4,5.916,5.916,0,0,1,74.29-.082,7.9,7.9,0,0,1,71.367.41a7.923,7.923,0,0,1-2.912-.492A6.119,6.119,0,0,1,66.363-1.4,5.355,5.355,0,0,1,65.1-3.353a6.73,6.73,0,0,1-.42-2.389Zm4.43,1.579a2.461,2.461,0,0,0,.174.913,2.53,2.53,0,0,0,.482.779,2.288,2.288,0,0,0,.718.533,2.029,2.029,0,0,0,.882.195A2.762,2.762,0,0,0,72.5-3.517a1.585,1.585,0,0,0,.667-.533,1.868,1.868,0,0,0,.308-.779,5.673,5.673,0,0,0,.072-.913V-7.321a3.136,3.136,0,0,0-.133-.913A2.24,2.24,0,0,0,73-9.013a1.939,1.939,0,0,0-.7-.533,2.294,2.294,0,0,0-.974-.195,2.294,2.294,0,0,0-.974.195,1.939,1.939,0,0,0-.7.533,2.24,2.24,0,0,0-.41.779,3.136,3.136,0,0,0-.133.913ZM58.488-2.235l-3.22-1.62L69.85-27.193l3.22,1.62Z" transform="translate(392.876 6544.681)" fill="#fff"/><path d="M9.258-1.384A3.662,3.662,0,0,1,8.789-.9a3.407,3.407,0,0,1-.773.5,5.491,5.491,0,0,1-1.135.388A6.793,6.793,0,0,1,5.325.146,4.806,4.806,0,0,1,3.483-.2a3.992,3.992,0,0,1-1.439-1A4.55,4.55,0,0,1,1.11-2.8,6.567,6.567,0,0,1,.776-4.973v-.7a7.239,7.239,0,0,1,.3-2.172,4.545,4.545,0,0,1,.864-1.615,3.668,3.668,0,0,1,1.377-1,4.694,4.694,0,0,1,1.846-.344,5.166,5.166,0,0,1,1.7.253,3.5,3.5,0,0,1,1.223.707,3.3,3.3,0,0,1,.784,1.08A4.73,4.73,0,0,1,9.25-7.4H7.434a3.128,3.128,0,0,0-.22-.769,1.872,1.872,0,0,0-.421-.608,1.9,1.9,0,0,0-.659-.4A2.669,2.669,0,0,0,5.2-9.324a2.486,2.486,0,0,0-1.132.242,2.108,2.108,0,0,0-.8.707,3.344,3.344,0,0,0-.476,1.143,6.839,6.839,0,0,0-.157,1.542v.718a5.767,5.767,0,0,0,.19,1.556,3.318,3.318,0,0,0,.546,1.139,2.353,2.353,0,0,0,.864.7,2.657,2.657,0,0,0,1.154.242A4.614,4.614,0,0,0,6.207-1.4a2.958,2.958,0,0,0,.575-.157,1.7,1.7,0,0,0,.385-.209,1.9,1.9,0,0,0,.245-.216V-4.065h-2.2V-5.471H9.258ZM14.612.146A4.078,4.078,0,0,1,13.03-.146a3.483,3.483,0,0,1-1.194-.806,3.526,3.526,0,0,1-.754-1.216,4.283,4.283,0,0,1-.264-1.516v-.293a4.891,4.891,0,0,1,.278-1.7,3.871,3.871,0,0,1,.762-1.289A3.357,3.357,0,0,1,13-7.782a3.453,3.453,0,0,1,1.41-.289,3.6,3.6,0,0,1,1.5.289,2.829,2.829,0,0,1,1.055.809,3.477,3.477,0,0,1,.623,1.238,5.717,5.717,0,0,1,.205,1.575V-3.4H12.612a2.846,2.846,0,0,0,.194.85,2.088,2.088,0,0,0,.428.67,1.97,1.97,0,0,0,.641.443,2.08,2.08,0,0,0,.839.161,2.373,2.373,0,0,0,1.146-.264,2.686,2.686,0,0,0,.846-.725l.959.916a3.252,3.252,0,0,1-.472.553,3.213,3.213,0,0,1-.659.476,3.792,3.792,0,0,1-.853.337A4.116,4.116,0,0,1,14.612.146ZM14.4-6.643a1.5,1.5,0,0,0-1.183.513A2.657,2.657,0,0,0,12.642-4.7h3.391v-.132a3.247,3.247,0,0,0-.114-.677,1.727,1.727,0,0,0-.282-.579,1.363,1.363,0,0,0-.494-.4A1.667,1.667,0,0,0,14.4-6.643Zm6.423-1.282.051.916a2.9,2.9,0,0,1,1-.784,3,3,0,0,1,1.3-.278,3.218,3.218,0,0,1,1.036.157,1.912,1.912,0,0,1,.795.509,2.363,2.363,0,0,1,.509.916A4.556,4.556,0,0,1,25.7-5.12V0h-1.78V-5.134a2.264,2.264,0,0,0-.092-.692,1.126,1.126,0,0,0-.267-.458,1.008,1.008,0,0,0-.436-.253,2.108,2.108,0,0,0-.6-.077,1.717,1.717,0,0,0-.956.264,1.917,1.917,0,0,0-.648.71V0h-1.78V-7.925ZM33.164-1.479h5.7V0H30.923V-1.2L36.438-9.17H30.959v-1.494h7.727v1.172Z" transform="translate(749.876 6445.681)" fill="#d5f2ff"/><path d="M3.486-10.664,6.563-2.49l3.069-8.174h2.4V0H10.181V-3.516l.183-4.7L7.214,0H5.889L2.747-8.21,2.93-3.516V0H1.084V-10.664ZM15.938,0h-1.78V-7.925h1.78Zm-1.89-9.983a.945.945,0,0,1,.26-.681.982.982,0,0,1,.743-.271,1,1,0,0,1,.747.271.937.937,0,0,1,.264.681.916.916,0,0,1-.264.67,1,1,0,0,1-.747.267.99.99,0,0,1-.743-.267A.923.923,0,0,1,14.048-9.983ZM19.768,0h-1.78V-11.25h1.78ZM23.6,0h-1.78V-11.25H23.6Zm5.427.146a4.078,4.078,0,0,1-1.582-.293A3.483,3.483,0,0,1,26.25-.952,3.526,3.526,0,0,1,25.5-2.168a4.283,4.283,0,0,1-.264-1.516v-.293a4.891,4.891,0,0,1,.278-1.7,3.871,3.871,0,0,1,.762-1.289,3.357,3.357,0,0,1,1.139-.82,3.453,3.453,0,0,1,1.41-.289,3.6,3.6,0,0,1,1.5.289,2.829,2.829,0,0,1,1.055.809A3.477,3.477,0,0,1,32-5.735,5.717,5.717,0,0,1,32.2-4.16V-3.4H27.026a2.846,2.846,0,0,0,.194.85,2.088,2.088,0,0,0,.428.67,1.97,1.97,0,0,0,.641.443,2.08,2.08,0,0,0,.839.161,2.373,2.373,0,0,0,1.146-.264,2.686,2.686,0,0,0,.846-.725l.959.916a3.252,3.252,0,0,1-.472.553,3.213,3.213,0,0,1-.659.476A3.792,3.792,0,0,1,30.1.018,4.116,4.116,0,0,1,29.026.146Zm-.212-6.79a1.5,1.5,0,0,0-1.183.513A2.657,2.657,0,0,0,27.056-4.7h3.391v-.132a3.247,3.247,0,0,0-.114-.677,1.727,1.727,0,0,0-.282-.579,1.363,1.363,0,0,0-.494-.4A1.667,1.667,0,0,0,28.813-6.643Zm6.423-1.282.051.916a2.9,2.9,0,0,1,1-.784,3,3,0,0,1,1.3-.278,3.218,3.218,0,0,1,1.036.157,1.912,1.912,0,0,1,.795.509,2.363,2.363,0,0,1,.509.916,4.556,4.556,0,0,1,.179,1.37V0h-1.78V-5.134a2.264,2.264,0,0,0-.092-.692,1.126,1.126,0,0,0-.267-.458,1.008,1.008,0,0,0-.436-.253,2.108,2.108,0,0,0-.6-.077,1.717,1.717,0,0,0-.956.264,1.917,1.917,0,0,0-.648.71V0H33.56V-7.925ZM43.821,0h-1.78V-7.925h1.78Zm-1.89-9.983a.945.945,0,0,1,.26-.681.982.982,0,0,1,.743-.271,1,1,0,0,1,.747.271.937.937,0,0,1,.264.681.916.916,0,0,1-.264.67,1,1,0,0,1-.747.267.99.99,0,0,1-.743-.267A.923.923,0,0,1,41.931-9.983ZM50.493,0a1.478,1.478,0,0,1-.121-.33q-.048-.19-.084-.41A3.161,3.161,0,0,1,49.9-.4a2.69,2.69,0,0,1-.476.282,2.835,2.835,0,0,1-.564.19,2.9,2.9,0,0,1-.648.07,3.2,3.2,0,0,1-1.091-.179,2.562,2.562,0,0,1-.853-.5,2.308,2.308,0,0,1-.557-.751,2.191,2.191,0,0,1-.2-.937,2.521,2.521,0,0,1,.242-1.128,2.182,2.182,0,0,1,.7-.82,3.372,3.372,0,0,1,1.132-.5,6.158,6.158,0,0,1,1.527-.172h1.121v-.52a1.388,1.388,0,0,0-.344-.985,1.365,1.365,0,0,0-1.047-.37,1.823,1.823,0,0,0-.571.084,1.388,1.388,0,0,0-.436.227,1.008,1.008,0,0,0-.278.341.937.937,0,0,0-.1.425h-1.78a1.909,1.909,0,0,1,.231-.9,2.486,2.486,0,0,1,.656-.776,3.349,3.349,0,0,1,1.029-.546,4.188,4.188,0,0,1,1.351-.205,4.2,4.2,0,0,1,1.23.172,2.771,2.771,0,0,1,.974.513,2.309,2.309,0,0,1,.637.85,2.9,2.9,0,0,1,.227,1.19v3.516a4.051,4.051,0,0,0,.3,1.707V0ZM48.538-1.282a1.983,1.983,0,0,0,.575-.081,2.07,2.07,0,0,0,.483-.212,1.79,1.79,0,0,0,.377-.3,1.694,1.694,0,0,0,.256-.348V-3.721H49.27a2.624,2.624,0,0,0-1.487.344,1.115,1.115,0,0,0-.5.974,1.211,1.211,0,0,0,.081.447.959.959,0,0,0,.242.355A1.14,1.14,0,0,0,48-1.366,1.568,1.568,0,0,0,48.538-1.282ZM55.767,0h-1.78V-11.25h1.78Zm6.379-2.153a1,1,0,0,0-.062-.355.725.725,0,0,0-.245-.308,1.97,1.97,0,0,0-.516-.267,6,6,0,0,0-.868-.234,7.713,7.713,0,0,1-1.161-.33,3.578,3.578,0,0,1-.9-.48,2.081,2.081,0,0,1-.582-.663,1.8,1.8,0,0,1-.209-.879,2.072,2.072,0,0,1,.212-.919,2.287,2.287,0,0,1,.612-.765,3.052,3.052,0,0,1,.967-.524,3.912,3.912,0,0,1,1.271-.194A4.24,4.24,0,0,1,62-7.877a3.028,3.028,0,0,1,1,.535,2.305,2.305,0,0,1,.626.8,2.32,2.32,0,0,1,.216,1h-1.78a1.166,1.166,0,0,0-.088-.443,1.106,1.106,0,0,0-.264-.385,1.276,1.276,0,0,0-.436-.267,1.7,1.7,0,0,0-.6-.1,1.832,1.832,0,0,0-.586.084,1.3,1.3,0,0,0-.414.22.864.864,0,0,0-.245.315.911.911,0,0,0-.081.377.808.808,0,0,0,.073.352.714.714,0,0,0,.26.278,2.16,2.16,0,0,0,.5.231,7.432,7.432,0,0,0,.791.209,9.342,9.342,0,0,1,1.234.344,3.488,3.488,0,0,1,.923.483,1.956,1.956,0,0,1,.575.674,2.01,2.01,0,0,1,.2.923,2.075,2.075,0,0,1-.227.967,2.228,2.228,0,0,1-.648.758,3.145,3.145,0,0,1-1.014.494,4.631,4.631,0,0,1-1.318.176,4.149,4.149,0,0,1-1.439-.231,3.3,3.3,0,0,1-1.051-.6,2.518,2.518,0,0,1-.641-.846,2.294,2.294,0,0,1-.216-.963H59.07a1.361,1.361,0,0,0,.168.615,1.234,1.234,0,0,0,.374.4,1.566,1.566,0,0,0,.513.223,2.467,2.467,0,0,0,.586.07,1.8,1.8,0,0,0,1.069-.267A.827.827,0,0,0,62.146-2.153Z" transform="translate(616.876 6461.681)" fill="#badff0"/><path d="M1.084,0V-10.664H4.739a6.416,6.416,0,0,1,1.553.172,3.275,3.275,0,0,1,1.165.524,2.3,2.3,0,0,1,.729.9,3.053,3.053,0,0,1,.253,1.293,2.3,2.3,0,0,1-.4,1.318,2.546,2.546,0,0,1-1.157.908,2.544,2.544,0,0,1,.8.363,2.237,2.237,0,0,1,.564.56,2.371,2.371,0,0,1,.333.71,2.944,2.944,0,0,1,.11.806,3.37,3.37,0,0,1-.253,1.351,2.547,2.547,0,0,1-.732.974A3.234,3.234,0,0,1,6.544-.2,5.585,5.585,0,0,1,5,0ZM2.937-4.812v3.333H5A2.511,2.511,0,0,0,5.8-1.6a1.6,1.6,0,0,0,.582-.333,1.37,1.37,0,0,0,.352-.516,1.819,1.819,0,0,0,.117-.667,1.769,1.769,0,0,0-.417-1.245,1.765,1.765,0,0,0-1.355-.454Zm0-1.362H4.753A2.1,2.1,0,0,0,6.1-6.566a1.343,1.343,0,0,0,.487-1.11,1.361,1.361,0,0,0-.45-1.143,2.275,2.275,0,0,0-1.4-.352h-1.8Zm7.1,2.139a4.9,4.9,0,0,1,.253-1.6,3.8,3.8,0,0,1,.725-1.278,3.323,3.323,0,0,1,1.154-.85,3.716,3.716,0,0,1,1.545-.308,3.786,3.786,0,0,1,1.56.308,3.306,3.306,0,0,1,1.161.85,3.749,3.749,0,0,1,.721,1.278,4.965,4.965,0,0,1,.249,1.6v.154a5,5,0,0,1-.249,1.6A3.7,3.7,0,0,1,16.439-1a3.3,3.3,0,0,1-1.157.842,3.78,3.78,0,0,1-1.549.3,3.8,3.8,0,0,1-1.556-.3A3.3,3.3,0,0,1,11.019-1a3.751,3.751,0,0,1-.725-1.278,4.932,4.932,0,0,1-.253-1.6Zm1.78.154a4.485,4.485,0,0,0,.11,1.011,2.527,2.527,0,0,0,.344.831,1.724,1.724,0,0,0,.6.56,1.72,1.72,0,0,0,.861.205,1.7,1.7,0,0,0,.853-.205,1.692,1.692,0,0,0,.593-.56,2.636,2.636,0,0,0,.344-.831,4.346,4.346,0,0,0,.114-1.011v-.154a4.267,4.267,0,0,0-.114-1,2.587,2.587,0,0,0-.348-.828,1.793,1.793,0,0,0-.6-.568,1.673,1.673,0,0,0-.861-.212,1.633,1.633,0,0,0-.853.212,1.817,1.817,0,0,0-.59.568,2.529,2.529,0,0,0-.344.828,4.4,4.4,0,0,0-.11,1Zm6.76-.154a4.9,4.9,0,0,1,.253-1.6,3.8,3.8,0,0,1,.725-1.278,3.323,3.323,0,0,1,1.154-.85,3.716,3.716,0,0,1,1.545-.308,3.786,3.786,0,0,1,1.56.308,3.306,3.306,0,0,1,1.161.85A3.749,3.749,0,0,1,25.7-5.636a4.965,4.965,0,0,1,.249,1.6v.154a5,5,0,0,1-.249,1.6A3.7,3.7,0,0,1,24.979-1a3.3,3.3,0,0,1-1.157.842,3.78,3.78,0,0,1-1.549.3,3.8,3.8,0,0,1-1.556-.3A3.3,3.3,0,0,1,19.559-1a3.751,3.751,0,0,1-.725-1.278,4.932,4.932,0,0,1-.253-1.6Zm1.78.154a4.485,4.485,0,0,0,.11,1.011,2.527,2.527,0,0,0,.344.831,1.724,1.724,0,0,0,.6.56,1.72,1.72,0,0,0,.861.205,1.7,1.7,0,0,0,.853-.205,1.692,1.692,0,0,0,.593-.56,2.636,2.636,0,0,0,.344-.831,4.346,4.346,0,0,0,.114-1.011v-.154a4.267,4.267,0,0,0-.114-1,2.587,2.587,0,0,0-.348-.828,1.793,1.793,0,0,0-.6-.568,1.673,1.673,0,0,0-.861-.212,1.633,1.633,0,0,0-.853.212,1.817,1.817,0,0,0-.59.568,2.529,2.529,0,0,0-.344.828,4.4,4.4,0,0,0-.11,1Zm8.767-4.043.051.828a2.732,2.732,0,0,1,.963-.718,3.185,3.185,0,0,1,1.322-.256,2.829,2.829,0,0,1,1.3.289,1.946,1.946,0,0,1,.879.927,2.933,2.933,0,0,1,1-.886,2.947,2.947,0,0,1,1.432-.33,3.4,3.4,0,0,1,1.1.165,1.972,1.972,0,0,1,.817.52,2.374,2.374,0,0,1,.513.912,4.4,4.4,0,0,1,.179,1.34V0H36.9V-5.142a2.215,2.215,0,0,0-.1-.721,1.068,1.068,0,0,0-.286-.45,1.035,1.035,0,0,0-.447-.234,2.406,2.406,0,0,0-.59-.066,1.482,1.482,0,0,0-.992.326,1.719,1.719,0,0,0-.538.853q0,.037,0,.077t0,.077V0h-1.78V-5.12a2.168,2.168,0,0,0-.1-.7,1.125,1.125,0,0,0-.286-.461,1.092,1.092,0,0,0-.45-.253,2.118,2.118,0,0,0-.593-.077,1.73,1.73,0,0,0-.941.234,1.6,1.6,0,0,0-.575.637V0h-1.78V-7.925ZM44,.146a4.078,4.078,0,0,1-1.582-.293,3.483,3.483,0,0,1-1.194-.806,3.526,3.526,0,0,1-.754-1.216A4.283,4.283,0,0,1,40.2-3.684v-.293a4.891,4.891,0,0,1,.278-1.7,3.871,3.871,0,0,1,.762-1.289,3.357,3.357,0,0,1,1.139-.82,3.453,3.453,0,0,1,1.41-.289,3.6,3.6,0,0,1,1.5.289,2.829,2.829,0,0,1,1.055.809,3.477,3.477,0,0,1,.623,1.238,5.717,5.717,0,0,1,.205,1.575V-3.4H42a2.846,2.846,0,0,0,.194.85,2.088,2.088,0,0,0,.428.67,1.97,1.97,0,0,0,.641.443,2.08,2.08,0,0,0,.839.161,2.373,2.373,0,0,0,1.146-.264,2.686,2.686,0,0,0,.846-.725l.959.916a3.252,3.252,0,0,1-.472.553,3.213,3.213,0,0,1-.659.476,3.792,3.792,0,0,1-.853.337A4.116,4.116,0,0,1,44,.146Zm-.212-6.79A1.5,1.5,0,0,0,42.6-6.13,2.657,2.657,0,0,0,42.026-4.7h3.391v-.132a3.247,3.247,0,0,0-.114-.677,1.727,1.727,0,0,0-.282-.579,1.363,1.363,0,0,0-.494-.4A1.667,1.667,0,0,0,43.784-6.643Zm8.921.344q-.176-.029-.355-.044t-.37-.015a1.968,1.968,0,0,0-1.047.249,1.527,1.527,0,0,0-.6.688V0h-1.78V-7.925h1.7l.044.886a2.3,2.3,0,0,1,.743-.758,1.941,1.941,0,0,1,1.044-.275,2.1,2.1,0,0,1,.348.033,1.413,1.413,0,0,1,.282.07Zm5.566,4.146a1,1,0,0,0-.062-.355.725.725,0,0,0-.245-.308,1.97,1.97,0,0,0-.516-.267,6,6,0,0,0-.868-.234,7.713,7.713,0,0,1-1.161-.33,3.578,3.578,0,0,1-.9-.48,2.081,2.081,0,0,1-.582-.663,1.8,1.8,0,0,1-.209-.879,2.072,2.072,0,0,1,.212-.919,2.287,2.287,0,0,1,.612-.765,3.052,3.052,0,0,1,.967-.524,3.912,3.912,0,0,1,1.271-.194,4.24,4.24,0,0,1,1.329.194,3.028,3.028,0,0,1,1,.535,2.305,2.305,0,0,1,.626.8,2.32,2.32,0,0,1,.216,1h-1.78a1.166,1.166,0,0,0-.088-.443,1.106,1.106,0,0,0-.264-.385,1.276,1.276,0,0,0-.436-.267,1.7,1.7,0,0,0-.6-.1,1.832,1.832,0,0,0-.586.084,1.3,1.3,0,0,0-.414.22.864.864,0,0,0-.245.315.911.911,0,0,0-.081.377.808.808,0,0,0,.073.352.714.714,0,0,0,.26.278,2.16,2.16,0,0,0,.5.231,7.432,7.432,0,0,0,.791.209,9.342,9.342,0,0,1,1.234.344,3.488,3.488,0,0,1,.923.483,1.956,1.956,0,0,1,.575.674,2.01,2.01,0,0,1,.2.923,2.075,2.075,0,0,1-.227.967,2.228,2.228,0,0,1-.648.758,3.145,3.145,0,0,1-1.014.494,4.631,4.631,0,0,1-1.318.176,4.149,4.149,0,0,1-1.439-.231,3.3,3.3,0,0,1-1.051-.6,2.518,2.518,0,0,1-.641-.846,2.294,2.294,0,0,1-.216-.963H55.2a1.361,1.361,0,0,0,.168.615,1.234,1.234,0,0,0,.374.4,1.566,1.566,0,0,0,.513.223,2.467,2.467,0,0,0,.586.07,1.8,1.8,0,0,0,1.069-.267A.827.827,0,0,0,58.271-2.153Z" transform="translate(392.876 6490.681)" fill="#eca249"/><path d="M5.618,0H3.845V-8.562L1.23-7.668v-1.5L5.391-10.7h.227Zm5.273-1.428a4.812,4.812,0,0,0,1.6-.231A2.75,2.75,0,0,0,13.542-2.3a2.5,2.5,0,0,0,.593-.963,4.68,4.68,0,0,0,.234-1.2,3.239,3.239,0,0,1-.934.685,2.588,2.588,0,0,1-1.154.26,2.957,2.957,0,0,1-1.359-.293A2.82,2.82,0,0,1,9.965-4.6a3.351,3.351,0,0,1-.571-1.143A4.856,4.856,0,0,1,9.207-7.09a4.457,4.457,0,0,1,.231-1.447,3.5,3.5,0,0,1,.67-1.183,3.141,3.141,0,0,1,1.08-.8,3.5,3.5,0,0,1,1.469-.293,3.227,3.227,0,0,1,1.534.348,3.194,3.194,0,0,1,1.091.941,4.226,4.226,0,0,1,.656,1.381,6.172,6.172,0,0,1,.22,1.666V-5.9a10.977,10.977,0,0,1-.1,1.509,6.74,6.74,0,0,1-.344,1.4,5.148,5.148,0,0,1-.637,1.216,3.93,3.93,0,0,1-.978.959,4.649,4.649,0,0,1-1.373.63A6.628,6.628,0,0,1,10.9.044h-.146V-1.428Zm1.765-3.479A1.726,1.726,0,0,0,13.206-5a1.93,1.93,0,0,0,.487-.242,1.956,1.956,0,0,0,.4-.366,2.17,2.17,0,0,0,.293-.461v-.7a4.145,4.145,0,0,0-.139-1.128,2.6,2.6,0,0,0-.377-.82,1.637,1.637,0,0,0-.553-.5,1.393,1.393,0,0,0-.667-.168,1.448,1.448,0,0,0-.718.176,1.572,1.572,0,0,0-.527.48,2.317,2.317,0,0,0-.326.71,3.214,3.214,0,0,0-.114.868,3.4,3.4,0,0,0,.1.842,2.235,2.235,0,0,0,.311.71,1.62,1.62,0,0,0,.527.494A1.458,1.458,0,0,0,12.656-4.907ZM23.87-3.8H25.2v1.428H23.87V0H22.09V-2.373H17.483l-.051-1.084,4.6-7.207H23.87Zm-4.57,0H22.09V-8.254l-.132.234Zm12.6-6.914v1.472H31.78A4.221,4.221,0,0,0,30.275-9a3.063,3.063,0,0,0-1.062.659,2.928,2.928,0,0,0-.663.978,4.378,4.378,0,0,0-.308,1.19,2.749,2.749,0,0,1,.967-.659,3.209,3.209,0,0,1,1.223-.227,2.91,2.91,0,0,1,1.351.3,2.733,2.733,0,0,1,.948.795,3.46,3.46,0,0,1,.557,1.143,4.854,4.854,0,0,1,.183,1.333,4.327,4.327,0,0,1-.231,1.432,3.335,3.335,0,0,1-.674,1.154,3.138,3.138,0,0,1-1.088.773,3.621,3.621,0,0,1-1.465.282,3.335,3.335,0,0,1-1.538-.341,3.372,3.372,0,0,1-1.124-.919,4.073,4.073,0,0,1-.692-1.333,5.327,5.327,0,0,1-.234-1.589v-.7a9.687,9.687,0,0,1,.121-1.542,6.688,6.688,0,0,1,.385-1.414,5.266,5.266,0,0,1,.681-1.219,4.263,4.263,0,0,1,1-.959,4.681,4.681,0,0,1,1.351-.626,6.183,6.183,0,0,1,1.732-.223Zm-1.912,5.09a1.83,1.83,0,0,0-.59.1,2.016,2.016,0,0,0-.513.256,1.865,1.865,0,0,0-.4.381,1.981,1.981,0,0,0-.275.469v.549a4.005,4.005,0,0,0,.143,1.124,2.52,2.52,0,0,0,.385.809,1.636,1.636,0,0,0,.564.487,1.491,1.491,0,0,0,.688.165,1.607,1.607,0,0,0,.721-.157,1.556,1.556,0,0,0,.542-.443,2.028,2.028,0,0,0,.341-.681,3.06,3.06,0,0,0,.117-.872,3.135,3.135,0,0,0-.11-.842,2.133,2.133,0,0,0-.326-.692,1.614,1.614,0,0,0-.538-.472A1.536,1.536,0,0,0,29.993-5.625Z" transform="translate(392.876 6731.681)" fill="#fff"/><path d="M-28.477,0h-1.772V-8.562l-2.615.894v-1.5L-28.7-10.7h.227ZM-23.2-1.428a4.812,4.812,0,0,0,1.6-.231A2.75,2.75,0,0,0-20.552-2.3a2.5,2.5,0,0,0,.593-.963,4.68,4.68,0,0,0,.234-1.2,3.239,3.239,0,0,1-.934.685,2.588,2.588,0,0,1-1.154.26,2.957,2.957,0,0,1-1.359-.293A2.82,2.82,0,0,1-24.13-4.6,3.351,3.351,0,0,1-24.7-5.739a4.856,4.856,0,0,1-.187-1.351,4.457,4.457,0,0,1,.231-1.447,3.5,3.5,0,0,1,.67-1.183,3.141,3.141,0,0,1,1.08-.8,3.5,3.5,0,0,1,1.469-.293,3.227,3.227,0,0,1,1.534.348,3.194,3.194,0,0,1,1.091.941,4.226,4.226,0,0,1,.656,1.381,6.172,6.172,0,0,1,.22,1.666V-5.9a10.977,10.977,0,0,1-.1,1.509,6.74,6.74,0,0,1-.344,1.4,5.148,5.148,0,0,1-.637,1.216A3.93,3.93,0,0,1-20-.813a4.649,4.649,0,0,1-1.373.63A6.628,6.628,0,0,1-23.2.044h-.146V-1.428Zm1.765-3.479A1.726,1.726,0,0,0-20.889-5a1.93,1.93,0,0,0,.487-.242A1.956,1.956,0,0,0-20-5.6a2.17,2.17,0,0,0,.293-.461v-.7a4.145,4.145,0,0,0-.139-1.128,2.6,2.6,0,0,0-.377-.82,1.637,1.637,0,0,0-.553-.5,1.393,1.393,0,0,0-.667-.168,1.448,1.448,0,0,0-.718.176,1.572,1.572,0,0,0-.527.48,2.317,2.317,0,0,0-.326.71,3.214,3.214,0,0,0-.114.868,3.4,3.4,0,0,0,.1.842,2.235,2.235,0,0,0,.311.71,1.62,1.62,0,0,0,.527.494A1.458,1.458,0,0,0-21.438-4.907Zm10.723-5.808v1.472h-.125A4.221,4.221,0,0,0-12.345-9a3.063,3.063,0,0,0-1.062.659,2.928,2.928,0,0,0-.663.978,4.378,4.378,0,0,0-.308,1.19,2.749,2.749,0,0,1,.967-.659,3.209,3.209,0,0,1,1.223-.227,2.91,2.91,0,0,1,1.351.3,2.733,2.733,0,0,1,.948.795,3.46,3.46,0,0,1,.557,1.143,4.854,4.854,0,0,1,.183,1.333,4.327,4.327,0,0,1-.231,1.432,3.335,3.335,0,0,1-.674,1.154,3.138,3.138,0,0,1-1.088.773A3.621,3.621,0,0,1-12.6.146a3.335,3.335,0,0,1-1.538-.341,3.372,3.372,0,0,1-1.124-.919,4.073,4.073,0,0,1-.692-1.333,5.327,5.327,0,0,1-.234-1.589v-.7a9.687,9.687,0,0,1,.121-1.542,6.688,6.688,0,0,1,.385-1.414,5.266,5.266,0,0,1,.681-1.219,4.263,4.263,0,0,1,1-.959,4.681,4.681,0,0,1,1.351-.626,6.183,6.183,0,0,1,1.732-.223Zm-1.912,5.09a1.83,1.83,0,0,0-.59.1,2.016,2.016,0,0,0-.513.256,1.865,1.865,0,0,0-.4.381,1.981,1.981,0,0,0-.275.469v.549a4.005,4.005,0,0,0,.143,1.124,2.52,2.52,0,0,0,.385.809,1.636,1.636,0,0,0,.564.487,1.491,1.491,0,0,0,.688.165,1.607,1.607,0,0,0,.721-.157,1.556,1.556,0,0,0,.542-.443,2.028,2.028,0,0,0,.341-.681,3.06,3.06,0,0,0,.117-.872,3.135,3.135,0,0,0-.11-.842,2.133,2.133,0,0,0-.326-.692,1.614,1.614,0,0,0-.538-.472A1.536,1.536,0,0,0-12.627-5.625ZM-1.707-3.8H-.381v1.428H-1.707V0h-1.78V-2.373H-8.093l-.051-1.084,4.6-7.207h1.838Zm-4.57,0h2.791V-8.254l-.132.234Z" transform="translate(523.876 6731.681)" fill="#fff"/><path d="M5.618,0H3.845V-8.562L1.23-7.668v-1.5L5.391-10.7h.227Zm5.273-1.428a4.812,4.812,0,0,0,1.6-.231A2.75,2.75,0,0,0,13.542-2.3a2.5,2.5,0,0,0,.593-.963,4.68,4.68,0,0,0,.234-1.2,3.239,3.239,0,0,1-.934.685,2.588,2.588,0,0,1-1.154.26,2.957,2.957,0,0,1-1.359-.293A2.82,2.82,0,0,1,9.965-4.6a3.351,3.351,0,0,1-.571-1.143A4.856,4.856,0,0,1,9.207-7.09a4.457,4.457,0,0,1,.231-1.447,3.5,3.5,0,0,1,.67-1.183,3.141,3.141,0,0,1,1.08-.8,3.5,3.5,0,0,1,1.469-.293,3.227,3.227,0,0,1,1.534.348,3.194,3.194,0,0,1,1.091.941,4.226,4.226,0,0,1,.656,1.381,6.172,6.172,0,0,1,.22,1.666V-5.9a10.977,10.977,0,0,1-.1,1.509,6.74,6.74,0,0,1-.344,1.4,5.148,5.148,0,0,1-.637,1.216,3.93,3.93,0,0,1-.978.959,4.649,4.649,0,0,1-1.373.63A6.628,6.628,0,0,1,10.9.044h-.146V-1.428Zm1.765-3.479A1.726,1.726,0,0,0,13.206-5a1.93,1.93,0,0,0,.487-.242,1.956,1.956,0,0,0,.4-.366,2.17,2.17,0,0,0,.293-.461v-.7a4.145,4.145,0,0,0-.139-1.128,2.6,2.6,0,0,0-.377-.82,1.637,1.637,0,0,0-.553-.5,1.393,1.393,0,0,0-.667-.168,1.448,1.448,0,0,0-.718.176,1.572,1.572,0,0,0-.527.48,2.317,2.317,0,0,0-.326.71,3.214,3.214,0,0,0-.114.868,3.4,3.4,0,0,0,.1.842,2.235,2.235,0,0,0,.311.71,1.62,1.62,0,0,0,.527.494A1.458,1.458,0,0,0,12.656-4.907ZM24.565-7.852a2.479,2.479,0,0,1-.4,1.4,2.794,2.794,0,0,1-1.1.963,3.436,3.436,0,0,1,.718.443,2.787,2.787,0,0,1,.549.59,2.629,2.629,0,0,1,.348.721,2.805,2.805,0,0,1,.121.831,3.09,3.09,0,0,1-.264,1.315,2.7,2.7,0,0,1-.732.956A3.2,3.2,0,0,1,22.7-.051a4.649,4.649,0,0,1-1.384.2,4.649,4.649,0,0,1-1.384-.2,3.238,3.238,0,0,1-1.11-.586,2.719,2.719,0,0,1-.74-.956,3.054,3.054,0,0,1-.267-1.315,2.805,2.805,0,0,1,.121-.831,2.692,2.692,0,0,1,.344-.721,2.781,2.781,0,0,1,.546-.593,3.142,3.142,0,0,1,.718-.439,2.778,2.778,0,0,1-1.088-.963,2.5,2.5,0,0,1-.4-1.4A3.127,3.127,0,0,1,18.3-9.115a2.6,2.6,0,0,1,.674-.93A2.914,2.914,0,0,1,20-10.616a4.208,4.208,0,0,1,1.307-.194,4.243,4.243,0,0,1,1.311.194,2.909,2.909,0,0,1,1.033.571,2.6,2.6,0,0,1,.674.93A3.127,3.127,0,0,1,24.565-7.852ZM23.02-3a2.007,2.007,0,0,0-.125-.721,1.62,1.62,0,0,0-.348-.557,1.547,1.547,0,0,0-.542-.359,1.878,1.878,0,0,0-.707-.128,1.87,1.87,0,0,0-.71.128,1.517,1.517,0,0,0-.535.359,1.6,1.6,0,0,0-.341.557A2.061,2.061,0,0,0,19.592-3a2.023,2.023,0,0,0,.121.721,1.515,1.515,0,0,0,.344.542,1.474,1.474,0,0,0,.542.341,2.057,2.057,0,0,0,.714.117,1.69,1.69,0,0,0,1.256-.454A1.721,1.721,0,0,0,23.02-3Zm-.227-4.79a1.879,1.879,0,0,0-.106-.645,1.527,1.527,0,0,0-.3-.505,1.294,1.294,0,0,0-.469-.33,1.57,1.57,0,0,0-.615-.117,1.393,1.393,0,0,0-1.077.428,1.655,1.655,0,0,0-.4,1.168,2,2,0,0,0,.1.656,1.434,1.434,0,0,0,.293.505,1.284,1.284,0,0,0,.465.322,1.607,1.607,0,0,0,.619.114,1.607,1.607,0,0,0,.619-.114,1.284,1.284,0,0,0,.465-.322,1.434,1.434,0,0,0,.293-.505A2,2,0,0,0,22.793-7.786ZM31.194,0H29.421V-8.562l-2.615.894v-1.5l4.16-1.531h.227Z" transform="translate(616.876 6731.681)" fill="#fff"/><rect width="131" height="135" transform="translate(392.876 6566.681)" fill="#eca249"/><path d="M-28.477,0h-1.772V-8.562l-2.615.894v-1.5L-28.7-10.7h.227ZM-23.2-1.428a4.812,4.812,0,0,0,1.6-.231A2.75,2.75,0,0,0-20.552-2.3a2.5,2.5,0,0,0,.593-.963,4.68,4.68,0,0,0,.234-1.2,3.239,3.239,0,0,1-.934.685,2.588,2.588,0,0,1-1.154.26,2.957,2.957,0,0,1-1.359-.293A2.82,2.82,0,0,1-24.13-4.6,3.351,3.351,0,0,1-24.7-5.739a4.856,4.856,0,0,1-.187-1.351,4.457,4.457,0,0,1,.231-1.447,3.5,3.5,0,0,1,.67-1.183,3.141,3.141,0,0,1,1.08-.8,3.5,3.5,0,0,1,1.469-.293,3.227,3.227,0,0,1,1.534.348,3.194,3.194,0,0,1,1.091.941,4.226,4.226,0,0,1,.656,1.381,6.172,6.172,0,0,1,.22,1.666V-5.9a10.977,10.977,0,0,1-.1,1.509,6.74,6.74,0,0,1-.344,1.4,5.148,5.148,0,0,1-.637,1.216A3.93,3.93,0,0,1-20-.813a4.649,4.649,0,0,1-1.373.63A6.628,6.628,0,0,1-23.2.044h-.146V-1.428Zm1.765-3.479A1.726,1.726,0,0,0-20.889-5a1.93,1.93,0,0,0,.487-.242A1.956,1.956,0,0,0-20-5.6a2.17,2.17,0,0,0,.293-.461v-.7a4.145,4.145,0,0,0-.139-1.128,2.6,2.6,0,0,0-.377-.82,1.637,1.637,0,0,0-.553-.5,1.393,1.393,0,0,0-.667-.168,1.448,1.448,0,0,0-.718.176,1.572,1.572,0,0,0-.527.48,2.317,2.317,0,0,0-.326.71,3.214,3.214,0,0,0-.114.868,3.4,3.4,0,0,0,.1.842,2.235,2.235,0,0,0,.311.71,1.62,1.62,0,0,0,.527.494A1.458,1.458,0,0,0-21.438-4.907Zm6.76,3.479a4.812,4.812,0,0,0,1.6-.231A2.75,2.75,0,0,0-12.026-2.3a2.5,2.5,0,0,0,.593-.963,4.68,4.68,0,0,0,.234-1.2,3.239,3.239,0,0,1-.934.685,2.588,2.588,0,0,1-1.154.26,2.957,2.957,0,0,1-1.359-.293A2.82,2.82,0,0,1-15.6-4.6a3.351,3.351,0,0,1-.571-1.143,4.856,4.856,0,0,1-.187-1.351,4.457,4.457,0,0,1,.231-1.447,3.5,3.5,0,0,1,.67-1.183,3.141,3.141,0,0,1,1.08-.8,3.5,3.5,0,0,1,1.469-.293,3.227,3.227,0,0,1,1.534.348,3.194,3.194,0,0,1,1.091.941,4.226,4.226,0,0,1,.656,1.381,6.172,6.172,0,0,1,.22,1.666V-5.9a10.977,10.977,0,0,1-.1,1.509,6.74,6.74,0,0,1-.344,1.4A5.148,5.148,0,0,1-10.5-1.772a3.93,3.93,0,0,1-.978.959,4.649,4.649,0,0,1-1.373.63A6.628,6.628,0,0,1-14.67.044h-.146V-1.428Zm1.765-3.479A1.726,1.726,0,0,0-12.363-5a1.93,1.93,0,0,0,.487-.242,1.956,1.956,0,0,0,.4-.366,2.17,2.17,0,0,0,.293-.461v-.7a4.145,4.145,0,0,0-.139-1.128,2.6,2.6,0,0,0-.377-.82,1.637,1.637,0,0,0-.553-.5,1.393,1.393,0,0,0-.667-.168,1.448,1.448,0,0,0-.718.176,1.572,1.572,0,0,0-.527.48,2.317,2.317,0,0,0-.326.71,3.214,3.214,0,0,0-.114.868,3.4,3.4,0,0,0,.1.842,2.235,2.235,0,0,0,.311.71,1.62,1.62,0,0,0,.527.494A1.458,1.458,0,0,0-12.913-4.907ZM-2.19-10.715v1.472h-.125A4.221,4.221,0,0,0-3.82-9a3.063,3.063,0,0,0-1.062.659,2.928,2.928,0,0,0-.663.978,4.378,4.378,0,0,0-.308,1.19,2.749,2.749,0,0,1,.967-.659,3.209,3.209,0,0,1,1.223-.227,2.91,2.91,0,0,1,1.351.3,2.733,2.733,0,0,1,.948.795A3.46,3.46,0,0,1-.806-4.827,4.854,4.854,0,0,1-.623-3.494,4.327,4.327,0,0,1-.853-2.062,3.335,3.335,0,0,1-1.527-.908a3.138,3.138,0,0,1-1.088.773A3.621,3.621,0,0,1-4.08.146,3.335,3.335,0,0,1-5.618-.194a3.372,3.372,0,0,1-1.124-.919,4.073,4.073,0,0,1-.692-1.333,5.327,5.327,0,0,1-.234-1.589v-.7a9.687,9.687,0,0,1,.121-1.542,6.688,6.688,0,0,1,.385-1.414,5.266,5.266,0,0,1,.681-1.219,4.263,4.263,0,0,1,1-.959,4.681,4.681,0,0,1,1.351-.626A6.183,6.183,0,0,1-2.4-10.715ZM-4.1-5.625a1.83,1.83,0,0,0-.59.1,2.016,2.016,0,0,0-.513.256,1.865,1.865,0,0,0-.4.381,1.981,1.981,0,0,0-.275.469v.549A4.005,4.005,0,0,0-5.739-2.75a2.52,2.52,0,0,0,.385.809,1.636,1.636,0,0,0,.564.487,1.491,1.491,0,0,0,.688.165,1.607,1.607,0,0,0,.721-.157,1.556,1.556,0,0,0,.542-.443A2.028,2.028,0,0,0-2.5-2.571a3.06,3.06,0,0,0,.117-.872,3.135,3.135,0,0,0-.11-.842,2.133,2.133,0,0,0-.326-.692,1.614,1.614,0,0,0-.538-.472A1.536,1.536,0,0,0-4.1-5.625Z" transform="translate(751.876 6731.681)" fill="#fff"/><rect width="133" height="164" transform="translate(616.876 6537.681)" fill="#badff0"/><rect width="137" height="179" transform="translate(749.876 6522.681)" fill="#d5f2ff"/><rect width="494" height="5" transform="translate(392.876 6701.681)" fill="#5f8393"/></g></svg>