<svg xmlns="http://www.w3.org/2000/svg" width="323" height="256.25" viewBox="0 0 323 256.25"><g transform="translate(-751 -5368.75)"><g transform="translate(0 -1131)"><circle cx="22.5" cy="22.5" r="22.5" transform="translate(771 6649)" fill="#fff"/><path d="M42.5,0,85,37H0Z" transform="translate(836 6667) rotate(180)" fill="#badff0"/><path d="M4.27,19a22.5,22.5,0,0,1,44.459,0Z" transform="translate(767 6648)" fill="#badff0"/><path d="M42,0h0A42,42,0,0,1,84,42V53a0,0,0,0,1,0,0H0a0,0,0,0,1,0,0V42A42,42,0,0,1,42,0Z" transform="translate(751 6703)" fill="#badff0"/><rect width="7" height="37" transform="translate(829 6630)" fill="#cb2f2f"/></g><g transform="translate(0 -1222)"><circle cx="16" cy="16" r="16" transform="translate(1028 6771)" fill="#fff"/><path d="M42,0h0A42,42,0,0,1,84,42V53a0,0,0,0,1,0,0H0a0,0,0,0,1,0,0V42A42,42,0,0,1,42,0Z" transform="translate(944 6794)" fill="#eca249"/><path d="M30,0h0A30,30,0,0,1,60,30v8a0,0,0,0,1,0,0H0a0,0,0,0,1,0,0V30A30,30,0,0,1,30,0Z" transform="translate(1014 6809)" fill="#badff0"/><path d="M4.123,19a16,16,0,0,1,28.369-8A18.976,18.976,0,0,1,17,19Z" transform="translate(1024 6766)" fill="#badff0"/><circle cx="22" cy="22" r="22" transform="translate(965 6740)" fill="#fff"/><path d="M0,19.249a22,22,0,0,1,40.483-8.92,19.982,19.982,0,0,1-16.653,8.92Z" transform="translate(965.17 6740)" fill="#eca249"/></g><path d="M20.077-11.669h3.035v5.332H20.077V0H13.166V-6.337H1.62l-.41-4.225L13.166-29.8v-.062h6.911Zm-12.284,0h5.373v-9.187l-.431.7ZM42.841-30.29v5.435h-.369a12.539,12.539,0,0,0-3.333.431,8.85,8.85,0,0,0-2.8,1.3,7.935,7.935,0,0,0-2.082,2.184,8.179,8.179,0,0,0-1.159,3.1A8.209,8.209,0,0,1,35.612-19.5a8.468,8.468,0,0,1,3.394-.636,8.012,8.012,0,0,1,3.63.79,7.663,7.663,0,0,1,2.656,2.174,9.752,9.752,0,0,1,1.63,3.25,14.146,14.146,0,0,1,.554,4.04A10.508,10.508,0,0,1,46.7-5.814a9.96,9.96,0,0,1-2.164,3.261,9.988,9.988,0,0,1-3.3,2.174,10.91,10.91,0,0,1-4.194.79A11.655,11.655,0,0,1,32.659-.4a9.824,9.824,0,0,1-3.5-2.358,10.905,10.905,0,0,1-2.307-3.784,14.472,14.472,0,0,1-.831-5.065V-14.13a18.322,18.322,0,0,1,.584-4.748,16.148,16.148,0,0,1,1.63-3.979,14.276,14.276,0,0,1,2.5-3.179,14.96,14.96,0,0,1,3.2-2.328A15.8,15.8,0,0,1,37.663-29.8a16.8,16.8,0,0,1,4.071-.492ZM36.606-14.848a3.954,3.954,0,0,0-2.3.636,4.036,4.036,0,0,0-1.374,1.559v2.071a7.377,7.377,0,0,0,.995,4.276,3.37,3.37,0,0,0,2.922,1.384A2.969,2.969,0,0,0,38.329-5.3,3.691,3.691,0,0,0,39.5-6.347a5.168,5.168,0,0,0,.769-1.569,6.685,6.685,0,0,0,.277-1.969,6.736,6.736,0,0,0-.3-2.071,4.809,4.809,0,0,0-.82-1.569,3.509,3.509,0,0,0-1.241-.984A3.656,3.656,0,0,0,36.606-14.848Zm13.884-9.27a6.73,6.73,0,0,1,.42-2.389,5.52,5.52,0,0,1,1.251-1.958A5.93,5.93,0,0,1,54.243-29.8a7.862,7.862,0,0,1,2.892-.492,7.986,7.986,0,0,1,2.933.492,5.823,5.823,0,0,1,2.071,1.333,5.47,5.47,0,0,1,1.23,1.958,6.881,6.881,0,0,1,.41,2.389v1.579a6.821,6.821,0,0,1-.41,2.369,5.371,5.371,0,0,1-1.23,1.948A5.916,5.916,0,0,1,60.078-16.9a7.842,7.842,0,0,1-2.9.492,7.923,7.923,0,0,1-2.912-.492,6.119,6.119,0,0,1-2.092-1.323,5.355,5.355,0,0,1-1.261-1.948,6.672,6.672,0,0,1-.42-2.369Zm4.45,1.579a3.034,3.034,0,0,0,.133.9,2.254,2.254,0,0,0,.41.769,1.939,1.939,0,0,0,.7.533,2.347,2.347,0,0,0,.995.195,2.225,2.225,0,0,0,.964-.195,1.775,1.775,0,0,0,.667-.533,2.472,2.472,0,0,0,.39-.769,3.034,3.034,0,0,0,.133-.9v-1.579a3.208,3.208,0,0,0-.133-.933,2.339,2.339,0,0,0-.4-.779,1.846,1.846,0,0,0-.687-.533,2.294,2.294,0,0,0-.974-.195,2.225,2.225,0,0,0-.964.195,1.962,1.962,0,0,0-.687.533,2.24,2.24,0,0,0-.41.779,3.208,3.208,0,0,0-.133.933ZM64.682-7.321A6.755,6.755,0,0,1,65.1-9.7a5.4,5.4,0,0,1,1.251-1.958,6.007,6.007,0,0,1,2.082-1.323,7.862,7.862,0,0,1,2.892-.492,8.068,8.068,0,0,1,2.943.492,5.882,5.882,0,0,1,2.082,1.323A5.355,5.355,0,0,1,77.581-9.7a6.907,6.907,0,0,1,.41,2.379v1.579a6.881,6.881,0,0,1-.41,2.389A5.371,5.371,0,0,1,76.351-1.4,5.916,5.916,0,0,1,74.29-.082,7.9,7.9,0,0,1,71.367.41a7.923,7.923,0,0,1-2.912-.492A6.119,6.119,0,0,1,66.363-1.4,5.355,5.355,0,0,1,65.1-3.353a6.73,6.73,0,0,1-.42-2.389Zm4.43,1.579a2.461,2.461,0,0,0,.174.913,2.53,2.53,0,0,0,.482.779,2.288,2.288,0,0,0,.718.533,2.029,2.029,0,0,0,.882.195A2.762,2.762,0,0,0,72.5-3.517a1.585,1.585,0,0,0,.667-.533,1.868,1.868,0,0,0,.308-.779,5.673,5.673,0,0,0,.072-.913V-7.321a3.136,3.136,0,0,0-.133-.913A2.24,2.24,0,0,0,73-9.013a1.939,1.939,0,0,0-.7-.533,2.294,2.294,0,0,0-.974-.195,2.294,2.294,0,0,0-.974.195,1.939,1.939,0,0,0-.7.533,2.24,2.24,0,0,0-.41.779,3.136,3.136,0,0,0-.133.913ZM58.488-2.235l-3.22-1.62L69.85-27.193l3.22,1.62Z" transform="translate(751 5434)" fill="#fff"/><path d="M22.661,0H1.825V-4.512l9.6-10.09a20.74,20.74,0,0,0,2.728-3.722,5.957,5.957,0,0,0,.82-2.7,4.465,4.465,0,0,0-.841-2.933,3,3,0,0,0-2.44-1,2.984,2.984,0,0,0-1.456.359,3.369,3.369,0,0,0-1.118.995A4.927,4.927,0,0,0,8.4-22.118a6.411,6.411,0,0,0-.256,1.856H1.21a9.88,9.88,0,0,1,.769-3.876,9.7,9.7,0,0,1,2.174-3.2A10.2,10.2,0,0,1,7.516-29.5a11.5,11.5,0,0,1,4.337-.79,14.684,14.684,0,0,1,4.358.584,8.629,8.629,0,0,1,3.148,1.692A7.006,7.006,0,0,1,21.277-25.3a9.764,9.764,0,0,1,.646,3.661,9.077,9.077,0,0,1-.492,2.984,12.947,12.947,0,0,1-1.415,2.84A23.548,23.548,0,0,1,17.76-12.92q-1.333,1.477-2.994,3.138L10.91-5.332H22.661Zm3.9-14.6,1.825-15.258H45.835v5.373H34l-.677,5.927A6.393,6.393,0,0,1,34-18.888a9.8,9.8,0,0,1,1-.359,10.165,10.165,0,0,1,1.23-.287,8.1,8.1,0,0,1,1.374-.113,10.855,10.855,0,0,1,3.938.667,7.517,7.517,0,0,1,2.892,1.948,8.59,8.59,0,0,1,1.784,3.148,13.607,13.607,0,0,1,.615,4.266,11.318,11.318,0,0,1-.625,3.732,9.244,9.244,0,0,1-1.9,3.209A9.166,9.166,0,0,1,41.1-.431,11.587,11.587,0,0,1,36.483.41a12.585,12.585,0,0,1-3.907-.615A10.817,10.817,0,0,1,29.2-1.979a8.849,8.849,0,0,1-2.358-2.8,7.552,7.552,0,0,1-.861-3.712h6.932a3.933,3.933,0,0,0,1.046,2.6,3.316,3.316,0,0,0,2.481.964,3.236,3.236,0,0,0,1.7-.41A3.019,3.019,0,0,0,39.221-6.45,4.947,4.947,0,0,0,39.775-8.1a12.357,12.357,0,0,0,.154-1.989,7.4,7.4,0,0,0-.246-1.989,3.971,3.971,0,0,0-.759-1.5A3.384,3.384,0,0,0,37.6-14.53a5.015,5.015,0,0,0-1.938-.338,5.561,5.561,0,0,0-1.323.144,4.725,4.725,0,0,0-1.025.369,3.485,3.485,0,0,0-.749.5,4.129,4.129,0,0,0-.513.543ZM50.49-24.117a6.73,6.73,0,0,1,.42-2.389,5.52,5.52,0,0,1,1.251-1.958A5.93,5.93,0,0,1,54.243-29.8a7.862,7.862,0,0,1,2.892-.492,7.986,7.986,0,0,1,2.933.492,5.823,5.823,0,0,1,2.071,1.333,5.47,5.47,0,0,1,1.23,1.958,6.881,6.881,0,0,1,.41,2.389v1.579a6.821,6.821,0,0,1-.41,2.369,5.371,5.371,0,0,1-1.23,1.948A5.916,5.916,0,0,1,60.078-16.9a7.842,7.842,0,0,1-2.9.492,7.923,7.923,0,0,1-2.912-.492,6.119,6.119,0,0,1-2.092-1.323,5.355,5.355,0,0,1-1.261-1.948,6.672,6.672,0,0,1-.42-2.369Zm4.45,1.579a3.034,3.034,0,0,0,.133.9,2.254,2.254,0,0,0,.41.769,1.939,1.939,0,0,0,.7.533,2.347,2.347,0,0,0,.995.195,2.225,2.225,0,0,0,.964-.195,1.775,1.775,0,0,0,.667-.533,2.472,2.472,0,0,0,.39-.769,3.034,3.034,0,0,0,.133-.9v-1.579a3.208,3.208,0,0,0-.133-.933,2.339,2.339,0,0,0-.4-.779,1.846,1.846,0,0,0-.687-.533,2.294,2.294,0,0,0-.974-.195,2.225,2.225,0,0,0-.964.195,1.962,1.962,0,0,0-.687.533,2.24,2.24,0,0,0-.41.779,3.208,3.208,0,0,0-.133.933ZM64.682-7.321A6.755,6.755,0,0,1,65.1-9.7a5.4,5.4,0,0,1,1.251-1.958,6.007,6.007,0,0,1,2.082-1.323,7.862,7.862,0,0,1,2.892-.492,8.068,8.068,0,0,1,2.943.492,5.882,5.882,0,0,1,2.082,1.323A5.355,5.355,0,0,1,77.581-9.7a6.907,6.907,0,0,1,.41,2.379v1.579a6.881,6.881,0,0,1-.41,2.389A5.371,5.371,0,0,1,76.351-1.4,5.916,5.916,0,0,1,74.29-.082,7.9,7.9,0,0,1,71.367.41a7.923,7.923,0,0,1-2.912-.492A6.119,6.119,0,0,1,66.363-1.4,5.355,5.355,0,0,1,65.1-3.353a6.73,6.73,0,0,1-.42-2.389Zm4.43,1.579a2.461,2.461,0,0,0,.174.913,2.53,2.53,0,0,0,.482.779,2.288,2.288,0,0,0,.718.533,2.029,2.029,0,0,0,.882.195A2.762,2.762,0,0,0,72.5-3.517a1.585,1.585,0,0,0,.667-.533,1.868,1.868,0,0,0,.308-.779,5.673,5.673,0,0,0,.072-.913V-7.321a3.136,3.136,0,0,0-.133-.913A2.24,2.24,0,0,0,73-9.013a1.939,1.939,0,0,0-.7-.533,2.294,2.294,0,0,0-.974-.195,2.294,2.294,0,0,0-.974.195,1.939,1.939,0,0,0-.7.533,2.24,2.24,0,0,0-.41.779,3.136,3.136,0,0,0-.133.913ZM58.488-2.235l-3.22-1.62L69.85-27.193l3.22,1.62Z" transform="translate(944 5434)" fill="#fff"/><path d="M6.658-2.747a1.623,1.623,0,0,0-.1-.575,1.138,1.138,0,0,0-.348-.465,2.89,2.89,0,0,0-.7-.406A10.7,10.7,0,0,0,4.38-4.6a10.972,10.972,0,0,1-1.406-.52A4.857,4.857,0,0,1,1.864-5.8a2.916,2.916,0,0,1-.729-.894A2.465,2.465,0,0,1,.872-7.852a2.587,2.587,0,0,1,.275-1.187,2.812,2.812,0,0,1,.773-.937,3.68,3.68,0,0,1,1.194-.615,5.089,5.089,0,0,1,1.538-.22,4.73,4.73,0,0,1,1.619.26,3.624,3.624,0,0,1,1.212.707A3.081,3.081,0,0,1,8.24-8.807,3.042,3.042,0,0,1,8.5-7.551H6.658a2.039,2.039,0,0,0-.121-.714,1.483,1.483,0,0,0-.37-.564,1.7,1.7,0,0,0-.63-.37,2.76,2.76,0,0,0-.9-.132,2.918,2.918,0,0,0-.85.11,1.7,1.7,0,0,0-.6.308,1.214,1.214,0,0,0-.352.469,1.5,1.5,0,0,0-.114.586,1.175,1.175,0,0,0,.56.989A5.971,5.971,0,0,0,5-6.138a9.91,9.91,0,0,1,1.56.586,4.473,4.473,0,0,1,1.095.729,2.634,2.634,0,0,1,.648.916,2.951,2.951,0,0,1,.212,1.146,2.688,2.688,0,0,1-.267,1.212,2.589,2.589,0,0,1-.762.916,3.576,3.576,0,0,1-1.2.579,5.685,5.685,0,0,1-1.567.2A5.608,5.608,0,0,1,3.2-.062a4.287,4.287,0,0,1-1.34-.63A3.282,3.282,0,0,1,.9-1.743,2.914,2.914,0,0,1,.542-3.223H2.4a1.938,1.938,0,0,0,.179.868,1.62,1.62,0,0,0,.491.593,2.06,2.06,0,0,0,.736.337,3.767,3.767,0,0,0,.916.106A2.285,2.285,0,0,0,6.171-1.71,1.264,1.264,0,0,0,6.658-2.747Zm5.537-7.1v1.926h1.4v1.318h-1.4v4.424a1.366,1.366,0,0,0,.059.439.574.574,0,0,0,.168.26.6.6,0,0,0,.26.125,1.557,1.557,0,0,0,.333.033,2.409,2.409,0,0,0,.355-.026q.172-.026.267-.048V-.022q-.212.059-.494.114a3.6,3.6,0,0,1-.677.055,2.74,2.74,0,0,1-.817-.117A1.621,1.621,0,0,1,11-.352a1.771,1.771,0,0,1-.428-.688,3.074,3.074,0,0,1-.154-1.04V-6.606h-1.3V-7.925h1.3V-9.851ZM19.753-.776a2.529,2.529,0,0,1-.923.681,3.219,3.219,0,0,1-1.3.242,3.264,3.264,0,0,1-1.066-.165,2.063,2.063,0,0,1-.824-.52,2.4,2.4,0,0,1-.535-.916,4.2,4.2,0,0,1-.19-1.344V-7.925h1.78v5.142a2.116,2.116,0,0,0,.1.714,1.221,1.221,0,0,0,.275.454.952.952,0,0,0,.4.242,1.616,1.616,0,0,0,.476.07,2.186,2.186,0,0,0,1.113-.249,1.587,1.587,0,0,0,.637-.681V-7.925h1.78V0H19.8Zm3.2-3.245a5.918,5.918,0,0,1,.216-1.648,3.872,3.872,0,0,1,.623-1.282,2.835,2.835,0,0,1,.985-.828,2.845,2.845,0,0,1,1.3-.293,2.79,2.79,0,0,1,1.161.227,2.562,2.562,0,0,1,.875.652V-11.25H29.9V0H28.286L28.2-.82a2.663,2.663,0,0,1-.9.714,2.794,2.794,0,0,1-1.227.253,2.723,2.723,0,0,1-1.293-.3A2.925,2.925,0,0,1,23.8-1a3.983,3.983,0,0,1-.623-1.271,5.573,5.573,0,0,1-.22-1.6Zm1.78.154a4.766,4.766,0,0,0,.1.992,2.566,2.566,0,0,0,.315.817,1.619,1.619,0,0,0,.553.553,1.572,1.572,0,0,0,.82.2,1.688,1.688,0,0,0,.985-.267,1.914,1.914,0,0,0,.612-.707V-5.662a1.812,1.812,0,0,0-.615-.7,1.718,1.718,0,0,0-.967-.256,1.569,1.569,0,0,0-.824.205,1.641,1.641,0,0,0-.557.557,2.625,2.625,0,0,0-.319.824,4.741,4.741,0,0,0-.1,1.007ZM35.244.146a4.078,4.078,0,0,1-1.582-.293,3.483,3.483,0,0,1-1.194-.806,3.526,3.526,0,0,1-.754-1.216,4.283,4.283,0,0,1-.264-1.516v-.293a4.891,4.891,0,0,1,.278-1.7,3.871,3.871,0,0,1,.762-1.289,3.357,3.357,0,0,1,1.139-.82,3.453,3.453,0,0,1,1.41-.289,3.6,3.6,0,0,1,1.5.289,2.829,2.829,0,0,1,1.055.809,3.477,3.477,0,0,1,.623,1.238,5.717,5.717,0,0,1,.205,1.575V-3.4H33.245a2.846,2.846,0,0,0,.194.85,2.088,2.088,0,0,0,.428.67,1.97,1.97,0,0,0,.641.443,2.08,2.08,0,0,0,.839.161,2.373,2.373,0,0,0,1.146-.264,2.686,2.686,0,0,0,.846-.725l.959.916a3.252,3.252,0,0,1-.472.553,3.213,3.213,0,0,1-.659.476,3.792,3.792,0,0,1-.853.337A4.116,4.116,0,0,1,35.244.146Zm-.212-6.79a1.5,1.5,0,0,0-1.183.513A2.657,2.657,0,0,0,33.274-4.7h3.391v-.132a3.247,3.247,0,0,0-.114-.677,1.727,1.727,0,0,0-.282-.579,1.363,1.363,0,0,0-.494-.4A1.667,1.667,0,0,0,35.032-6.643Zm6.423-1.282.051.916a2.9,2.9,0,0,1,1-.784,3,3,0,0,1,1.3-.278,3.218,3.218,0,0,1,1.036.157,1.912,1.912,0,0,1,.795.509,2.363,2.363,0,0,1,.509.916,4.556,4.556,0,0,1,.179,1.37V0h-1.78V-5.134a2.264,2.264,0,0,0-.092-.692,1.126,1.126,0,0,0-.267-.458,1.008,1.008,0,0,0-.436-.253,2.108,2.108,0,0,0-.6-.077,1.717,1.717,0,0,0-.956.264,1.917,1.917,0,0,0-.648.71V0h-1.78V-7.925Zm8.921-1.926v1.926h1.4v1.318h-1.4v4.424a1.366,1.366,0,0,0,.059.439.574.574,0,0,0,.168.26.6.6,0,0,0,.26.125,1.557,1.557,0,0,0,.333.033,2.409,2.409,0,0,0,.355-.026q.172-.026.267-.048V-.022q-.212.059-.494.114a3.6,3.6,0,0,1-.677.055A2.74,2.74,0,0,1,49.83.029a1.621,1.621,0,0,1-.652-.381,1.771,1.771,0,0,1-.428-.688A3.074,3.074,0,0,1,48.6-2.08V-6.606h-1.3V-7.925h1.3V-9.851Zm7.2,7.7a1,1,0,0,0-.062-.355.725.725,0,0,0-.245-.308,1.97,1.97,0,0,0-.516-.267,6,6,0,0,0-.868-.234,7.713,7.713,0,0,1-1.161-.33,3.578,3.578,0,0,1-.9-.48,2.081,2.081,0,0,1-.582-.663,1.8,1.8,0,0,1-.209-.879,2.072,2.072,0,0,1,.212-.919,2.287,2.287,0,0,1,.612-.765,3.052,3.052,0,0,1,.967-.524A3.912,3.912,0,0,1,56.1-8.071a4.24,4.24,0,0,1,1.329.194,3.028,3.028,0,0,1,1,.535,2.305,2.305,0,0,1,.626.8,2.32,2.32,0,0,1,.216,1h-1.78a1.166,1.166,0,0,0-.088-.443,1.106,1.106,0,0,0-.264-.385,1.276,1.276,0,0,0-.436-.267,1.7,1.7,0,0,0-.6-.1,1.832,1.832,0,0,0-.586.084,1.3,1.3,0,0,0-.414.22.864.864,0,0,0-.245.315.911.911,0,0,0-.081.377.808.808,0,0,0,.073.352.714.714,0,0,0,.26.278,2.16,2.16,0,0,0,.5.231,7.432,7.432,0,0,0,.791.209,9.342,9.342,0,0,1,1.234.344,3.488,3.488,0,0,1,.923.483,1.956,1.956,0,0,1,.575.674,2.01,2.01,0,0,1,.2.923,2.075,2.075,0,0,1-.227.967,2.228,2.228,0,0,1-.648.758,3.145,3.145,0,0,1-1.014.494,4.631,4.631,0,0,1-1.318.176,4.149,4.149,0,0,1-1.439-.231,3.3,3.3,0,0,1-1.051-.6,2.518,2.518,0,0,1-.641-.846,2.294,2.294,0,0,1-.216-.963H54.5a1.361,1.361,0,0,0,.168.615,1.234,1.234,0,0,0,.374.4,1.566,1.566,0,0,0,.513.223,2.467,2.467,0,0,0,.586.07,1.8,1.8,0,0,0,1.069-.267A.827.827,0,0,0,57.576-2.153Z" transform="translate(751 5380)" fill="#badff0"/><path d="M2.937-3.962V0H1.084V-10.664h4.08a4.984,4.984,0,0,1,1.652.253A3.5,3.5,0,0,1,8.035-9.7a3.009,3.009,0,0,1,.758,1.077,3.481,3.481,0,0,1,.26,1.355,3.544,3.544,0,0,1-.26,1.392,2.757,2.757,0,0,1-.758,1.04,3.448,3.448,0,0,1-1.219.652,5.5,5.5,0,0,1-1.652.227Zm0-1.487H5.164a2.845,2.845,0,0,0,.919-.132,1.672,1.672,0,0,0,.634-.374,1.434,1.434,0,0,0,.363-.575,2.247,2.247,0,0,0,.114-.729,2.277,2.277,0,0,0-.114-.718,1.642,1.642,0,0,0-.363-.612,1.764,1.764,0,0,0-.634-.425,2.421,2.421,0,0,0-.919-.157H2.937ZM15.154,0a1.478,1.478,0,0,1-.121-.33q-.048-.19-.084-.41a3.161,3.161,0,0,1-.392.344,2.69,2.69,0,0,1-.476.282,2.835,2.835,0,0,1-.564.19,2.9,2.9,0,0,1-.648.07,3.2,3.2,0,0,1-1.091-.179,2.562,2.562,0,0,1-.853-.5,2.308,2.308,0,0,1-.557-.751,2.191,2.191,0,0,1-.2-.937,2.521,2.521,0,0,1,.242-1.128,2.182,2.182,0,0,1,.7-.82,3.372,3.372,0,0,1,1.132-.5,6.158,6.158,0,0,1,1.527-.172H14.89v-.52a1.388,1.388,0,0,0-.344-.985,1.365,1.365,0,0,0-1.047-.37,1.823,1.823,0,0,0-.571.084,1.388,1.388,0,0,0-.436.227,1.008,1.008,0,0,0-.278.341.937.937,0,0,0-.1.425h-1.78a1.909,1.909,0,0,1,.231-.9,2.486,2.486,0,0,1,.656-.776,3.349,3.349,0,0,1,1.029-.546A4.188,4.188,0,0,1,13.6-8.071a4.2,4.2,0,0,1,1.23.172,2.771,2.771,0,0,1,.974.513,2.309,2.309,0,0,1,.637.85,2.9,2.9,0,0,1,.227,1.19v3.516a4.051,4.051,0,0,0,.3,1.707V0ZM13.2-1.282a1.983,1.983,0,0,0,.575-.081,2.07,2.07,0,0,0,.483-.212,1.79,1.79,0,0,0,.377-.3,1.694,1.694,0,0,0,.256-.348V-3.721h-.959a2.624,2.624,0,0,0-1.487.344,1.115,1.115,0,0,0-.5.974,1.211,1.211,0,0,0,.081.447.959.959,0,0,0,.242.355,1.14,1.14,0,0,0,.392.234A1.568,1.568,0,0,0,13.2-1.282ZM22.683-6.3q-.176-.029-.355-.044t-.37-.015a1.968,1.968,0,0,0-1.047.249,1.527,1.527,0,0,0-.6.688V0H18.53V-7.925h1.7l.044.886a2.3,2.3,0,0,1,.743-.758,1.941,1.941,0,0,1,1.044-.275,2.1,2.1,0,0,1,.348.033,1.413,1.413,0,0,1,.282.07ZM27.158.146a4.078,4.078,0,0,1-1.582-.293,3.483,3.483,0,0,1-1.194-.806,3.526,3.526,0,0,1-.754-1.216,4.283,4.283,0,0,1-.264-1.516v-.293a4.891,4.891,0,0,1,.278-1.7A3.871,3.871,0,0,1,24.4-6.962a3.357,3.357,0,0,1,1.139-.82,3.453,3.453,0,0,1,1.41-.289,3.6,3.6,0,0,1,1.5.289,2.829,2.829,0,0,1,1.055.809,3.477,3.477,0,0,1,.623,1.238,5.717,5.717,0,0,1,.205,1.575V-3.4H25.159a2.846,2.846,0,0,0,.194.85,2.088,2.088,0,0,0,.428.67,1.97,1.97,0,0,0,.641.443,2.08,2.08,0,0,0,.839.161,2.373,2.373,0,0,0,1.146-.264,2.686,2.686,0,0,0,.846-.725l.959.916a3.252,3.252,0,0,1-.472.553,3.213,3.213,0,0,1-.659.476,3.792,3.792,0,0,1-.853.337A4.116,4.116,0,0,1,27.158.146Zm-.212-6.79a1.5,1.5,0,0,0-1.183.513A2.657,2.657,0,0,0,25.188-4.7h3.391v-.132a3.247,3.247,0,0,0-.114-.677,1.727,1.727,0,0,0-.282-.579,1.363,1.363,0,0,0-.494-.4A1.667,1.667,0,0,0,26.946-6.643Zm6.423-1.282.051.916a2.9,2.9,0,0,1,1-.784,3,3,0,0,1,1.3-.278,3.218,3.218,0,0,1,1.036.157,1.912,1.912,0,0,1,.795.509,2.363,2.363,0,0,1,.509.916,4.556,4.556,0,0,1,.179,1.37V0h-1.78V-5.134a2.264,2.264,0,0,0-.092-.692,1.126,1.126,0,0,0-.267-.458,1.008,1.008,0,0,0-.436-.253,2.108,2.108,0,0,0-.6-.077,1.717,1.717,0,0,0-.956.264,1.917,1.917,0,0,0-.648.71V0h-1.78V-7.925ZM42.29-9.851v1.926h1.4v1.318h-1.4v4.424a1.366,1.366,0,0,0,.059.439.574.574,0,0,0,.168.26.6.6,0,0,0,.26.125,1.557,1.557,0,0,0,.333.033,2.409,2.409,0,0,0,.355-.026q.172-.026.267-.048V-.022q-.212.059-.494.114a3.6,3.6,0,0,1-.677.055,2.74,2.74,0,0,1-.817-.117,1.621,1.621,0,0,1-.652-.381,1.771,1.771,0,0,1-.428-.688,3.074,3.074,0,0,1-.154-1.04V-6.606h-1.3V-7.925h1.3V-9.851Zm7.2,7.7a1,1,0,0,0-.062-.355.725.725,0,0,0-.245-.308,1.97,1.97,0,0,0-.516-.267,6,6,0,0,0-.868-.234,7.713,7.713,0,0,1-1.161-.33,3.578,3.578,0,0,1-.9-.48,2.081,2.081,0,0,1-.582-.663,1.8,1.8,0,0,1-.209-.879,2.072,2.072,0,0,1,.212-.919,2.287,2.287,0,0,1,.612-.765,3.052,3.052,0,0,1,.967-.524,3.912,3.912,0,0,1,1.271-.194,4.24,4.24,0,0,1,1.329.194,3.028,3.028,0,0,1,1,.535,2.305,2.305,0,0,1,.626.8,2.32,2.32,0,0,1,.216,1H49.4a1.166,1.166,0,0,0-.088-.443,1.106,1.106,0,0,0-.264-.385,1.276,1.276,0,0,0-.436-.267,1.7,1.7,0,0,0-.6-.1,1.832,1.832,0,0,0-.586.084,1.3,1.3,0,0,0-.414.22.864.864,0,0,0-.245.315.911.911,0,0,0-.081.377.808.808,0,0,0,.073.352.714.714,0,0,0,.26.278,2.16,2.16,0,0,0,.5.231,7.432,7.432,0,0,0,.791.209,9.342,9.342,0,0,1,1.234.344,3.488,3.488,0,0,1,.923.483,1.956,1.956,0,0,1,.575.674,2.01,2.01,0,0,1,.2.923,2.075,2.075,0,0,1-.227.967,2.228,2.228,0,0,1-.648.758,3.145,3.145,0,0,1-1.014.494,4.631,4.631,0,0,1-1.318.176,4.149,4.149,0,0,1-1.439-.231,3.3,3.3,0,0,1-1.051-.6,2.518,2.518,0,0,1-.641-.846,2.294,2.294,0,0,1-.216-.963h1.729a1.361,1.361,0,0,0,.168.615,1.234,1.234,0,0,0,.374.4,1.566,1.566,0,0,0,.513.223,2.467,2.467,0,0,0,.586.07,1.8,1.8,0,0,0,1.069-.267A.827.827,0,0,0,49.49-2.153Z" transform="translate(944 5380)" fill="#eca249"/></g></svg>