<svg xmlns="http://www.w3.org/2000/svg" width="1005" height="335" viewBox="0 0 1005 335"><defs><style>.a{fill:#41b4e8;}.b{fill:#eca249;}.c,.d{fill:#eff0f0;font-family:FuturaPT-Bold, Futura PT;}.c,.e,.f{font-size:24px;}.c,.d,.f{font-weight:700;}.d{font-size:44px;}.e,.f{fill:#26353c;}.e{font-family:Roboto-Regular, Roboto;}.f{font-family:Roboto-Bold, Roboto;}</style></defs><g transform="translate(-138 -5715)"><rect class="a" width="154" height="160" transform="translate(138 5791)"/><rect class="a" width="154" height="160" transform="translate(308 5791)"/><rect class="b" width="154" height="150" transform="translate(478 5801)"/><rect class="b" width="154" height="140" transform="translate(648 5812)"/><rect class="b" width="154" height="120" transform="translate(818 5831)"/><rect class="b" width="154" height="114" transform="translate(988 5837)"/><text class="c" transform="translate(1065 5875)"><tspan x="-13.8" y="0">57</tspan></text><text class="c" transform="translate(895 5869)"><tspan x="-14.4" y="0">60</tspan></text><text class="c" transform="translate(725 5846)"><tspan x="-14.4" y="0">70</tspan></text><text class="c" transform="translate(555 5841)"><tspan x="-13.656" y="0">74</tspan></text><text class="d" transform="translate(385 5848)"><tspan x="-26.4" y="0">79</tspan></text><text class="d" transform="translate(215 5848)"><tspan x="-26.4" y="0">79</tspan></text><g transform="translate(-92 4373)"><circle class="a" cx="19" cy="19" r="19" transform="translate(257 1344)"/><rect class="a" width="38" height="38" transform="translate(307 1344)"/></g><g transform="translate(254 4187.5)"><path class="b" d="M22,0,44,38H0Z" transform="translate(303.5 1545.5) rotate(90)"/><path class="b" d="M22,0,44,38H0Z" transform="translate(341.5 1545.5) rotate(90)"/></g><g transform="translate(-255 4188)"><circle class="b" cx="19" cy="19" r="19" transform="translate(961 1527)"/><path class="b" d="M22,0,44,38H0Z" transform="translate(958.5 1569.5)"/></g><g transform="translate(126 4388)"><path class="b" d="M-88.13-4333.259h0L-115-4360.13-88.13-4387l26.87,26.87-26.87,26.871ZM-88-4371a10.012,10.012,0,0,0-10,10,10.011,10.011,0,0,0,10,10,10.011,10.011,0,0,0,10-10A10.012,10.012,0,0,0-88-4371Z" transform="translate(858 5757)"/></g><g transform="translate(425 4228.5)"><g transform="translate(2199.5 1182.5) rotate(90)"><path class="b" d="M22,0,44,38H0Z" transform="translate(363 1511)"/><path class="b" d="M22,0,44,38H0Z" transform="translate(407 1604) rotate(180)"/></g></g><text class="e" transform="translate(987 5986)"><tspan x="11.068" y="22">Openness to </tspan><tspan x="16.541" y="50">Technology</tspan></text><text class="e" transform="translate(895 6010)"><tspan x="-46.939" y="0">Curiosity</tspan></text><text class="e" transform="translate(725 6011)"><tspan x="-49.799" y="0">Creativity</tspan></text><text class="f" transform="translate(215 6010)"><tspan x="-47.262" y="0">Diversity</tspan></text><text class="f" transform="translate(385 6008)"><tspan x="-72.352" y="0">Collaboration</tspan></text><text class="e" transform="translate(555 6011)"><tspan x="-60.68" y="0">Risk Taking</tspan></text><g transform="translate(-255.5 4379.5)"><g transform="translate(2189.5 974.5) rotate(90)"><path class="a" d="M22,0,44,38H0Z" transform="translate(407 1549) rotate(180)"/><path class="a" d="M22,0,44,38H0Z" transform="translate(363 1549)"/></g></g></g></svg>