<svg xmlns="http://www.w3.org/2000/svg" width="90.031" height="78.777" viewBox="0 0 90.031 78.777"><defs><style>.a{fill:#badff0;}</style></defs><path class="a" d="M56.289,69.2,47.55,86.677a2.811,2.811,0,0,1-5.082-.105l-10-22.207L27.189,76.971H10.643l32.089,32.792a3.133,3.133,0,0,0,4.519,0L79.358,76.971H60.175L56.289,69.2Zm26.99-29.874-.422-.44a23.034,23.034,0,0,0-32.951,0L45,43.915,40.095,38.9a23,23,0,0,0-32.951,0l-.422.422A24.142,24.142,0,0,0,5.439,71.345H23.444l6.312-15.157a2.819,2.819,0,0,1,5.169-.07L45.159,78.853l8.616-17.214a2.809,2.809,0,0,1,5.029,0l4.853,9.706H84.562a24.142,24.142,0,0,0-1.284-32.019Z" transform="translate(0.015 -31.95)"/></svg>