<svg xmlns="http://www.w3.org/2000/svg" width="63" height="63" viewBox="0 0 63 63"><defs><style>.a{fill:#badff0;}</style></defs><path class="a" d="M31.5,8A31.5,31.5,0,1,0,63,39.5,31.495,31.495,0,0,0,31.5,8ZM14.226,35.359c.419-5.347,4.09-9.069,7.113-9.069s6.694,3.722,7.113,9.069a1.012,1.012,0,0,1-1.893.572l-1.207-2.159a4.751,4.751,0,0,0-4-2.744,4.751,4.751,0,0,0-4,2.744l-1.207,2.159a1.028,1.028,0,0,1-1.918-.572Zm31.856,15.6a18.974,18.974,0,0,1-29.163,0,2.034,2.034,0,0,1,3.125-2.6,14.924,14.924,0,0,0,22.914,0,2.034,2.034,0,0,1,3.125,2.6Zm.788-15.026-1.207-2.159a4.751,4.751,0,0,0-4-2.744,4.751,4.751,0,0,0-4,2.744l-1.207,2.159a1.014,1.014,0,0,1-1.893-.572c.419-5.347,4.09-9.069,7.113-9.069s6.694,3.722,7.113,9.069a1.027,1.027,0,0,1-1.918.572Z" transform="translate(0 -8)"/></svg>