<svg xmlns="http://www.w3.org/2000/svg" width="649.613" height="713.737" viewBox="0 0 649.613 713.737"><defs><style>.a{fill:#d5f2ff;}</style></defs><path class="a" d="M525.962,490.276c3.485-3.485,146.651-128.807,146.651-128.807l-24.4-10.455c-13.94-6.831-10.316-16.031-6.97-24.256,3.346-10.595,28.02-93.817,28.02-93.817s-66.495,13.94-80.435,17.425c-10.455,3.346-13.94-3.485-17.425-10.455s-20.91-45.166-20.91-45.166-73.325,83.5-76.81,86.847c-13.94,10.455-28.02,0-24.535-13.94,0-13.94,38.475-180.665,38.475-180.665s-41.96,24.256-55.9,31.226c-10.455,6.97-17.565,6.97-24.535-6.97C400.082,100.788,347.667,0,347.667,0s-52.276,100.788-59.246,111.243c-6.97,13.94-13.94,13.94-24.535,6.97-13.94-6.97-55.9-31.226-55.9-31.226s38.475,166.725,38.475,180.665c3.485,13.94-10.455,24.4-24.535,13.94-3.485-3.485-76.81-86.847-76.81-86.847s-17.425,38.057-20.91,45.027-6.97,13.8-17.425,10.455C92.7,246.741,26.346,232.8,26.346,232.8s24.535,83.223,28.02,93.817c3.346,8.364,6.97,17.425-6.97,24.256L23,361.469S166.026,486.791,169.651,490.276c7.109,6.97,13.94,10.455,7.109,31.365-7.109,20.91-14.08,48.93-14.08,48.93s132.711-28.02,146.79-31.5c12.128-1.255,25.511,3.485,25.511,17.425S326.9,713.737,326.9,713.737h41.821s-8.085-143.166-8.085-157.245,13.243-18.68,25.65-17.425c13.94,3.485,146.651,31.5,146.651,31.5s-6.97-28.02-13.94-48.93S518.992,497.246,525.962,490.276Z" transform="translate(-23)"/></svg>