<?xml version="1.0" encoding="utf-8"?>
<!-- Generator: Adobe Illustrator 22.0.0, SVG Export Plug-In . SVG Version: 6.00 Build 0)  -->
<svg version="1.1" id="Layer_1" xmlns="http://www.w3.org/2000/svg" xmlns:xlink="http://www.w3.org/1999/xlink" x="0px" y="0px"
	 viewBox="0 0 185 90" style="enable-background:new 0 0 185 90;" xml:space="preserve">
<style type="text/css">
	.st0{clip-path:url(#SVGID_2_);}
	.st1{clip-path:url(#SVGID_4_);fill:#C83032;}
	.st2{clip-path:url(#SVGID_4_);fill:#FEFEFE;}
	.st3{clip-path:url(#SVGID_6_);fill:#C83032;}
	.st4{clip-path:url(#SVGID_6_);fill:#FEFEFE;}
	.st5{clip-path:url(#SVGID_6_);fill-rule:evenodd;clip-rule:evenodd;fill:#C83032;}
</style>
<g>
	<g>
		<defs>
			<rect id="SVGID_1_" x="90" y="0" width="95" height="60"/>
		</defs>
		<clipPath id="SVGID_2_">
			<use xlink:href="#SVGID_1_"  style="overflow:visible;"/>
		</clipPath>
		<g class="st0">
			<defs>
				<rect id="SVGID_3_" x="30" y="0" width="152.8" height="60"/>
			</defs>
			<clipPath id="SVGID_4_">
				<use xlink:href="#SVGID_3_"  style="overflow:visible;"/>
			</clipPath>
			<rect x="30" y="0" class="st1" width="60" height="60"/>
			<path class="st2" d="M101.3,24h4c1.3,0,1.8,0.1,2.4,0.3c1.2,0.5,1.9,1.6,1.9,3.2c0,1.4-0.7,2.7-2,3.2v0c0,0,0.2,0.2,0.4,0.6
				l2.4,4.4H108l-2.3-4.4h-2.3v4.4h-2.1 M105.5,29.5c1.1,0,1.8-0.7,1.8-1.8c0-1.1-0.5-1.8-2.1-1.8h-1.8v3.7H105.5z"/>
			<path class="st2" d="M111.2,24h2.1v2.1h-2.1 M111.2,27.3h2.1v8.4h-2.1V27.3z"/>
			<path class="st2" d="M118.3,27.1c1.8,0,2.4,1.1,2.4,1.1h0c0,0,0-0.2,0-0.5V24h2.1v11.7h-2V35c0-0.3,0-0.5,0-0.5h0
				c0,0-0.7,1.4-2.6,1.4c-2.3,0-3.7-1.8-3.7-4.4C114.5,28.9,116,27.1,118.3,27.1 M118.7,34.2c1.1,0,2.1-0.8,2.1-2.7
				c0-1.3-0.7-2.6-2.1-2.6c-1.2,0-2.1,0.9-2.1,2.6C116.6,33.1,117.4,34.2,118.7,34.2z"/>
			<path class="st2" d="M128.1,27.1c2.4,0,3.7,1.8,3.7,4c0,0.2,0,0.8,0,0.8H126c0.1,1.5,1.3,2.2,2.5,2.2c1.4,0,2.4-0.9,2.4-0.9
				l0.8,1.5c0,0-1.3,1.2-3.4,1.2c-2.8,0-4.5-2-4.5-4.4C123.8,28.9,125.6,27.1,128.1,27.1 M129.7,30.5c0-1.1-0.7-1.7-1.7-1.7
				c-1.1,0-1.8,0.7-2,1.7H129.7z"/>
			<path class="st2" d="M137.6,30.5h0.3v-0.1c0-1.1-0.7-1.5-1.6-1.5c-1.2,0-2.3,0.8-2.3,0.8l-0.8-1.5c0,0,1.3-1,3.3-1
				c2.2,0,3.5,1.2,3.5,3.3v5.3h-1.9V35c0-0.3,0-0.6,0-0.6h0c0,0-0.6,1.5-2.6,1.5c-1.5,0-2.9-0.9-2.9-2.6
				C132.7,30.6,136.3,30.5,137.6,30.5 M136,34.3c1.1,0,1.9-1.2,1.9-2.2v-0.2h-0.4c-1.1,0-2.8,0.1-2.8,1.3
				C134.8,33.8,135.2,34.3,136,34.3z"/>
			<path class="st2" d="M141.5,27.3h2.1v5c0,1,0.3,1.7,1.3,1.7c1.5,0,2.4-1.3,2.4-2.8v-3.9h2.1v8.4h-2v-1c0-0.3,0-0.6,0-0.6h0
				c-0.4,0.9-1.5,1.7-2.9,1.7c-1.8,0-2.9-0.9-2.9-3.2"/>
			<polyline class="st2" points="155.5,24 157.6,24 157.6,29 163.4,29 163.4,24 165.5,24 165.5,35.7 163.4,35.7 163.4,30.8 
				157.6,30.8 157.6,35.7 155.5,35.7 			"/>
			<path class="st2" d="M171.7,30.5h0.3v-0.1c0-1.1-0.7-1.5-1.6-1.5c-1.2,0-2.3,0.8-2.3,0.8l-0.8-1.5c0,0,1.3-1,3.3-1
				c2.2,0,3.5,1.2,3.5,3.3v5.3h-1.9V35c0-0.3,0-0.6,0-0.6h0c0,0-0.6,1.5-2.6,1.5c-1.5,0-2.9-0.9-2.9-2.6
				C166.7,30.6,170.3,30.5,171.7,30.5 M170.1,34.3c1.1,0,1.9-1.2,1.9-2.2v-0.2h-0.4c-1.1,0-2.8,0.1-2.8,1.3
				C168.8,33.8,169.2,34.3,170.1,34.3z"/>
			<path class="st2" d="M175.4,24h2.1v8.8c0,0.9,0.3,1.2,0.9,1.2c0.2,0,0.3,0,0.3,0v1.8c0,0-0.3,0-0.7,0c-1.2,0-2.6-0.3-2.6-2.7"/>
			<path class="st2" d="M179.5,24h2.1v8.8c0,0.9,0.3,1.2,0.9,1.2c0.2,0,0.3,0,0.3,0v1.8c0,0-0.3,0-0.7,0c-1.2,0-2.6-0.3-2.6-2.7"/>
			<polyline class="st2" points="101.3,40.8 108.5,40.8 108.5,42.6 103.4,42.6 103.4,45.9 106.7,45.9 106.7,47.7 103.4,47.7 
				103.4,52.5 101.3,52.5 			"/>
			<path class="st2" d="M112.1,43.9c2.6,0,4.6,1.8,4.6,4.4c0,2.6-2.1,4.4-4.6,4.4c-2.6,0-4.6-1.8-4.6-4.4
				C107.5,45.7,109.6,43.9,112.1,43.9 M112.1,50.9c1.4,0,2.5-1.1,2.5-2.6c0-1.5-1.1-2.6-2.5-2.6c-1.4,0-2.5,1.1-2.5,2.6
				C109.6,49.8,110.8,50.9,112.1,50.9z"/>
			<path class="st2" d="M117.8,44.1h2.1v5c0,1,0.3,1.7,1.3,1.7c1.5,0,2.4-1.3,2.4-2.8v-3.9h2.1v8.4h-2v-1c0-0.3,0-0.6,0-0.6h0
				c-0.4,0.9-1.5,1.7-2.9,1.7c-1.8,0-2.9-0.9-2.9-3.2"/>
			<path class="st2" d="M127.4,44.1h2v1c0,0.3,0,0.6,0,0.6h0c0.4-0.7,1.3-1.7,3-1.7c1.9,0,2.9,1,2.9,3.2v5.4h-2.1v-5
				c0-1-0.3-1.7-1.3-1.7c-1.1,0-1.9,0.7-2.3,1.7c-0.1,0.3-0.1,0.7-0.1,1.1v3.9h-2.1"/>
			<path class="st2" d="M140.3,43.9c1.8,0,2.4,1.1,2.4,1.1h0c0,0,0-0.2,0-0.5v-3.7h2.1v11.7h-2v-0.7c0-0.3,0-0.5,0-0.5h0
				c0,0-0.7,1.4-2.6,1.4c-2.3,0-3.7-1.8-3.7-4.4C136.5,45.6,138.1,43.9,140.3,43.9 M140.7,50.9c1.1,0,2.1-0.8,2.1-2.7
				c0-1.3-0.7-2.6-2.1-2.6c-1.2,0-2.1,0.9-2.1,2.6C138.6,49.9,139.4,50.9,140.7,50.9z"/>
			<path class="st2" d="M151,47.2h0.3v-0.1c0-1.1-0.7-1.5-1.6-1.5c-1.2,0-2.3,0.8-2.3,0.8l-0.8-1.5c0,0,1.3-1,3.3-1
				c2.2,0,3.5,1.2,3.5,3.3v5.3h-1.9v-0.7c0-0.3,0-0.6,0-0.6h0c0,0-0.6,1.5-2.6,1.5c-1.5,0-2.9-0.9-2.9-2.6
				C146.1,47.4,149.7,47.2,151,47.2 M149.4,51c1.1,0,1.9-1.2,1.9-2.2v-0.2H151c-1.1,0-2.8,0.1-2.8,1.3C148.2,50.5,148.6,51,149.4,51
				z"/>
			<path class="st2" d="M155.4,45.8h-1.1v-1.7h1.1v-2.4h2v2.4h1.9v1.7h-1.9v3.3c0,1.4,1.1,1.6,1.7,1.6c0.2,0,0.4,0,0.4,0v1.8
				c0,0-0.2,0-0.6,0c-1.2,0-3.5-0.3-3.5-3.2"/>
			<path class="st2" d="M161.2,40.8h2.1v2.1h-2.1 M161.2,44.1h2.1v8.4h-2.1V44.1z"/>
			<path class="st2" d="M169,43.9c2.6,0,4.6,1.8,4.6,4.4c0,2.6-2.1,4.4-4.6,4.4c-2.6,0-4.6-1.8-4.6-4.4
				C164.4,45.7,166.5,43.9,169,43.9 M169.1,50.9c1.4,0,2.5-1.1,2.5-2.6c0-1.5-1.1-2.6-2.5-2.6c-1.4,0-2.5,1.1-2.5,2.6
				C166.6,49.8,167.7,50.9,169.1,50.9z"/>
			<path class="st2" d="M174.9,44.1h2v1c0,0.3,0,0.6,0,0.6h0c0.4-0.7,1.3-1.7,3-1.7c1.9,0,2.9,1,2.9,3.2v5.4h-2.1v-5
				c0-1-0.3-1.7-1.3-1.7c-1.1,0-1.9,0.7-2.3,1.7c-0.1,0.3-0.1,0.7-0.1,1.1v3.9h-2.1"/>
			<polyline class="st2" points="101.3,7.4 108.5,7.4 108.5,9.2 103.4,9.2 103.4,12.5 106.7,12.5 106.7,14.3 103.4,14.3 103.4,19.1 
				101.3,19.1 			"/>
			<path class="st2" d="M112.1,10.4c2.6,0,4.6,1.8,4.6,4.4c0,2.6-2.1,4.4-4.6,4.4c-2.6,0-4.6-1.8-4.6-4.4
				C107.5,12.3,109.6,10.4,112.1,10.4 M112.1,17.5c1.4,0,2.5-1.1,2.5-2.6c0-1.5-1.1-2.6-2.5-2.6c-1.4,0-2.5,1.1-2.5,2.6
				C109.6,16.4,110.8,17.5,112.1,17.5z"/>
			<path class="st2" d="M117.9,10.6h2v1c0,0.3,0,0.6,0,0.6h0c0.4-0.7,1.3-1.7,3-1.7c1.9,0,2.9,1,2.9,3.2v5.4h-2.1v-5
				c0-1-0.3-1.7-1.3-1.7c-1.1,0-1.9,0.7-2.3,1.7c-0.1,0.3-0.1,0.7-0.1,1.1v3.9h-2.1"/>
			<path class="st2" d="M130.8,10.4c1.8,0,2.4,1.1,2.4,1.1h0c0,0,0-0.2,0-0.5V7.3h2.1V19h-2v-0.7c0-0.3,0-0.5,0-0.5h0
				c0,0-0.7,1.4-2.6,1.4c-2.3,0-3.7-1.8-3.7-4.4C127,12.2,128.6,10.4,130.8,10.4 M131.2,17.5c1.1,0,2.1-0.8,2.1-2.7
				c0-1.3-0.7-2.6-2.1-2.6c-1.2,0-2.1,0.9-2.1,2.6C129.1,16.4,130,17.5,131.2,17.5z"/>
			<path class="st2" d="M141.5,13.8h0.3v-0.1c0-1.1-0.7-1.5-1.6-1.5c-1.2,0-2.3,0.8-2.3,0.8l-0.8-1.5c0,0,1.3-1,3.3-1
				c2.2,0,3.5,1.2,3.5,3.3v5.3H142v-0.7c0-0.3,0-0.6,0-0.6h0c0,0-0.6,1.5-2.6,1.5c-1.5,0-2.9-0.9-2.9-2.6
				C136.6,14,140.2,13.8,141.5,13.8 M140,17.6c1.1,0,1.9-1.2,1.9-2.2v-0.2h-0.4c-1.1,0-2.8,0.1-2.8,1.3
				C138.7,17.1,139.1,17.6,140,17.6z"/>
			<path class="st2" d="M145.9,12.4h-1.1v-1.7h1.1V8.4h2v2.4h1.9v1.7H148v3.3c0,1.4,1.1,1.6,1.7,1.6c0.2,0,0.4,0,0.4,0v1.8
				c0,0-0.2,0.1-0.6,0.1c-1.2,0-3.5-0.3-3.5-3.2"/>
			<path class="st2" d="M151.6,7.4h2.1v2.1h-2.1 M151.6,10.6h2.1v8.4h-2.1V10.6z"/>
			<path class="st2" d="M159.5,10.4c2.6,0,4.6,1.8,4.6,4.4c0,2.6-2.1,4.4-4.6,4.4c-2.6,0-4.6-1.8-4.6-4.4
				C154.9,12.3,157,10.4,159.5,10.4 M159.5,17.5c1.4,0,2.5-1.1,2.5-2.6c0-1.5-1.1-2.6-2.5-2.6c-1.4,0-2.5,1.1-2.5,2.6
				C157,16.4,158.2,17.5,159.5,17.5z"/>
			<path class="st2" d="M165.4,10.6h2v1c0,0.3,0,0.6,0,0.6h0c0.4-0.7,1.3-1.7,3-1.7c1.9,0,2.9,1,2.9,3.2v5.4h-2.1v-5
				c0-1-0.3-1.7-1.3-1.7c-1.1,0-1.9,0.7-2.3,1.7c-0.1,0.3-0.1,0.7-0.1,1.1v3.9h-2.1"/>
		</g>
	</g>
	<g>
		<defs>
			<rect id="SVGID_5_" y="0" width="90" height="90"/>
		</defs>
		<clipPath id="SVGID_6_">
			<use xlink:href="#SVGID_5_"  style="overflow:visible;"/>
		</clipPath>
		<rect y="0" class="st3" width="90" height="90"/>
		<rect x="37.3" y="3.8" class="st4" width="13" height="15.8"/>
		<path class="st4" d="M47,58.6c0-3.1-1.2-5-6.2-5h-1.2v10h2.2C45,63.7,47,61.9,47,58.6"/>
		<polyline class="st4" points="39.6,72.3 39.6,86.2 49.2,86.2 42.5,72.3 		"/>
		<path class="st4" d="M86.3,12.5V3.8H60.6h-0.2V45H50.3V29.6h-13V45h3.8h1.7c3.1,0.1,4.8,0.4,6.3,1c4.7,1.8,8.1,5.8,8.1,11.8
			c0,4.4-1.5,9.3-5.6,11.4v0.1l8.8,16.9h2.7V70.9h13v15.4h10.2V45H76.1v15.8h-13V45h7.5V29.6h11.1v-9.2H70.6v-7.9"/>
		<path class="st4" d="M26,28.1V28c4.1-2.1,5.6-7,5.6-11.4c0-6-3.4-10-8.1-11.8c-1.8-0.7-3.4-1-7.6-1h-0.1h-12V45h0v41.2h10.1V70.8
			H25v-9.2H13.9v-7.9h15.6V45h0h5.2 M13.8,45V31.1h3L23.4,45H13.8z"/>
		<polyline class="st5" points="16.5,10 17.9,13 19.1,12.2 19.1,16.6 21,14.6 21.1,16 23.3,15.7 22.5,17.9 23.6,18.6 19.8,21.6 
			20.4,22.8 12.5,22.8 13.1,21.6 9.4,18.6 10.4,17.9 9.6,15.7 11.9,16 11.9,14.6 13.8,16.6 13.8,12.2 15,13 16.5,10 		"/>
	</g>
</g>
</svg>
