<svg xmlns="http://www.w3.org/2000/svg" width="138.48" height="170.43" viewBox="0 0 138.48 170.43"><defs><style>.a{fill:#badff0;}</style></defs><path class="a" d="M90.545,31.957A15.978,15.978,0,1,0,74.566,15.978,15.978,15.978,0,0,0,90.545,31.957Zm-52.7,73.724-4.927,11.491H10.652a10.652,10.652,0,0,0,0,21.3H36.434a15.945,15.945,0,0,0,14.684-9.684l2.926-6.831-3.552-2.1a31.7,31.7,0,0,1-12.646-14.184Zm89.982-31.118H113.171L104.5,56.837A31.942,31.942,0,0,0,83.93,39.88L60.269,32.842a31.822,31.822,0,0,0-26.91,5.706L20.153,48.671a10.651,10.651,0,0,0,12.963,16.9L46.328,55.452a10.366,10.366,0,0,1,8.412-2.044l4.893,1.455L47.163,83.953a21.361,21.361,0,0,0,8.755,26.734l28.289,16.7-9.144,29.2a10.651,10.651,0,1,0,20.329,6.365l10.532-33.641a16.045,16.045,0,0,0-7.2-18.106L78.334,99.18,88.757,73.121,95.5,86.913a16.077,16.077,0,0,0,14.351,8.951h17.972a10.651,10.651,0,1,0,0-21.3Z"/></svg>