<svg xmlns="http://www.w3.org/2000/svg" width="85.981" height="86.024" viewBox="0 0 85.981 86.024"><defs><style>.a{fill:#badff0;}</style></defs><path class="a" d="M16.129,43.009H28.457L13.839,28.392a1.344,1.344,0,0,1,0-1.9l1.9-1.9a1.344,1.344,0,0,1,1.9,0L34.947,41.895V17.471a1.344,1.344,0,0,1,1.344-1.344h2.688a1.344,1.344,0,0,1,1.344,1.344V43.009h8.828a21.291,21.291,0,0,1-.763-5.376A21.529,21.529,0,0,1,69.894,16.126c.445,0,.86.1,1.3.131A15.583,15.583,0,0,0,54.916,11.38a18.808,18.808,0,0,0-34.561,0,15.961,15.961,0,0,0-4.226-.63,16.129,16.129,0,1,0,0,32.259Zm37.635-5.376a15.962,15.962,0,0,0,.988,5.376H83.2a8.045,8.045,0,0,1,1.776.208,16.108,16.108,0,1,0-31.207-5.585ZM83.2,48.385H2.717A2.677,2.677,0,0,0,.01,51.215a32.2,32.2,0,0,0,21.5,27.529v1.9a5.376,5.376,0,0,0,5.376,5.376H59.141a5.376,5.376,0,0,0,5.376-5.376V78.71A32.2,32.2,0,0,0,85.9,51.215,2.679,2.679,0,0,0,83.2,48.385Z" transform="translate(0 0.004)"/></svg>